<svg xmlns="http://www.w3.org/2000/svg" version="1.1" xmlns:xlink="http://www.w3.org/1999/xlink" xmlns:svgjs="http://svgjs.com/svgjs" width="126" height="113">
  <svg width="126" height="113" viewBox="0 0 126 113" fill="none" xmlns="http://www.w3.org/2000/svg">
    <path fill-rule="evenodd" clip-rule="evenodd" d="M0.199951 50V109V113H4.19995H121.8H125.8V109V50H117.8V105H8.19995V50H0.199951Z" fill="#64595C"/>
    <path d="M0 53.429V47.4258L48.3069 22.8124V32.4176L11.2516 50.2773L11.5517 49.677V51.1778L11.2516 50.5775L48.3069 68.4372V78.0424L0 53.429Z" fill="#64595C"/>
    <path d="M79.4367 0L54.6832 92H46.582L71.3356 0H79.4367Z" fill="#64595C"/>
    <path d="M126 53.429L77.6931 78.0424V68.4372L114.748 50.5775L114.448 51.1778V49.677L114.748 50.2773L77.6931 32.4176V22.8124L126 47.4258V53.429Z" fill="#64595C"/>
  </svg>
  <style>
    @media (prefers-color-scheme: light) { :root { filter: none; } }
@media (prefers-color-scheme: dark) { :root { filter: invert(100%); } }
  </style>
</svg>
