<svg height="40" color="#374151" viewBox="0 0 962 304" fill="none" xmlns="http://www.w3.org/2000/svg"><g><path d="M876.711 252.39C866.231 252.39 857.736 243.895 857.736 233.415V131.335C857.736 120.856 866.231 112.36 876.711 112.36C887.19 112.36 895.686 120.856 895.686 131.335V233.415C895.686 243.895 887.19 252.39 876.711 252.39Z" fill="currentColor"></path><path d="M790.344 252.39C779.864 252.39 771.369 243.895 771.369 233.415V131.335C771.369 120.856 779.864 112.36 790.344 112.36C800.823 112.36 809.319 120.856 809.319 131.335V233.415C809.319 243.895 800.823 252.39 790.344 252.39Z" fill="currentColor"></path><path d="M811.811 63.4415C811.811 75.2063 802.273 84.7434 790.509 84.7434C778.744 84.7434 769.207 75.2063 769.207 63.4415C769.207 51.6768 778.744 42.1396 790.509 42.1396C802.273 42.1396 811.811 51.6768 811.811 63.4415Z" fill="currentColor"></path><path d="M709.22 252.35C699.76 252.35 691.73 250.92 685.13 248.06C678.75 245.2 673.47 241.24 669.29 236.18C665.33 230.9 662.36 224.74 660.38 217.7C658.62 210.44 657.74 202.41 657.74 193.61V116.39H633.755C625.463 116.39 618.74 109.667 618.74 101.375C618.74 93.0821 625.463 86.3596 633.755 86.3596H657.74V61.2797C657.74 50.7089 666.31 42.1396 676.88 42.1396C687.451 42.1396 696.02 50.7089 696.02 61.2796V86.3596H720.005C728.298 86.3596 735.02 93.0821 735.02 101.375C735.02 109.667 728.298 116.39 720.005 116.39H696.02V193.61C696.02 212.53 703.61 221.99 718.79 221.99H720.04C728.424 221.99 735.22 228.786 735.22 237.17C735.22 245.553 728.424 252.35 720.041 252.35C716.426 252.35 712.631 252.35 709.22 252.35Z" fill="currentColor"></path><path d="M548.667 252.35C537.447 252.35 526.337 250.26 515.337 246.08C509.541 243.715 504.159 241.063 499.19 238.125C492.214 234.001 491.042 224.763 495.82 218.217C500.892 211.266 510.657 210.048 518.039 214.47C520.896 216.181 523.735 217.698 526.557 219.02C533.816 222.1 541.627 223.64 549.987 223.64C558.787 223.64 565.277 221.88 569.456 218.36C573.637 214.62 575.727 209.89 575.727 204.17C575.727 200.87 574.737 198.01 572.757 195.59C570.777 192.95 568.137 190.64 564.837 188.66C561.536 186.68 557.797 184.92 553.617 183.38C549.437 181.62 545.257 179.86 541.077 178.1C535.797 176.12 530.407 173.81 524.907 171.17C519.407 168.53 514.456 165.34 510.057 161.6C505.876 157.86 502.357 153.57 499.497 148.73C496.857 143.67 495.536 137.73 495.536 130.91C495.536 116.61 500.816 104.95 511.376 95.9304C521.936 86.9104 536.347 82.4004 554.607 82.4004C565.827 82.4004 575.946 84.3804 584.966 88.3404C588.951 90.0898 592.7 91.9466 596.212 93.9107C603.246 97.8439 604.468 107.059 599.604 113.484C594.777 119.859 585.794 121.018 578.642 117.441C576.91 116.574 575.168 115.784 573.417 115.07C567.697 112.43 561.646 111.11 555.266 111.11C547.126 111.11 541.076 112.87 537.117 116.39C533.376 119.69 531.507 123.87 531.507 128.93C531.507 132.23 532.387 135.09 534.146 137.51C536.126 139.71 538.657 141.69 541.737 143.45C544.817 145.21 548.337 146.86 552.297 148.4C556.477 149.94 560.766 151.48 565.167 153.02C570.667 155 576.167 157.31 581.667 159.95C587.167 162.37 592.116 165.45 596.516 169.19C601.136 172.93 604.767 177.55 607.406 183.05C610.267 188.33 611.697 194.71 611.697 202.19C611.697 209.23 610.267 215.83 607.406 221.99C604.767 227.93 600.806 233.21 595.526 237.83C590.246 242.23 583.647 245.75 575.727 248.39C567.807 251.03 558.786 252.35 548.667 252.35Z" fill="currentColor"></path><path d="M405.501 252.35C394.281 252.35 383.831 250.48 374.151 246.74C364.471 242.78 356.001 237.17 348.741 229.91C341.481 222.65 335.761 213.85 331.581 203.51C327.621 192.95 325.641 180.96 325.641 167.54C325.641 154.34 327.731 142.46 331.911 131.9C336.091 121.34 341.591 112.43 348.411 105.17C355.451 97.9104 363.481 92.3004 372.501 88.3404C381.521 84.3804 390.761 82.4004 400.221 82.4004C411.221 82.4004 420.901 84.2704 429.261 88.0104C437.621 91.7504 444.551 97.0304 450.051 103.85C455.771 110.67 460.061 118.81 462.921 128.27C465.781 137.73 467.211 148.07 467.211 159.29C467.211 160.655 467.194 162.043 467.153 163.441C466.904 171.873 459.558 177.77 451.122 177.77H362.601C364.361 192.29 369.421 203.51 377.781 211.43C386.361 219.13 397.251 222.98 410.451 222.98C417.491 222.98 423.981 221.99 429.921 220.01C431.707 219.373 433.483 218.67 435.251 217.903C442.465 214.771 451.244 216.958 454.989 223.873C458.355 230.087 456.433 237.92 450.123 241.1C445.419 243.471 440.445 245.571 435.201 247.4C425.741 250.7 415.841 252.35 405.501 252.35ZM362.271 152.03H434.211C434.211 139.49 431.461 129.7 425.961 122.66C420.681 115.4 412.431 111.77 401.211 111.77C391.531 111.77 383.061 115.18 375.801 122C368.541 128.82 364.031 138.83 362.271 152.03Z" fill="currentColor"></path><path d="M898.178 63.4415C898.178 75.2063 888.641 84.7434 876.876 84.7434C865.111 84.7434 855.574 75.2063 855.574 63.4415C855.574 51.6768 865.111 42.1396 876.876 42.1396C888.641 42.1396 898.178 51.6768 898.178 63.4415Z" fill="currentColor"></path></g><path d="M188.126 242C178.8 242 170.407 240.135 162.946 236.404C155.796 232.363 149.112 228.011 142.895 223.348C136.677 218.685 130.615 214.488 124.709 210.758C119.113 206.716 113.051 204.696 106.523 204.696C96.9107 204.696 88.1408 209.666 80.2133 219.608C75.2613 225.818 66.3121 227.975 59.9334 223.243L52.7201 217.891C47.2808 213.855 45.7708 206.284 49.725 200.785C57.6487 189.767 65.8565 181.589 74.3482 176.251C85.5395 169.101 96.5753 165.526 107.456 165.526C116.782 165.526 125.02 167.547 132.17 171.588C139.631 175.319 146.47 179.515 152.687 184.178C158.904 188.841 164.811 193.194 170.407 197.235C176.313 200.965 182.53 202.831 189.059 202.831C198.601 202.831 207.312 197.932 215.194 188.136C220.233 181.873 229.337 179.766 235.705 184.672L242.616 189.998C247.944 194.102 249.338 201.627 245.379 207.063C237.459 217.938 229.255 226.164 220.767 231.741C209.887 238.58 199.006 242 188.126 242Z" fill="#374151"></path><path fill-rule="evenodd" clip-rule="evenodd" d="M188.126 158.474C178.8 158.474 170.407 156.608 162.946 152.878C155.796 148.837 149.112 144.485 142.895 139.821C136.677 135.158 130.615 130.962 124.709 127.231C119.113 123.19 113.051 121.169 106.523 121.169C96.9107 121.169 88.1408 126.14 80.2133 136.081C75.2613 142.291 66.3121 144.449 59.9334 139.716L52.7201 134.364C47.2808 130.329 45.7708 122.758 49.725 117.259C57.6487 106.241 65.8565 98.0626 74.3482 92.7249C85.5395 85.575 96.5753 82 107.456 82C116.782 82 125.02 84.0206 132.17 88.0619C139.631 91.7923 146.47 95.9891 152.687 100.652C158.904 105.315 164.811 109.667 170.407 113.709C176.313 117.439 182.53 119.304 189.059 119.304C197.038 119.304 204.437 115.879 211.255 109.029L198.799 98.4636C196.199 96.2577 197.374 92.0181 200.739 91.466L251.886 83.0753C254.32 82.6761 256.497 84.5519 256.5 87.0176V138.848C256.504 142.258 252.61 144.109 250.01 141.904L238.546 132.179C232.765 138.88 226.839 144.225 220.767 148.215C209.887 155.054 199.006 158.474 188.126 158.474Z" fill="#374151"></path></svg>