<svg viewBox="0 0 134 64" fill="none" xmlns="http://www.w3.org/2000/svg" class="h-16 w-28 hidden md:block"><path d="M6.79718 60.3227V7.84388C6.79718 7.00701 6.96205 6.17834 7.28238 5.4052C7.6027 4.63206 8.07221 3.9296 8.66407 3.33794C9.25593 2.74629 9.95856 2.27704 10.7318 1.95699C11.5051 1.63694 12.3338 1.47236 13.1707 1.47266V1.47266C14.0075 1.47236 14.8363 1.63694 15.6095 1.95699C16.3828 2.27704 17.0854 2.74629 17.6773 3.33794C18.2691 3.9296 18.7386 4.63206 19.059 5.4052C19.3793 6.17834 19.5442 7.00701 19.5442 7.84388V26.0558C19.5444 32.8016 22.2241 39.271 26.9939 44.0411L43.5745 60.6217C44.743 61.7902 46.3277 62.4466 47.9802 62.4466C49.6326 62.4466 51.2174 61.7902 52.3859 60.6217C52.965 60.0435 53.4244 59.3567 53.7378 58.6007C54.0513 57.8448 54.2126 57.0344 54.2126 56.216C54.2126 55.3976 54.0513 54.5873 53.7378 53.8313C53.4244 53.0754 52.965 52.3886 52.3859 51.8103L36.2516 35.6557C34.6717 34.0755 33.7842 31.9325 33.7842 29.698C33.7842 27.4634 34.6717 25.3204 36.2516 23.7402L53.9039 6.08794" stroke="#374151" stroke-width="2.94545" stroke-linecap="round" stroke-linejoin="round" class=""></path><path d="M53.3579 13.8141C57.1119 13.8141 60.1551 10.7709 60.1551 7.01691C60.1551 3.26293 57.1119 0.219727 53.3579 0.219727C49.6039 0.219727 46.5607 3.26293 46.5607 7.01691C46.5607 10.7709 49.6039 13.8141 53.3579 13.8141Z" fill="#374151" class=""></path><path d="M6.79718 63.9996C10.5512 63.9996 13.5944 60.9564 13.5944 57.2025C13.5944 53.4485 10.5512 50.4053 6.79718 50.4053C3.0432 50.4053 0 53.4485 0 57.2025C0 60.9564 3.0432 63.9996 6.79718 63.9996Z" fill="#374151" class=""></path><path d="M80.5602 3.50488V19.7207L85.8439 14.437L91.4538 8.82934" stroke="#374151" stroke-width="2.94545" stroke-linecap="round" stroke-linejoin="round" class=""></path><path d="M86.0523 14.2314L90.2824 18.4616C90.7381 18.9175 91.0995 19.4586 91.3459 20.0542C91.5924 20.6498 91.7191 21.2881 91.7189 21.9327V34.3942C91.7193 35.533 91.382 36.6464 90.7496 37.5935C90.1171 38.5407 89.218 39.2789 88.1659 39.715C87.1138 40.151 85.9561 40.2652 84.8391 40.0431C83.7221 39.821 82.696 39.2727 81.8907 38.4674C81.0854 37.6621 80.5371 36.636 80.315 35.519C80.0929 34.402 80.2071 33.2443 80.6431 32.1922C81.0792 31.1401 81.8174 30.241 82.7646 29.6085C83.7117 28.9761 84.8251 28.6388 85.9639 28.6392H95.9331C97.1027 28.6392 98.2244 29.1037 99.0517 29.9305C99.8789 30.7573 100.344 31.8787 100.345 33.0483V34.666C100.345 36.122 100.923 37.5184 101.952 38.548C102.982 39.5775 104.378 40.1559 105.834 40.1559V40.1559C107.29 40.1559 108.687 39.5775 109.716 38.548C110.746 37.5184 111.324 36.122 111.324 34.666V28.6437" stroke="#374151" stroke-width="2.94545" stroke-linecap="round" stroke-linejoin="round" class=""></path><path d="M131.374 29.4411L125.764 35.0488L120.48 40.3302V13.7011C120.48 12.9797 120.622 12.2653 120.898 11.5988C121.174 10.9324 121.579 10.3268 122.089 9.81679C122.6 9.30677 123.205 8.90227 123.872 8.6264C124.539 8.35053 125.253 8.20869 125.974 8.20898V8.20898C126.696 8.20898 127.41 8.35106 128.076 8.62709C128.742 8.90312 129.347 9.30771 129.857 9.81773C130.367 10.3277 130.771 10.9332 131.047 11.5995C131.323 12.2659 131.465 12.98 131.464 13.7011V19.7121" stroke="#374151" stroke-width="2.94545" stroke-linecap="round" stroke-linejoin="round" class=""></path><path d="M126.326 35.1953L131.639 40.5084" stroke="#374151" stroke-width="2.94545" stroke-linecap="round" stroke-linejoin="round" class=""></path><path d="M105.923 20.7633C109.677 20.7633 112.72 17.7201 112.72 13.9661C112.72 10.2121 109.677 7.16895 105.923 7.16895C102.169 7.16895 99.1256 10.2121 99.1256 13.9661C99.1256 17.7201 102.169 20.7633 105.923 20.7633Z" fill="#374151" class=""></path><path d="M111.324 53.797V54.5039C111.325 55.225 111.183 55.9391 110.907 56.6055C110.631 57.2718 110.227 57.8772 109.717 58.3873C109.207 58.8973 108.602 59.3019 107.936 59.5779C107.27 59.8539 106.556 59.996 105.834 59.996V59.996C105.113 59.996 104.399 59.8539 103.733 59.5779C103.067 59.3019 102.461 58.8973 101.952 58.3873C101.442 57.8772 101.038 57.2718 100.762 56.6055C100.486 55.9391 100.344 55.225 100.345 54.5039V52.3809C100.345 51.8725 100.243 51.3692 100.047 50.9004C99.8499 50.4316 99.5617 50.0067 99.1988 49.6506C98.836 49.2945 98.4058 49.0143 97.9334 48.8264C97.4609 48.6385 96.9558 48.5467 96.4475 48.5564L80.2068 48.8373" stroke="#374151" stroke-width="2.94545" stroke-linecap="round" stroke-linejoin="round" class=""></path><path d="M111.324 54.3274V53.3848C111.325 52.7409 111.452 52.1033 111.699 51.5085C111.945 50.9137 112.307 50.3735 112.763 49.9185C113.219 49.4636 113.76 49.103 114.355 48.8572C114.95 48.6115 115.588 48.4854 116.232 48.4863V48.4863C116.876 48.486 117.513 48.6126 118.108 48.8587C118.703 49.1049 119.243 49.4658 119.699 49.9209C120.154 50.376 120.515 50.9164 120.762 51.5111C121.008 52.1059 121.135 52.7433 121.135 53.3871V59.9962" stroke="#374151" stroke-width="2.94545" stroke-linecap="round" stroke-linejoin="round" class=""></path><path d="M121.128 59.9962V53.3848C121.128 52.7414 121.255 52.1042 121.501 51.5097C121.747 50.9153 122.108 50.3752 122.564 49.9203C123.019 49.4654 123.559 49.1046 124.154 48.8586C124.748 48.6125 125.385 48.486 126.029 48.4863V48.4863C126.672 48.486 127.31 48.6126 127.905 48.8588C128.499 49.105 129.04 49.4659 129.495 49.9211C129.95 50.3762 130.311 50.9166 130.557 51.5113C130.803 52.106 130.93 52.7434 130.93 53.3871V59.9962" stroke="#374151" stroke-width="2.94545" stroke-linecap="round" stroke-linejoin="round" class=""></path><path d="M86.0523 40.8643V55.2131C86.0523 56.4812 86.5559 57.6975 87.4524 58.5944C88.3489 59.4913 89.5649 59.9955 90.833 59.9961V59.9961" stroke="#374151" stroke-width="2.94545" stroke-linecap="round" stroke-linejoin="round" class=""></path></svg>