<svg version="1.1" id="Layer_1" xmlns:xodm="http://www.corel.com/coreldraw/odm/2003"
	 xmlns="http://www.w3.org/2000/svg" xmlns:xlink="http://www.w3.org/1999/xlink" x="0px" y="0px" viewBox="0 0 1000 320"
	 style="enable-background:new 0 0 1000 320;" xml:space="preserve">
<style type="text/css">
	.st0{fill-rule:evenodd;clip-rule:evenodd;fill:#374151;}
</style>
<g id="full_logo">
	<g id="rqst_mtrcs">
		<path id="METRICS" class="st0" d="M930.3,236.3c0,5.5,1.5,9.5,4.5,12.5s7,4.5,11.5,4.5c3.5,0,7-1,9.5-3s4-5,4-8.5c0-2-0.5-3.5-1-5
			c-1-1.5-2-2.5-3.5-3.5s-3-2-5-3s-4-1.5-6-2.5c-4.5-1.5-9-3.5-13-5s-7.5-4-10.5-6c-3-2.5-5.5-5.5-7-8.5c-2-3.5-2.5-7.5-2.5-12.5
			c0-4.5,1-8.5,3-12s4.5-6.5,7.5-9s7-4,11-5.5s8.5-2,13-2c6,0,11,1,15.5,2.5s8,4,11,7s5,6.5,6.5,10c1.5,4,2,8,2,12h-23.5
			c0-4.5-1-8-3-10.5s-5-4-9-4c-3.5,0-6,1-8.5,2.5s-3.5,4.5-3.5,7.5c0,3.5,1.5,6,4,8s6,3.5,10.5,5c4,1.5,8,3,12.5,4.5
			c4,1.5,8,3.5,11,6c3.5,2.5,6,5.5,8,9s3,7.5,3,12.5s-1,9.5-3,13.5c-2,4-4.5,7.5-7.5,10c-3.5,2.5-7,4.5-12,6c-4.5,1.5-9.5,2-15,2
			s-10.5-1-15-2.5s-8.5-4-12-7s-6-6.5-8-11s-3-9.5-3-15h23.5V236.3z"/>
		<path id="METRICS_0" class="st0" d="M889.3,233.8c-1,5.5-3,10.5-5.5,15s-6,8.5-10.5,12s-9,6-15,8c-5.5,2-12,3-19,3
			c-8.5,0-16-1.5-22.5-4.5s-12-6.5-17-11.5c-4.5-5-8-10.5-10.5-16.5c-2.5-6.5-3.5-13-3.5-20s1-13.5,3.5-19.5c2.5-6.5,6-12,10.5-16.5
			c4.5-5,10-8.5,16.5-11.5s13.5-4.5,22-4.5c7.5,0,14.5,1,20.5,3.5c6,2,11,5,15.5,9c4,3.5,7.5,8,10,13s4,10.5,5,16h-24
			c-0.5-3-1.5-5.5-3-8s-3-4.5-5.5-6.5c-2-2-4.5-3.5-7.5-4.5s-6-1.5-9.5-1.5c-5,0-9,1-13,2.5c-3.5,2-7,4-9.5,7s-4.5,6-6,10
			s-2,7.5-2,12s0.5,8.5,2,12.5s3.5,7,6,10s6,5,10,7c4,1.5,8.5,2.5,13.5,2.5c3,0,5.5-0.5,8-1.5s5-2,7-3.5s4-3.5,5.5-5.5
			s2.5-4.5,3.5-7h24.5V233.8L889.3,233.8z"/>
		<polygon id="METRICS_1" class="st0" points="745,169.9 768.5,169.9 768.5,269.3 745,269.3 		"/>
		<path id="METRICS_2" class="st0" d="M648.6,169.9h42c5.5,0,10.5,1,15,3s8.5,4.5,11.5,8s5.5,7,7.5,11.5c1.5,4.5,2.5,9,2.5,14
			c0,7-1.5,13.5-5,19s-8.5,10-14.5,13l20,31.5H701l-17.5-27.5h-11v27.5h-23V170L648.6,169.9L648.6,169.9z M687,223.3
			c2.5,0,4.5-0.5,6.5-1.5s3.5-2,5-4c1.5-1.5,2.5-3.5,3-5.5c1-2,1-4.5,1-6.5c0-2.5-0.5-4.5-1-6.5c-1-2-2-4-3-5.5c-1.5-1.5-3-3-5-4
			s-4-1.5-6.5-1.5h-16v35H687L687,223.3L687,223.3z"/>
		<polygon id="METRICS_3" class="st0" points="585.6,189.8 563.1,189.8 563.1,169.9 631.1,169.9 631.1,189.8 608.6,189.8
			608.6,269.3 585.6,269.3 		"/>
		<polygon id="METRICS_4" class="st0" points="508.2,188.3 508.2,210.8 545.7,210.8 545.7,228.8 508.2,228.8 508.2,250.8
			545.7,250.8 545.7,269.3 485.2,269.3 485.2,169.9 545.7,169.9 545.7,188.3 		"/>
		<polygon id="METRICS_5" class="st0" points="467.7,269.3 445.3,269.3 445.3,207.8 423.8,269.3 406.8,269.3 384.8,207.8
			384.8,269.3 362.3,269.3 362.3,169.9 388.8,169.9 415.3,238.8 441.8,169.9 467.7,169.9 		"/>
		<path id="Combined-Shape_4_" class="st0" d="M404.3,50.7c5.5,0,10.5,1,15,3s8.5,4.5,11.5,8c3,3.5,5.5,7,7.5,11.5
			c1.5,4.5,2.5,9,2.5,14c0,7-1.5,13.5-5,19s-8.5,10-14.5,13l20,31.5h-26.5l-18.5-28h-11v27.5h-23V50.7H404.3L404.3,50.7z
			 M401.3,69.7h-16v34.5h16c2.5,0,4.5-0.5,6.5-1.5s3.5-2,5-4c1.5-1.5,2.5-3.5,3-5.5c1-2,1-4.5,1-6.5c0-2.5-0.5-4.5-1-6.5
			c-1-2-2-4-3-5.5c-1.5-1.5-3-3-5-4C405.8,70.2,403.8,69.7,401.3,69.7z"/>
		<polygon id="Path" class="st0" points="480.7,69.2 480.7,91.7 518.7,91.7 518.7,109.7 480.7,109.7 480.7,131.7 518.7,131.7
			518.7,150.1 457.7,150.1 457.7,50.7 518.7,50.7 518.7,69.2 		"/>
		<path id="Shape" class="st0" d="M624.1,138.1c0,0.5-0.5,0.5-1.5,1.5c-2,2-4.5,3.5-6.5,5c-8.5,5.5-18.5,9-29.5,9c-10,0-19-2.5-27-7
			c-2-1-3.5-2-5-3.5c-2.5-2-4.5-4-6.5-6c-4.5-5-8-10.5-10.5-16.5c-2.5-6.5-3.5-13-3.5-19.5s1-13.5,3.5-19.5s6-12,10.5-16.5
			c4.5-5,10-8.5,16.5-11.5s14-4.5,22-4.5s15.5,1.5,22,4.5s12,6.5,16.5,11.5s8,10.5,10.5,16.5s3.5,13,3.5,19.5c0,5-0.5,10-2,14.5
			s-3,9-5.5,13C629.6,131.7,627.1,135.1,624.1,138.1L624.1,138.1L624.1,138.1z M586.6,132.2c4.5,0,8.5-1,12-2.5s6.5-4,9-7
			s4.5-6.5,6-10c1.5-4,2-7.5,2-12s-0.5-8-2-12s-3-7-6-10s-5.5-5.5-9-7c-3.5-2-7.5-2.5-12-2.5s-8.5,1-12,2.5c-3.5,2-6.5,4-9,7
			s-4.5,6.5-6,10c-1.5,4-2,7.5-2,12s0.5,8,2,12s3,7,6,10c2.5,3,5.5,5.5,9,7S582.1,132.2,586.6,132.2z"/>
		<rect id="Rectangle_2_" x="583.6" y="132.2" class="st0" width="57" height="21"/>
		<path id="Path_1_" class="st0" d="M654.6,50.7h23v65.4c0,2.5,0.5,4.5,1,6.5c1,2,2,4,3,5.5c1.5,1.5,3,2.5,5,3.5s4,1.5,6.5,1.5
			s4.5-0.5,6.5-1.5s3.5-2,5-3.5s2.5-3.5,3-5.5c1-2,1-4,1-6.5V50.7h23v65.4c0,5-1,10-2.5,14.5c-2,4.5-4.5,8.5-7.5,11.5
			c-3.5,3.5-7.5,6-12,7.5c-5,2-10,3-16,3s-11.5-1-16-3s-9-4.5-12-7.5c-3.5-3.5-6-7-7.5-11.5c-2-4.5-2.5-9-2.5-14.5V50.7H654.6z"/>
		<polygon id="Path_2_" class="st0" points="774.5,69.2 774.5,91.7 812.4,91.7 812.4,109.7 774.5,109.7 774.5,131.7 812.4,131.7
			812.4,150.1 751.5,150.1 751.5,50.7 812.4,50.7 812.4,69.2 		"/>
		<path id="Path_3_" class="st0" d="M851.9,117.2c0,5.5,1.5,9.5,4.5,12.5s7,4.5,11.5,4.5c3.5,0,7-1,9.5-3s4-5,4-8.5c0-2-0.5-3.5-1-5
			c-1-1.5-2-2.5-3.5-3.5s-3-2-5-3s-4-1.5-6-2.5c-4.5-1.5-9-3.5-13-5s-7.5-4-10.5-6c-3-2.5-5.5-5.5-7-8.5c-2-3.5-2.5-7.5-2.5-12.5
			c0-4.5,1-8.5,3-12s4.5-6.5,7.5-9s7-4,11-5.5s8.5-2,13-2c6,0,11,1,15.5,2.5s8,4,11,7s5,6.5,6.5,10s2,8,2,12h-23c0-4.5-1-8-3-10.5
			s-5-4-9-4c-3.5,0-6,1-8.5,2.5s-3.5,4.5-3.5,7.5c0,3.5,1.5,6,4,8s6,3.5,10.5,5c4,1.5,8,3,12.5,4.5c4,1.5,8,3.5,11,6
			c3.5,2.5,6,5.5,8,9s3,7.5,3,12.5s-1,9.5-3,13.5s-4.5,7.5-7.5,10c-3.5,2.5-7,4.5-12,6c-4.5,1.5-9.5,2-15,2s-10.5-1-15-2.5
			s-8.5-4-12-7s-6-6.5-8-11s-3-9.5-3-15h23V117.2z"/>
		<polygon class="st0" points="936.8,70.7 914.3,70.7 914.3,50.7 982.3,50.7 982.3,70.7 959.8,70.7 959.8,150.1 936.8,150.1 		"/>
	</g>
	<path id="short_logo" class="st0" d="M221.3,90.1c1.6,7,3.1,11.8,5.9,19.1c-1.1,4.3-5.6,7.2-10.9,10.7c-9.3,6-18.7,12.7-28.4,17.1
		c-0.2,0.1-3-10.4-3.3-11.5L221.3,90.1z M208.7,51.9c0.5,2.8-0.3,7.2-1.3,9.6c-1.1,2.4-2.3,5.3-2.7,6.3c-0.4,0.9,4-0.7,7.1-6
		c2.3-3.8,2.5-8,1.9-10.4c0.3-0.1,2.1-0.3,2.4-0.4c0.5,3.1,0.6,7.8-0.4,11.2c-0.8,2.5-1.7,4.7-2.1,5.6c-0.3,0.7,3.4-0.1,6.2-5.3
		c1.7-3.1,2.3-7.8,0.8-14.4c0.2-0.3,1.4-1.5,1.6-1.8c0.6,1.6,1.2,2.7,1.3,4.4c0.3,3.7-0.1,7.2,0.4,8.7c0.3,1,4-3.8,3.4-10
		c-0.6-6.7-5.4-12.9-5.5-14.7c-0.1-2.6-3.2-5.1-8.7-4.9c-5.4,0.2-20.1,4.4-21.9,23.7C199.8,50.3,203.6,51.8,208.7,51.9L208.7,51.9z
		 M285.9,158.8c-5.8,11.1-11.9,22.9-13.3,25.9c-4.5,9.7-8.8,20.1-12.8,30.6c-22.5,58.7-75.3,125.2-138.7,98.4
		c-3.9-1.7-8-3.6-11.5-5.9c-20.8-13.4-51-49.4-60.7-81.8l-2.7-13.3c0,0,21-25,31.7-28.4c3.2-1,2.9,4.5,1.4,7.6l11.6,9.1
		c9.3,6.9,24.3,13.7,39.2,16.6c-0.1-0.1-12-7-12.2-7.2l-15.2-10.9c10.8-9.3,17.7-13.5,28.7-22.5c4.9,2.6,8.1,4.2,12.7,6.9
		c12.2,7.1,59.3,24.4,74.2,2.6c-15,13-43.5,3.1-61.4-5.8c-14.7-7.3-23.5-14.4-41.1-20.9c-4.5-1.7-6.1-2.3-11.3-6.2
		c-4.3-3.3-9-7-12.4-11.3c-1.3-1.9-2-3.7-2-5.4c0-1.4,0.3-2.7,0.9-3.9c0.7-1.3,1.6-2.5,2.8-3.5c2.8-2.5,6.2-3.9,8.8-4
		c3.9-0.1,10.2,3.9,14,6.1c7.9,4.7,16.8,9.3,26.7,11.6c11.5,2.7,30.4,5.1,41.7,5.9c6.2,0.4,16.3-1.1,18-2.5
		c-2.5,0.5-12.4-0.5-22.4-2.3c13.7-5.4,24.9-10.2,38.4-18.5c10-6.1,14.5-8.9,15.3-22.8c1.5-27.8,42.9-47,69-15.4
		c6.6,8,8,14,7.6,24.4C310.1,130.8,288.9,153.6,285.9,158.8L285.9,158.8z M243.2,99.6c5,0.7,10.1,0.9,15.1,0.6
		c5.2-0.3,7.2-2.9,7.5-5c0.2-2.7-1.4-5.3-4-6.2c-6.3-2.3-13,1.6-16.4,4.2c-0.5,0.3-1.2,0.5-1-0.3c1.9-4.2,5.5-7.4,9.9-8.9
		c11.2-5.5,33.4-0.4,41.8,9.5c3.3,3.2,5.1,7.7,5,12.2c0,0.3-0.2,0.4-0.5,0.4c-0.3-0.3-0.5-0.4-0.6-0.6c-1.9-3.8-6.1-10.1-12.8-10.8
		c-2.7-0.3-5.3,1.2-6.2,3.8c-0.7,2.1,0,5.2,4.5,7.7c4.3,2.4,8.9,4.4,13.7,6c0.2,0,0.3,0.3,0.5,0.3c-3.9,12.5-16.1,16.4-26.1,21.4
		c-10.5,5.2-9.8,4.1-17.4-4.4c-7.3-8.2-15.7-17.4-13.7-30.2C242.8,99.7,243,99.6,243.2,99.6z M262.8,103.1c0.9-1.9,3.1-3,5.1-2.3
		l7.6,2c2,0.6,3.4,2.4,3.3,4.6c-0.2,1.5-1.1,3.2-4.1,4.3l-5.5,1.7c-0.4,0.2-0.9,0.1-1.3-0.3l-3.9-4.2
		C262.2,106.4,262.1,104.5,262.8,103.1L262.8,103.1z M86.8,149.4L86.8,149.4c-0.6-0.7-1.2-1.4-1.7-2C57,169.6,31,192.2,0.8,227.7
		c-0.9,1-1.1,2.4-0.5,3.6c8.1,17.2,4.1,29.3,22.8,45.6c10.2-12.7,15.4-19.4,23.8-29.4c-4.6-10-9.5-24.7-10.7-34.6
		c-0.2-1.5,0.4-3,1.4-4c1.9-2.1,28.3-29.5,39.2-31.8c6.3-1.4,14.9,2.2,11,9.9l9.4,7.9c9.7-8.5,17.2-13.8,27.6-22.4l-16.2-6.9
		C102.3,163.3,90.7,153.7,86.8,149.4L86.8,149.4z M270.8,26.1c-7.9-17.5-13-10.9-19.2-24.9c-0.2-0.5-0.7-0.9-1.3-1s-1.1,0-1.5,0.4
		c-9.1,8.8-16,15.4-24.8,24.3c6.8,4.3,4.4,9.9,6.2,12.1c4.7,5.7,3.1,18.1-2.1,24.2l-2.3,1.9l-0.7,0.2c-0.9,4.8-12.4,12.2-16.6,8.1
		c-0.5,0.2-1,0.3-1.4,0.4c-10.8,2.4-6.8-7.2-5.1-10.6l0,0c3.3-7.7-7.7-3.2-10.6-2c-0.6,0.3-1.3,0.4-1.9,0.4
		c-3.7,3.7-5.6,6.1-9.3,9.7c-21.8,21-40.7,35.5-62.6,52.5c12.8,7.1,13.6,8.2,29.2,12.9c1.9,0.6,8.6,2.1,16.8,3.8
		C205,100.8,236.9,65,270.8,26.1L270.8,26.1z"/>
</g>
</svg>
