<?xml version="1.0" encoding="UTF-8"?>
<svg id="Layer_2" data-name="Layer 2" xmlns="http://www.w3.org/2000/svg" viewBox="0 0 1541.01 468.31">
  <defs>
    <style>
      .cls-1 {
        fill: #142900;
        stroke-width: 0px;
      }
    </style>
  </defs>
  <path class="cls-1" d="M711.88,200.46c-13.94-8.36-28.62-16.14-44.03-23.36-14.11-6.55-26.65-12.87-37.63-18.94-10.99-6.06-19.68-12.78-26.07-20.16-6.4-7.38-9.6-16.49-9.6-27.31,0-8.53,1.97-16.97,5.91-25.33,3.94-8.37,9.84-14.84,17.71-19.44,17.37-2.62,35.25-1.96,53.62,1.96,13.49,2.9,25.65,8.64,36.49,17.19l4.83,45.29h26.56c1.96-10.17,3.36-20.59,4.18-31.25.81-10.65,1.31-20.65,1.47-30.01.16-9.34-.08-16.63-.74-21.89-6.56-2.29-14.11-4.59-22.63-6.89-8.54-2.29-17.79-4.25-27.8-5.89-10-1.64-20.25-2.47-30.74-2.47-19.35,0-37.8,3.37-55.34,10.09-17.55,6.72-31.82,16.72-42.8,30.01-10.99,13.28-16.48,29.59-16.48,48.94,0,17.72,4.59,32.55,13.78,44.52,9.18,11.98,20.66,21.98,34.43,30.02,13.78,8.04,27.71,15.49,41.81,22.38,14.76,6.88,27.63,13.44,38.62,19.67,10.98,6.24,19.59,13.28,25.83,21.15,6.22,7.87,9.34,17.55,9.34,29.02,0,9.19-2.29,18.53-6.88,28.04-4.6,9.51-11.81,16.89-21.65,22.14-12.47,1.32-26.32.9-41.57-1.23-15.25-2.13-30.25-7.13-45.01-15-4.31-2.3-8.47-5-12.5-8l-6.68-59.41h-26.56c-1.65,9.85-2.95,20.17-3.93,31-.99,10.82-1.48,20.83-1.48,30.01s.16,16.57.49,22.14c7.54,7.55,17.38,13.85,29.52,18.93,12.13,5.09,24.92,8.85,38.37,11.32,13.44,2.46,25.41,3.68,35.91,3.68,19.02,0,36.72-3.68,53.13-11.06,16.39-7.38,29.76-18.12,40.09-32.23,10.33-14.09,15.49-31.14,15.49-51.15,0-18.7-4.43-34.03-13.28-46.01-8.85-11.97-20.25-22.14-34.19-30.5Z"/>
  <path class="cls-1" d="M998.92,131.35h-80.68l-.49,24.1,29.51,1.71c-2.78,12.54-5.89,25.66-9.34,39.37-5.91,23.44-12.39,46.65-19.44,69.6-7.06,22.96-14.01,43.78-20.9,62.48h-9.35l-8.36-56.58-37.67-112.22c1.65-.56,3.33-1.11,4.95-1.67,8.03-2.78,15.99-5.82,23.86-9.1l-2.95-17.7h-103.31l-.49,24.1,27.02,1.57,69.39,191.27c3.61,3.28,7.79,6.24,12.54,8.85,4.75,2.64,9.27,4.76,13.53,6.4-12.79,14.1-26.89,25.74-42.31,34.93-15.42,9.18-31.81,17.54-49.19,25.08l24.6,44.76c19.35-11.8,35.98-24.67,49.93-38.61,13.94-13.94,25.99-28.95,36.16-45.01,10.16-16.08,19.02-32.95,26.56-50.67,7.21-19.67,14.76-41.07,22.63-64.19,7.88-23.13,15.57-46.57,23.13-70.35,4.21-13.29,8.2-26.2,12-38.82,2.48-.83,4.99-1.66,7.43-2.5,8.03-2.78,15.99-5.82,23.86-9.1l-2.95-17.7h-19.68Z"/>
  <path class="cls-1" d="M1229.88,150.77c-9.68-10.98-21.15-18.93-34.44-23.86-13.28-4.91-28.12-5.57-44.52-1.96l-58.04,36.69V17.7l-19.19-17.7c-10.16.34-21.39,1.81-33.7,4.43-12.3,2.62-23.36,6.23-33.21,10.82l5.91,23.12,36.4-2.74v314.13c15.08,6.89,29.59,12.13,43.54,15.75,13.93,3.59,27.46,5.4,40.58,5.4,18.69,0,35.74-3.28,51.16-9.83,15.42-6.55,28.78-15.82,40.09-27.8,11.31-11.97,20.09-25.99,26.32-42.06,6.23-16.06,9.35-33.61,9.35-52.63,0-17.37-2.63-33.61-7.87-48.69-5.25-15.08-12.72-28.12-22.38-39.12ZM1203.07,299.84c-7.22,16.55-17.55,28.95-31,37.14-16.72,2.62-31.65,2.21-44.76-1.23-13.12-3.45-23.69-8.13-31.73-14.02-.94-.69-1.84-1.37-2.7-2.04v-131.74c7.92-5.14,15.87-9.94,23.86-14.29,12.62-6.89,24.84-10.34,36.65-10.34s22.71,4.02,31.73,12.06c9.01,8.04,16.06,18.53,21.15,31.48,5.09,12.96,7.62,26.81,7.62,41.57,0,17.7-3.61,34.84-10.82,51.41Z"/>
  <path class="cls-1" d="M1366.38,329.89v-189.19l-19.68-17.21c-10.17.32-21.4,1.81-33.7,4.42-12.3,2.64-23.36,6.24-33.21,10.83l5.91,23.12,36.89-2.78v172.64c-4.04,1.23-8.55,2.65-13.53,4.29-10.01,3.28-17.96,6.38-23.86,9.34l2.46,16.23h111.18l2.95-23.61c-5.58-2.62-12.88-4.68-21.89-6.15-4.57-.75-9.08-1.39-13.53-1.92Z"/>
  <path class="cls-1" d="M1326.05,67.15c7.54,5.74,14.42,9.92,20.66,12.55,5.58-3.94,11.23-9.51,16.97-16.72,5.73-7.21,9.75-14.1,12.05-20.66-3.61-4.92-8.94-10.42-15.99-16.48-7.06-6.07-14.02-10.42-20.91-13.04-5.25,3.28-10.66,8.44-16.23,15.49-5.58,7.06-10.17,14.34-13.78,21.89,3.94,5.58,9.67,11.23,17.22,16.97Z"/>
  <path class="cls-1" d="M1519.12,331.81c-4.57-.75-9.08-1.39-13.53-1.92V17.21l-19.67-17.21c-10.17.34-21.4,1.81-33.7,4.43-12.3,2.62-23.36,6.23-33.21,10.82l5.91,23.12,36.89-2.77v296.11c-4.04,1.23-8.55,2.65-13.53,4.29-10.01,3.28-17.96,6.38-23.86,9.34l2.46,16.23h111.18l2.95-23.61c-5.58-2.62-12.88-4.68-21.89-6.15Z"/>
  <path class="cls-1" d="M92.7,235.4l1.51-2.08c-7.85-1.65-14.25-6.68-17.93-14.15-4.56-9.2-3.49-19.57,2.81-27.71L201.79,31.93h-90.82L19.48,151.43C6.69,168.1,0,187.78,0,208.71c.1,26.84,22.39,48.65,49.62,48.65,17.05,0,33.06-8.17,43.08-21.96Z"/>
  <polygon class="cls-1" points="275.74 31.93 30.14 371.44 120.57 371.44 366.27 31.93 275.74 31.93"/>
  <path class="cls-1" d="M346.79,146.09h0c-17.1,0-33.15,8.21-43.16,22.08l-1.42,1.96c7.75,1.65,14.15,6.69,17.83,14.06,4.56,9.21,3.59,19.57-2.71,27.71l-122.8,159.53h90.82l91.49-119.4c12.79-16.77,19.58-36.44,19.58-57.38-.1-26.85-22.39-48.56-49.62-48.56Z"/>
</svg>