<svg width="24" height="24" viewBox="0 0 24 24" fill="none" xmlns="http://www.w3.org/2000/svg">
  <path d="M12 14.4999C13.3808 14.4999 14.5001 13.3806 14.5001 11.9999C14.5001 10.6192 13.3808 9.49994 12 9.49994C10.6193 9.49994 9.5 10.6192 9.5 11.9999C9.5 13.3806 10.6193 14.4999 12 14.4999Z" fill="white"/>
  <path d="M16.4466 5.3485C16.6965 5.5159 16.7179 5.86804 16.5051 6.08074L14.6782 7.90771C14.5131 8.07284 14.2569 8.09891 14.049 7.99245C13.4345 7.67761 12.738 7.49999 12.0001 7.49999C9.51477 7.49999 7.50004 9.5147 7.50004 12C7.50004 12.7379 7.67767 13.4344 7.99251 14.0489C8.09897 14.2567 8.0729 14.5129 7.90777 14.678L6.08077 16.505C5.86807 16.7177 5.51592 16.6963 5.34851 16.4464C4.49677 15.1748 4 13.6454 4 12C4 7.58171 7.58176 4 12.0001 4C13.6455 4 15.175 4.49676 16.4466 5.3485Z" fill="white" fill-opacity="0.4"/>
  <path d="M16.5052 17.9193C16.718 18.132 16.6966 18.4842 16.4467 18.6515C15.1751 19.5033 13.6457 20 12.0002 20C10.3547 20 8.82529 19.5033 7.55368 18.6515C7.30375 18.4842 7.2824 18.132 7.4951 17.9193L9.3221 16.0923C9.48722 15.9272 9.74338 15.9011 9.95122 16.0076C10.5658 16.3224 11.2622 16.5 12.0002 16.5C12.7381 16.5 13.4346 16.3224 14.0492 16.0076C14.257 15.9011 14.5132 15.9272 14.6783 16.0923L16.5052 17.9193Z" fill="white"/>
  </svg>
  