<svg width="24" height="24" viewBox="0 0 24 24" fill="none" xmlns="http://www.w3.org/2000/svg">
  <path d="M12 14.5C13.3807 14.5 14.5 13.3807 14.5 12C14.5 10.6193 13.3807 9.5 12 9.5C10.6193 9.5 9.5 10.6193 9.5 12C9.5 13.3807 10.6193 14.5 12 14.5Z" fill="#131316"/>
  <path d="M16.4465 5.3485C16.6964 5.5159 16.7178 5.86805 16.505 6.08075L14.6781 7.90773C14.5129 8.07285 14.2568 8.09892 14.0489 7.99246C13.4344 7.67762 12.7379 7.5 12 7.5C9.51471 7.5 7.5 9.51471 7.5 12C7.5 12.7379 7.67762 13.4344 7.99246 14.0489C8.09892 14.2568 8.07285 14.5129 7.90773 14.6781L6.08075 16.505C5.86805 16.7178 5.5159 16.6964 5.3485 16.4465C4.49676 15.1749 4 13.6454 4 12C4 7.58173 7.58173 4 12 4C13.6454 4 15.1749 4.49676 16.4465 5.3485Z" fill="#131316" fill-opacity="0.4"/>
  <path d="M16.5051 17.9192C16.7179 18.132 16.6965 18.4841 16.4466 18.6515C15.175 19.5032 13.6456 20 12.0001 20C10.3547 20 8.82528 19.5032 7.55368 18.6515C7.30375 18.4841 7.2824 18.132 7.4951 17.9192L9.32208 16.0923C9.4872 15.9271 9.74335 15.901 9.95119 16.0075C10.5657 16.3224 11.2622 16.5 12.0001 16.5C12.7381 16.5 13.4345 16.3224 14.0491 16.0075C14.2569 15.901 14.5131 15.9271 14.6782 16.0923L16.5051 17.9192Z" fill="#131316"/>
</svg>
