<svg width="24" height="24" viewBox="0 0 24 24" xmlns="http://www.w3.org/2000/svg">
<path d="M12 10C17.5225 10 22 7.7625 22 5C22 2.2375 17.5225 0 12 0C6.4775 0 2 2.2375 2 5C2 7.7625 6.4775 10 12 10Z" fill="currentColor"/>
<path opacity="0.5" d="M2 12V19.2C2 21.852 6.4775 24 12 24C17.5225 24 22 21.852 22 19.2V12C22 14.652 17.5225 16.8 12 16.8C6.4775 16.8 2 14.652 2 12Z" fill="currentColor"/>
<path opacity="0.7" d="M2 4V11.8C2 14.673 6.4775 17 12 17C17.5225 17 22 14.673 22 11.8V4C22 6.873 17.5225 9.2 12 9.2C6.4775 9.2 2 6.873 2 4Z" fill="currentColor"/>
</svg>
