<svg width="200" height="200" viewBox="0 0 200 200" fill="none" xmlns="http://www.w3.org/2000/svg">
<rect width="200" height="200" fill="#45275A"/>
<path d="M59.459 79.6475C59.459 102.781 78.1721 121.457 101.351 121.457C124.317 121.457 143.243 102.781 143.243 79.6475C143.243 56.7265 124.317 37.8379 101.351 37.8379C78.1721 37.8379 59.459 56.7265 59.459 79.6475ZM70.5167 142.256C72.2179 156.9 84.3389 170.27 101.351 170.27C118.15 170.27 130.696 156.9 132.398 142.256C134.737 121.033 115.386 128.036 101.351 128.036C87.316 128.036 68.1776 121.033 70.5167 142.256Z" fill="url(#paint0_linear_59_50)"/>
<defs>
<linearGradient id="paint0_linear_59_50" x1="164.295" y1="37.8379" x2="164.295" y2="170.27" gradientUnits="userSpaceOnUse">
<stop stop-color="#FFC800"/>
<stop offset="1" stop-color="#FF4800"/>
</linearGradient>
</defs>
</svg>
