<svg width="200" height="154" viewBox="0 0 200 154" fill="none" xmlns="http://www.w3.org/2000/svg">
<path d="M0 68.6C0 90.4 17.8499 108 39.9594 108C61.8661 108 79.9189 90.4 79.9189 68.6C79.9189 47 61.8661 29.2 39.9594 29.2C17.8499 29.2 0 47 0 68.6ZM171.197 14C171.197 6.6 177.485 0 185.396 0C193.306 0 200 6.6 200 14V94C200 101.4 193.306 108 185.396 108C177.485 108 171.197 101.4 171.197 94V14ZM10.5477 127.6C12.1704 141.4 23.7323 154 39.9594 154C55.9838 154 67.9513 141.4 69.574 127.6C71.8053 107.6 53.3469 114.2 39.9594 114.2C26.572 114.2 8.31643 107.6 10.5477 127.6ZM139.351 74.2C140.771 71 144.422 69 151.521 69C162.677 68.8 167.14 61.6 161.258 50.2C157.201 42.4 150.913 36.4 142.394 32.6C122.312 23.8 98.5801 32.8 89.6552 52.6C80.7302 72.2 89.6552 95.6 109.939 104.6C118.458 108.2 126.978 108.8 135.7 106.6C148.276 103.2 150.913 95 143.408 86.8C138.742 81.4 137.728 77.6 139.351 74.2Z" fill="url(#paint0_linear_59_46)"/>
<defs>
<linearGradient id="paint0_linear_59_46" x1="250.254" y1="0" x2="250.254" y2="154" gradientUnits="userSpaceOnUse">
<stop stop-color="#FFC800"/>
<stop offset="1" stop-color="#FF4800"/>
</linearGradient>
</defs>
</svg>
