<svg width="241" height="240" viewBox="0 0 241 240" fill="none" xmlns="http://www.w3.org/2000/svg">
<path d="M220.035 83.61C215.365 55.67 190.875 35 190.875 35V65.78L176.335 69.53L167.225 58.56L162.415 68.02C152.495 65.32 138.835 63.58 120.045 63.58C101.255 63.58 87.5949 65.33 77.6749 68.02L72.8649 58.56L63.7549 69.53L49.2149 65.78V35C49.2149 35 24.7249 55.67 20.0549 83.61L52.1949 94.73C53.2449 114.16 61.9849 166.61 64.4849 171.37C67.1449 176.44 81.2649 190.93 92.3149 196.5C92.3149 196.5 96.3149 192.27 98.7549 188.54C101.855 192.19 117.865 204.99 120.055 204.99C122.245 204.99 138.255 192.2 141.355 188.54C143.795 192.27 147.795 196.5 147.795 196.5C158.845 190.93 172.965 176.44 175.625 171.37C178.125 166.61 186.865 114.16 187.915 94.73L220.055 83.61H220.035ZM173.845 128.35L152.095 130.29L154.005 156.96C154.005 156.96 140.775 167.91 120.045 167.91C99.3149 167.91 86.0849 156.96 86.0849 156.96L87.9949 130.29L66.2449 128.35L62.5249 98.31L98.5749 110.79L95.7749 148.18C102.475 149.88 109.525 151.57 120.055 151.57C130.585 151.57 137.625 149.88 144.325 148.18L141.525 110.79L177.575 98.31L173.855 128.35H173.845Z" fill="#4FF8D2"/>
</svg>
