<svg width="24" height="24" viewBox="0 0 24 24" fill="none" xmlns="http://www.w3.org/2000/svg">
  <defs>
    <linearGradient id="paint0_linear_239_32" x1="4.98208" y1="10.6522" x2="15.4394" y2="22.5812"
      gradientUnits="userSpaceOnUse">
      <stop stop-color="#FFC164" />
      <stop offset="0.5052" stop-color="#D8D3FF" />
      <stop offset="1" stop-color="#64E3FF" />
    </linearGradient>
    <linearGradient id="paint1_linear_239_32" x1="8.55074" y1="1.52296" x2="19.0036" y2="13.4513"
      gradientUnits="userSpaceOnUse">
      <stop stop-color="#FFC164" />
      <stop offset="0.5052" stop-color="#D8D3FF" />
      <stop offset="1" stop-color="#64E3FF" />
    </linearGradient>
  </defs>
  <path
    d="M17.0291 16.218C15.36 16.0219 13.7723 15.3882 12.4269 14.3811C11.0814 13.3741 10.026 12.0294 9.36736 10.4832C9.23148 10.1553 9.02458 9.86167 8.76155 9.62337C8.49853 9.38508 8.18593 9.20808 7.84627 9.10513C7.5066 9.00219 7.14834 8.97585 6.79728 9.02803C6.44621 9.0802 6.11109 9.20959 5.81605 9.40686C5.52101 9.60414 5.27339 9.86439 5.09103 10.1689C4.90867 10.4734 4.79612 10.8145 4.76147 11.1677C4.72682 11.521 4.77094 11.8775 4.89065 12.2116C5.01036 12.5457 5.20268 12.8491 5.45376 13.1C5.95736 13.6047 6.24017 14.2886 6.24017 15.0016C6.24017 15.7146 5.95736 16.3985 5.45376 16.9033C5.11789 17.2389 4.88911 17.6667 4.79637 18.1324C4.70362 18.5981 4.75108 19.0809 4.93273 19.5196C5.11439 19.9584 5.42208 20.3334 5.81689 20.5972C6.2117 20.8611 6.6759 21.0019 7.15076 21.0019C7.62562 21.0019 8.08981 20.8611 8.48462 20.5972C8.87943 20.3334 9.18712 19.9584 9.36878 19.5196C9.55044 19.0809 9.59789 18.5981 9.50515 18.1324C9.4124 17.6667 9.18362 17.2389 8.84775 16.9033C8.4815 16.5367 8.22893 16.0722 8.12042 15.5656C8.01191 15.0589 8.05208 14.5317 8.2361 14.0474C9.632 14.422 10.9243 15.1095 12.0151 16.0577C13.1059 17.0059 13.9666 18.1899 14.5319 19.5201C14.6937 19.9106 14.9557 20.2515 15.2916 20.5083C15.6274 20.765 16.025 20.9285 16.4443 20.9822C16.8636 21.0359 17.2897 20.9779 17.6793 20.8141C18.069 20.6503 18.4085 20.3865 18.6635 20.0493C18.9185 19.7121 19.0799 19.3136 19.1314 18.8941C19.1829 18.4745 19.1227 18.0488 18.9568 17.6599C18.7909 17.2711 18.5253 16.933 18.1868 16.6798C17.8483 16.4266 17.4489 16.2673 17.0291 16.218Z"
    fill="url(#paint0_linear_239_32)" />
  <path
    d="M18.4455 7.09863C18.7814 6.76295 19.0101 6.3352 19.1029 5.86949C19.1956 5.40377 19.1482 4.92101 18.9665 4.48227C18.7849 4.04353 18.4772 3.66852 18.0824 3.40468C17.6875 3.14083 17.2233 3 16.7485 3C16.2736 3 15.8094 3.14083 15.4146 3.40468C15.0198 3.66852 14.7121 4.04353 14.5305 4.48227C14.3488 4.92101 14.3014 5.40377 14.3941 5.86949C14.4868 6.3352 14.7156 6.76295 15.0515 7.09863C15.4177 7.46514 15.6703 7.92966 15.7788 8.43631C15.8873 8.94296 15.8472 9.47017 15.6631 9.95454C14.2672 9.57986 12.9749 8.89238 11.8841 7.94418C10.7933 6.99598 9.93265 5.81195 9.36731 4.48179C9.20555 4.09125 8.94351 3.75036 8.6077 3.49362C8.27189 3.23687 7.87423 3.07337 7.45494 3.01965C7.03566 2.96594 6.60962 3.02393 6.21994 3.18774C5.83026 3.35155 5.49075 3.61538 5.23577 3.95253C4.98079 4.28969 4.81939 4.6882 4.76788 5.10777C4.71638 5.52733 4.7766 5.95306 4.94246 6.34187C5.10832 6.73069 5.37393 7.0688 5.71242 7.322C6.05091 7.5752 6.45027 7.73451 6.8701 7.78381C8.53859 7.97823 10.1259 8.6108 11.4708 9.61725C12.8157 10.6237 13.8702 11.9682 14.5273 13.5141C14.6632 13.842 14.8701 14.1356 15.1331 14.3738C15.3961 14.6121 15.7087 14.7891 16.0484 14.892C16.388 14.9949 16.7463 15.0212 17.0973 14.969C17.4483 14.9168 17.7834 14.7875 18.0784 14.5902C18.3735 14.3929 18.6211 14.1327 18.8034 13.8282C18.9858 13.5238 19.0983 13.1827 19.133 12.8295C19.1677 12.4763 19.1236 12.1198 19.0039 11.7857C18.8842 11.4516 18.692 11.1482 18.4409 10.8973C17.939 10.3923 17.6577 9.70902 17.6585 8.99703C17.6594 8.28504 17.9423 7.6024 18.4455 7.09863Z"
    fill="url(#paint1_linear_239_32)" />
</svg>