<svg width="32" height="32" viewBox="0 0 32 32" fill="currentColor" xmlns="http://www.w3.org/2000/svg"><path d="M5.505 8.00445C5.61017 7.94365 5.73744 7.94357 5.83981 8.00445L17.3679 14.6626C17.4896 14.7346 17.5669 14.8648 17.5669 15.0087V18.5964C17.5669 18.7515 17.3978 18.8487 17.2649 18.7712L7.68604 13.2394C7.57535 13.1761 7.43687 13.2567 7.43687 13.3839V20.7368C7.43692 20.8558 7.50064 20.964 7.60298 21.0249L15.853 25.7867L15.8504 25.7806C15.9556 25.8415 16.0828 25.8414 16.1852 25.7806L22.6029 22.0769C22.7275 22.0049 22.8797 22.0049 23.0043 22.0769L26.105 23.8678C26.2379 23.9453 26.2378 24.1363 26.105 24.2138L16.1662 29.9532C16.0611 30.014 15.9337 30.0139 15.8314 29.9532L3.99619 23.1203C3.89375 23.0621 3.83008 22.9512 3.83008 22.8322V9.16461C3.83008 9.04556 3.89375 8.93742 3.99619 8.87651L5.505 8.00445Z" fill="currentColor"/><path d="M15.8314 2.04445C15.9366 1.98356 16.0638 1.98355 16.1662 2.04445L28.004 8.87651V8.87911C28.1064 8.93722 28.1701 9.04821 28.1701 9.1672V20.5456C28.1701 20.7006 28.0011 20.7979 27.8682 20.7204L24.8012 18.9486C24.6795 18.8766 24.6015 18.7464 24.6014 18.6025V11.2107C24.6014 11.0916 24.5377 10.9835 24.4353 10.9226L16.1852 6.16082C16.0801 6.10002 15.9528 6.09995 15.8504 6.16082L13.0491 7.77778C12.9246 7.8497 12.7722 7.84959 12.6477 7.77778L9.57465 6.00336C9.44176 5.92584 9.44176 5.73482 9.57465 5.6573L15.8314 2.04445Z" fill="currentColor"/></svg>