<svg width="252" height="252" viewBox="0 0 252 252" fill="#ffffff" xmlns="http://www.w3.org/2000/svg"><path fill-rule="evenodd" clip-rule="evenodd" d="M62.18 147.393C60.584 149.985 60.6087 153.256 62.2437 155.823L91.8367 202.298C93.7573 205.314 97.4593 206.69 100.895 205.663L186.294 180.158C190.954 178.766 193.298 173.59 191.261 169.191L136.363 50.6321C133.687 44.8503 125.615 44.3757 122.273 49.8035L62.18 147.393ZM134.905 77.7358C133.738 75.0479 129.787 75.4619 129.208 78.3328L108.072 183.103C107.626 185.313 109.704 187.199 111.873 186.555L170.877 169.019C172.599 168.508 173.486 166.614 172.772 164.972L134.905 77.7358Z"></path></svg>