<svg width="17" height="14" viewBox="0 0 17 14" fill="none" xmlns="http://www.w3.org/2000/svg">
<path d="M0.222168 11.1906C0.222168 12.453 1.24552 13.4764 2.50788 13.4764H4.7936C6.05596 13.4764 7.07931 12.453 7.07931 11.1906V8.90492C7.07931 7.64256 6.05596 6.61921 4.7936 6.61921H3.65074V4.3335C3.65074 4.0179 3.90658 3.76207 4.22217 3.76207C5.16894 3.76207 5.93645 2.99456 5.93645 2.04778C5.93645 1.10101 5.16894 0.333496 4.22217 0.333496C2.01303 0.333496 0.222168 2.12436 0.222168 4.3335V11.1906Z" fill="#334155"/>
<path d="M12.7936 6.61921V4.3335C12.7936 4.0179 13.0494 3.76207 13.365 3.76207C14.3118 3.76207 15.0793 2.99456 15.0793 2.04778C15.0793 1.10101 14.3118 0.333496 13.365 0.333496C11.1559 0.333496 9.36503 2.12436 9.36503 4.3335V11.1906C9.36503 12.453 10.3884 13.4764 11.6507 13.4764H13.9365C15.1988 13.4764 16.2222 12.453 16.2222 11.1906V8.90492C16.2222 7.64256 15.1988 6.61921 13.9365 6.61921H12.7936Z" fill="#334155"/>
</svg>
