<svg xmlns="http://www.w3.org/2000/svg" width="3733" height="1024" viewBox="0 0 3733 1024" fill="none"><path d="M323.27 461.245a357.915 357.915 0 0 0-3.27 35.448h534.737c-1.868-3.648-4.376-6.937-6.906-10.156-91.417-118.106-140.593-107.866-210.938-110.866-23.453-.965-39.359-1.352-132.713-1.352-49.965 0-104.286.127-157.182.267-6.847 18.483-13.451 36.399-16.667 50.972h274.018v35.687H323.27Zm535.681 71.171H320.275c.564 9.522 1.452 18.918 2.734 28.187h497.33c22.171 0 34.581-12.579 38.612-28.187ZM350.949 657.96S433.397 860.402 671.629 864c142.389 0 264.736-84.567 320.31-206.04h-640.99Z" fill="#100F13"/><path d="M671.624 160c-131.656 0-246.223 72.298-306.723 179.17 47.279-.098 139.359-.155 139.359-.155h.021v-.035c108.837 0 112.882.486 134.144 1.374l13.164.486c45.857 1.528 102.22 6.451 146.568 40.005 24.074 18.199 58.831 58.366 79.55 86.982 19.154 26.469 24.665 56.895 11.642 86.047-11.988 26.792-37.78 42.773-69.014 42.773H331.474s2.91 12.336 7.274 25.953h667.312A351.08 351.08 0 0 0 1024 512.15C1024.01 317.682 866.241 160 671.624 160Zm706.506 499h83.04V519.781h60.59L1596.17 659h91.66l-83.42-152.642c44.68-19.176 69.42-58.104 69.42-111.797 0-78.047-51.58-128.288-140.75-128.288h-154.95V659Zm83.04-205.952V334.156h55.99c47.94 0 71.14 21.286 71.14 60.405 0 38.928-23.2 58.487-70.76 58.487h-56.37Zm353.8 211.513c43.53 0 71.71-18.984 86.1-46.406h2.3V659h77.47V460.335c0-70.184-59.45-99.716-125.03-99.716-70.57 0-116.97 33.75-128.29 87.443l75.56 6.137c5.56-19.56 23.01-33.942 52.35-33.942 27.8 0 43.72 13.999 43.72 38.161v1.15c0 18.985-20.14 21.477-71.34 26.463-58.29 5.37-110.64 24.929-110.64 90.703 0 58.296 41.61 87.827 97.8 87.827Zm23.39-56.378c-25.12 0-43.15-11.697-43.15-34.133 0-23.012 18.99-34.326 47.75-38.353 17.84-2.492 46.98-6.711 56.76-13.231v31.257c0 30.874-25.5 54.46-61.36 54.46ZM2044.22 659h81.69V364.455h-81.69V659Zm41.03-332.514c24.36 0 44.3-18.601 44.3-41.421 0-22.627-19.94-41.228-44.3-41.228-24.16 0-44.1 18.601-44.1 41.228 0 22.82 19.94 41.421 44.1 41.421Zm187.79-60.213h-81.69V659h81.69V266.273ZM2396.58 659h86.29l50.63-185.241h3.64L2587.76 659h86.49l79.96-294.545h-82.45l-44.88 196.747h-2.49l-48.32-196.747h-81.12l-47.56 197.897h-2.68l-45.64-197.897h-82.65L2396.58 659Zm485.2 5.561c43.53 0 71.72-18.984 86.1-46.406h2.3V659h77.48V460.335c0-70.184-59.45-99.716-125.03-99.716-70.57 0-116.98 33.75-128.29 87.443l75.55 6.137c5.56-19.56 23.01-33.942 52.35-33.942 27.81 0 43.73 13.999 43.73 38.161v1.15c0 18.985-20.14 21.477-71.34 26.463-58.3 5.37-110.65 24.929-110.65 90.703 0 58.296 41.62 87.827 97.8 87.827Zm23.4-56.378c-25.12 0-43.15-11.697-43.15-34.133 0-23.012 18.99-34.326 47.75-38.353 17.83-2.492 46.98-6.711 56.76-13.231v31.257c0 30.874-25.5 54.46-61.36 54.46Zm245.74 161.272c60.79 0 93-31.066 109.69-78.623l114.48-325.994-86.49-.383-61.55 216.306h-3.07L3163 364.455h-85.91l105.66 302.983-4.79 12.464c-10.74 27.614-31.26 28.956-60.02 20.135l-18.41 60.98c11.69 4.986 30.68 8.438 51.39 8.438Z" fill="#100F13"/></svg>