<svg width="24" height="24" viewBox="0 0 24 24" xmlns="http://www.w3.org/2000/svg">
<path opacity="0.5" d="M4.8 13.2222H19.2C21.4632 13.2222 22.5936 13.2222 23.2968 13.9384C24 14.6547 24 15.806 24 18.1111C24 20.4162 24 21.5676 23.2968 22.2838C22.5936 23 21.4632 23 19.2 23H4.8C2.5368 23 1.4064 23 0.7032 22.2838C-7.15256e-08 21.5676 0 20.4162 0 18.1111C0 15.806 -7.15256e-08 14.6547 0.7032 13.9384C1.4064 13.2222 2.5368 13.2222 4.8 13.2222ZM4.8 1H19.2C21.4632 1 22.5936 1 23.2968 1.71622C24 2.43244 24 3.58378 24 5.88889C24 8.194 24 9.34533 23.2968 10.0616C22.5936 10.7778 21.4632 10.7778 19.2 10.7778H4.8C2.5368 10.7778 1.4064 10.7778 0.7032 10.0616C-7.15256e-08 9.34533 0 8.194 0 5.88889C0 3.58378 -7.15256e-08 2.43244 0.7032 1.71622C1.4064 1 2.5368 1 4.8 1Z" fill="currentColor"/>
<path d="M10.2963 5.91304C10.2963 5.67089 10.3958 5.43865 10.5729 5.26742C10.75 5.0962 10.9903 5 11.2407 5H20.0556C20.306 5 20.5463 5.0962 20.7234 5.26742C20.9005 5.43865 21 5.67089 21 5.91304C21 6.1552 20.9005 6.38743 20.7234 6.55866C20.5463 6.72989 20.306 6.82609 20.0556 6.82609H11.2407C10.9903 6.82609 10.75 6.72989 10.5729 6.55866C10.3958 6.38743 10.2963 6.1552 10.2963 5.91304ZM4 5.91304C4 5.67089 4.0995 5.43865 4.27662 5.26742C4.45374 5.0962 4.69396 5 4.94444 5H7.46296C7.71345 5 7.95367 5.0962 8.13079 5.26742C8.3079 5.43865 8.40741 5.67089 8.40741 5.91304C8.40741 6.1552 8.3079 6.38743 8.13079 6.55866C7.95367 6.72989 7.71345 6.82609 7.46296 6.82609H4.94444C4.69396 6.82609 4.45374 6.72989 4.27662 6.55866C4.0995 6.38743 4 6.1552 4 5.91304ZM10.2963 18.087C10.2963 17.8448 10.3958 17.6126 10.5729 17.4413C10.75 17.2701 10.9903 17.1739 11.2407 17.1739H20.0556C20.306 17.1739 20.5463 17.2701 20.7234 17.4413C20.9005 17.6126 21 17.8448 21 18.087C21 18.3291 20.9005 18.5613 20.7234 18.7326C20.5463 18.9038 20.306 19 20.0556 19H11.2407C10.9903 19 10.75 18.9038 10.5729 18.7326C10.3958 18.5613 10.2963 18.3291 10.2963 18.087ZM4 18.087C4 17.8448 4.0995 17.6126 4.27662 17.4413C4.45374 17.2701 4.69396 17.1739 4.94444 17.1739H7.46296C7.71345 17.1739 7.95367 17.2701 8.13079 17.4413C8.3079 17.6126 8.40741 17.8448 8.40741 18.087C8.40741 18.3291 8.3079 18.5613 8.13079 18.7326C7.95367 18.9038 7.71345 19 7.46296 19H4.94444C4.69396 19 4.45374 18.9038 4.27662 18.7326C4.0995 18.5613 4 18.3291 4 18.087Z" fill="currentColor"/>
</svg>
