<svg width="101" height="101" viewBox="0 0 101 101" fill="none" xmlns="http://www.w3.org/2000/svg">
<g clip-path="url(#clip0_194_83)">
<path d="M85.1941 45.9851C84.9875 46.7051 84.7575 47.4184 84.5075 48.1184C84.2441 48.8551 83.9608 49.5784 83.6508 50.2918L73.2808 50.0751C73.2808 50.2851 73.2808 50.4918 73.2741 50.7018L101.461 51.2918C101.497 49.6284 101.454 47.9684 101.324 46.3218L85.1908 45.9851H85.1941Z" fill="white"/>
<path d="M63.4342 1.4151L63.1508 2.11843C64.7142 2.7051 66.2275 3.40177 67.6841 4.19177L57.6542 29.0551C58.2642 29.2418 58.8742 29.4584 59.4775 29.7018C59.5075 29.7151 59.5375 29.7251 59.5642 29.7384L70.1075 3.59843C70.0775 3.5851 70.0475 3.5751 70.0208 3.56177C67.8475 2.6851 65.6475 1.97177 63.4342 1.4151Z" fill="white"/>
<path d="M73.5174 8.1451C74.7741 9.18843 75.9608 10.3151 77.0674 11.5184L62.7574 31.3518C63.2574 31.6584 63.7441 31.9817 64.2108 32.3217L80.7074 9.46176C78.9374 8.18176 77.0674 7.0051 75.1041 5.94843L73.5174 8.14843V8.1451Z" fill="white"/>
<path d="M81.0907 16.7918C81.9441 18.1518 82.7074 19.5718 83.3774 21.0451L67.1174 34.8551C67.4574 35.2084 67.7841 35.5718 68.1007 35.9484L89.5874 17.6984C88.2574 16.1251 86.8274 14.6284 85.3007 13.2184L81.0941 16.7918H81.0907Z" fill="white"/>
<path d="M93.3641 22.7917L85.4074 26.7584C85.8074 28.2817 86.1108 29.8451 86.3108 31.4417L70.4508 39.3484C70.6441 39.6951 70.8308 40.0451 71.0041 40.3984L96.2274 27.8251C95.3708 26.0951 94.4141 24.4151 93.3608 22.7917H93.3641Z" fill="white"/>
<path d="M86.5874 36.8018C86.5541 38.3818 86.4174 39.9418 86.1841 41.4684L72.5508 44.5284C72.6274 44.8218 72.7008 45.1151 72.7641 45.4118L100.267 39.2384C99.8741 37.4851 99.3907 35.7551 98.8141 34.0551L86.5874 36.7984V36.8018Z" fill="white"/>
<path d="M100.717 58.8251L81.9207 53.7718C81.2141 55.0151 80.4374 56.2184 79.5941 57.3651L72.6207 55.4918C72.5807 55.6484 72.5407 55.8018 72.4974 55.9584L99.7174 63.2751C100.121 61.7951 100.451 60.3118 100.714 58.8218L100.717 58.8251Z" fill="white"/>
<path d="M77.4707 59.9951C76.6107 60.9651 75.6974 61.8884 74.7374 62.7584L70.6841 60.5218C70.6207 60.6418 70.5541 60.7618 70.4874 60.8818L95.1674 74.4984C95.8307 73.2951 96.4507 72.0584 97.024 70.7851L77.4674 59.9951H77.4707Z" fill="white"/>
<path d="M72.3841 64.7251C71.4574 65.4351 70.4941 66.0984 69.5007 66.7184L67.5841 64.9484C67.5141 65.0284 67.4407 65.1051 67.3674 65.1851L88.0741 84.3151C88.9207 83.4051 89.7341 82.4584 90.5141 81.4784L72.3841 64.7284V64.7251Z" fill="white"/>
<path d="M81.5474 90.2117L66.9874 68.1451C66.4108 68.4417 65.8274 68.7217 65.2341 68.9884C65.2341 68.9884 64.1641 69.4484 63.9208 69.5484L78.8241 92.1317C79.7541 91.5217 80.6607 90.8817 81.5507 90.2117H81.5474Z" fill="white"/>
<path d="M61.4474 70.4351C61.2007 70.5117 59.6374 70.9651 59.1741 71.0784C59.1741 71.0784 58.7374 71.1851 58.6174 71.2118L67.9674 97.5084C68.8874 97.1817 69.7974 96.8317 70.6974 96.4517L61.4474 70.4318V70.4351Z" fill="white"/>
<path d="M55.8275 71.7118C55.0075 71.8885 54.1775 72.0151 53.3375 72.0984L56.1508 100.148C56.9875 100.065 57.8208 99.9618 58.6475 99.8384L55.8275 71.7151V71.7118Z" fill="white"/>
<path d="M50.1241 72.1717C49.4241 72.1351 48.7241 72.0684 48.0241 71.9651L44.0408 99.8751C44.7374 99.9751 45.4374 100.062 46.1341 100.135L50.1241 72.1751V72.1717Z" fill="white"/>
<path d="M17.2675 54.3118C17.4741 53.5918 17.7041 52.8784 17.9541 52.1784C18.2175 51.4418 18.5008 50.7185 18.8108 50.0051L29.1808 50.2218C29.1808 50.0118 29.1808 49.8051 29.1875 49.5951L1.00081 49.0051C0.964139 50.6685 1.00747 52.3285 1.13747 53.9751L17.2708 54.3118H17.2675Z" fill="white"/>
<path d="M39.0307 98.8817L39.3141 98.1784C37.7507 97.5917 36.2374 96.8951 34.7807 96.1051L44.8107 71.2417C44.2007 71.0551 43.5907 70.8384 42.9874 70.5951C42.9574 70.5817 42.9274 70.5717 42.9007 70.5584L32.3574 96.6984C32.3874 96.7117 32.4174 96.7217 32.4441 96.7351C34.6174 97.6117 36.8174 98.3251 39.0307 98.8817Z" fill="white"/>
<path d="M28.9441 92.1518C27.6875 91.1084 26.5008 89.9818 25.3941 88.7784L39.7041 68.9451C39.2041 68.6384 38.7175 68.3151 38.2508 67.9751L21.7541 90.8351C23.5241 92.1151 25.3941 93.2918 27.3575 94.3484L28.9441 92.1484V92.1518Z" fill="white"/>
<path d="M21.3708 83.5051C20.5175 82.1451 19.7541 80.7251 19.0841 79.2518L35.3441 65.4418C35.0041 65.0884 34.6775 64.7251 34.3608 64.3484L12.8741 82.5984C14.2041 84.1718 15.6341 85.6684 17.1608 87.0784L21.3675 83.5051H21.3708Z" fill="white"/>
<path d="M9.10079 77.5051L17.0575 73.5384C16.6575 72.0151 16.3541 70.4518 16.1541 68.8551L32.0141 60.9484C31.8208 60.6018 31.6341 60.2518 31.4608 59.8984L6.23413 72.4718C7.0908 74.2018 8.04746 75.8818 9.10079 77.5051Z" fill="white"/>
<path d="M15.8741 63.4951C15.9074 61.9151 16.0441 60.3551 16.2774 58.8284L29.9107 55.7685C29.8341 55.4751 29.7607 55.1818 29.6974 54.8851L2.19409 61.0551C2.58742 62.8084 3.07076 64.5385 3.64742 66.2385L15.8774 63.4951H15.8741Z" fill="white"/>
<path d="M1.74414 41.4718L20.5408 46.5251C21.2475 45.2818 22.0241 44.0784 22.8675 42.9318L29.8408 44.8051C29.8808 44.6484 29.9208 44.4951 29.9641 44.3384L2.74081 37.0184C2.33747 38.4984 2.00747 39.9818 1.74414 41.4718Z" fill="white"/>
<path d="M24.9908 40.3018C25.8508 39.3318 26.7642 38.4084 27.7242 37.5384L31.7775 39.7751C31.8408 39.6551 31.9075 39.5351 31.9742 39.4151L7.29416 25.7951C6.63083 26.9984 6.01083 28.2351 5.4375 29.5084L24.9942 40.2984L24.9908 40.3018Z" fill="white"/>
<path d="M30.0808 35.5717C31.0075 34.8617 31.9708 34.1984 32.9641 33.5784L34.8808 35.3484C34.9508 35.2684 35.0241 35.1917 35.0975 35.1117L14.3908 15.9817C13.5441 16.8917 12.7308 17.8384 11.9508 18.8184L30.0808 35.5684V35.5717Z" fill="white"/>
<path d="M20.9175 10.0851L35.4775 32.1518C36.0541 31.8551 36.6375 31.5751 37.2308 31.3084C37.2308 31.3084 38.3008 30.8484 38.5441 30.7484L23.6441 8.1651C22.7141 8.7751 21.8075 9.4151 20.9175 10.0851Z" fill="white"/>
<path d="M41.0141 29.8618C41.2608 29.7851 42.8241 29.3318 43.2875 29.2184C43.2875 29.2184 43.7241 29.1118 43.8441 29.0851L34.4941 2.78845C33.5741 3.11512 32.6642 3.46512 31.7642 3.84512L41.0141 29.8651V29.8618Z" fill="white"/>
<path d="M46.6342 28.5851C47.4542 28.4084 48.2842 28.2818 49.1242 28.1984L46.3142 0.148438C45.4775 0.231771 44.6442 0.335103 43.8175 0.458436L46.6375 28.5818L46.6342 28.5851Z" fill="white"/>
<path d="M52.3408 28.1251C53.0408 28.1617 53.7408 28.2284 54.4408 28.3317L58.4208 0.421743C57.7242 0.321743 57.0242 0.235076 56.3275 0.161743L52.3375 28.1217L52.3408 28.1251Z" fill="white"/>
</g>
<defs>
<clipPath id="clip0_194_83">
<rect width="101" height="101" fill="white"/>
</clipPath>
</defs>
</svg>
