<svg viewBox="0 -5 99 113" fill="none" xmlns="http://www.w3.org/2000/svg">
<path d="M123.495 60.4547V60.108H130.528V60.4547C130.528 65.818 133.591 69.9247 142.925 69.9247H143.621C150.795 69.9247 154.695 66.8613 154.695 62.2647V61.918C154.695 57.6014 152.188 55.7214 147.801 54.6747L136.658 51.958C129.901 50.288 125.308 46.5947 125.308 39.2847V38.588C125.308 30.5114 131.715 25.148 142.718 25.148H143.415C154.208 25.148 160.408 30.998 160.408 39.0047V39.3514H153.515V39.0047C153.515 34.8947 150.241 30.928 143.418 30.928H142.721C135.758 30.928 132.068 34.1314 132.068 38.658V39.0047C132.068 42.6947 134.228 44.8547 139.031 46.038L150.245 48.7547C157.068 50.4247 161.458 53.908 161.458 61.358V62.0547C161.458 70.4113 154.981 75.7047 143.561 75.7047H142.865C128.728 75.7047 123.505 69.438 123.505 60.4547H123.495Z" fill="white"/>
<path d="M166.875 25.7047H173.421V32.948H166.875V25.7047ZM166.875 39.6313H173.421V75.148H166.875V39.6313Z" fill="white"/>
<path d="M179.681 39.6347H185.948V45.3447C189.081 40.678 191.798 39.218 196.811 39.218H197.508C204.821 39.218 208.998 43.048 208.998 52.0314V75.1513H202.451V52.9347C202.451 46.808 200.155 44.368 195.695 44.368H194.998C189.428 44.368 186.225 48.6147 186.225 54.7447V75.148H179.678V39.6314L179.681 39.6347Z" fill="white"/>
<path d="M214.285 77.798H220.831V78.1447C220.831 81.418 223.895 82.8814 229.675 82.8814H229.955C235.248 82.8814 238.591 81.278 238.591 76.4747V68.398C235.875 72.508 233.368 74.038 228.355 74.038H227.658C218.885 74.038 213.591 67.2814 213.591 56.9781V56.2814C213.591 45.9747 218.885 39.2214 227.588 39.2214H228.285C233.508 39.2214 236.085 40.6847 238.801 45.2814V39.6414H245.068V76.4814C245.068 84.558 239.288 87.7614 229.678 87.7614H229.398C217.838 87.7614 214.285 83.4447 214.285 78.1514V77.798ZM229.398 68.9514H230.095C236.015 68.9514 239.008 65.0514 239.008 56.9747V56.2781C239.008 48.2014 236.015 44.3014 230.095 44.3014H229.398C223.688 44.3014 220.485 48.2714 220.485 56.2781V56.9747C220.485 64.9814 223.688 68.9514 229.398 68.9514Z" fill="white"/>
<path d="M251.328 25.7047H257.875V75.148H251.328V25.7047Z" fill="white"/>
<path d="M263.298 57.738V57.0413C263.298 45.6213 268.938 39.2147 279.105 39.2147H279.801C289.411 39.2147 294.635 44.7847 294.635 56.4147C294.635 57.528 294.565 58.3647 294.495 58.9213H269.981C270.191 66.7913 273.395 70.6913 279.105 70.6913H279.801C285.998 70.6913 287.321 66.7213 287.321 64.7013V64.3547H293.938V64.7013C293.938 69.088 290.945 75.5647 280.011 75.5647H279.315C268.798 75.5647 263.298 69.158 263.298 57.738ZM287.951 54.048V53.908C287.951 46.9447 284.888 44.018 279.735 44.018H279.038C274.095 44.018 270.541 47.2213 270.055 54.0447H287.951V54.048Z" fill="white"/>
<path d="M299.228 60.4547V60.108H306.261V60.4547C306.261 65.818 309.325 69.9247 318.658 69.9247H319.355C326.528 69.9247 330.428 66.8613 330.428 62.2647V61.918C330.428 57.6014 327.921 55.7214 323.535 54.6747L312.391 51.958C305.635 50.288 301.041 46.5947 301.041 39.2847V38.588C301.041 30.5114 307.448 25.148 318.451 25.148H319.148C329.941 25.148 336.141 30.998 336.141 39.0047V39.3514H329.248V39.0047C329.248 34.8947 325.975 30.928 319.151 30.928H318.455C311.491 30.928 307.798 34.1314 307.798 38.658V39.0047C307.798 42.6947 309.958 44.8547 314.761 46.038L325.975 48.7547C332.798 50.4247 337.188 53.908 337.188 61.358V62.0547C337.188 70.4113 330.711 75.7047 319.291 75.7047H318.595C304.458 75.7047 299.235 69.438 299.235 60.4547H299.228Z" fill="white"/>
<path d="M346.928 67.9746V44.9947H340.521V39.6313H345.605C346.648 39.6313 347.208 39.0047 347.208 37.958V30.368H353.475V39.6313H362.318V44.9947H353.475V66.7913C353.475 69.088 354.381 69.7847 356.468 69.7847H362.318V75.148H354.171C349.018 75.148 346.928 72.7813 346.928 67.9746Z" fill="white"/>
<path d="M365.655 57.738V57.0413C365.655 45.6213 371.085 39.2147 381.671 39.2147H382.368C392.955 39.2147 398.385 45.6213 398.385 57.0413V57.738C398.385 69.158 392.951 75.5647 382.368 75.5647H381.671C371.085 75.5647 365.655 69.158 365.655 57.738ZM381.671 70.4813H382.368C388.218 70.4813 391.491 66.6513 391.491 57.738V57.0413C391.491 48.128 388.218 44.298 382.368 44.298H381.671C375.821 44.298 372.548 48.128 372.548 57.0413V57.738C372.548 66.6513 375.821 70.4813 381.671 70.4813Z" fill="white"/>
<path d="M403.811 39.6347H410.078V46.1814C412.935 41.238 414.258 39.6347 418.575 39.6347H423.031V45.6914H417.321C413.145 45.6914 410.358 49.1747 410.358 54.4647V75.148H403.811V39.6314V39.6347Z" fill="white"/>
<path d="M424.621 57.738V57.0413C424.621 45.6213 430.261 39.2147 440.428 39.2147H441.124C450.734 39.2147 455.958 44.7847 455.958 56.4147C455.958 57.528 455.888 58.3647 455.818 58.9213H431.304C431.514 66.7913 434.718 70.6913 440.428 70.6913H441.124C447.321 70.6913 448.644 66.7213 448.644 64.7013V64.3547H455.261V64.7013C455.261 69.088 452.268 75.5647 441.335 75.5647H440.638C430.121 75.5647 424.621 69.158 424.621 57.738ZM449.274 54.048V53.908C449.274 46.9447 446.211 44.018 441.058 44.018H440.361C435.418 44.018 431.864 47.2213 431.378 54.0447H449.274V54.048Z" fill="white"/>
<path d="M85.1941 45.9851C84.9875 46.7051 84.7575 47.4184 84.5075 48.1184C84.2441 48.8551 83.9608 49.5784 83.6508 50.2918L73.2808 50.0751C73.2808 50.2851 73.2808 50.4918 73.2741 50.7018L101.461 51.2918C101.497 49.6284 101.454 47.9684 101.324 46.3218L85.1908 45.9851H85.1941Z" fill="white"/>
<path d="M63.4342 1.4151L63.1508 2.11843C64.7142 2.7051 66.2275 3.40177 67.6841 4.19177L57.6542 29.0551C58.2642 29.2418 58.8742 29.4584 59.4775 29.7018C59.5075 29.7151 59.5375 29.7251 59.5642 29.7384L70.1075 3.59843C70.0775 3.5851 70.0475 3.5751 70.0208 3.56177C67.8475 2.6851 65.6475 1.97177 63.4342 1.4151Z" fill="white"/>
<path d="M73.5174 8.14509C74.7741 9.18842 75.9608 10.3151 77.0674 11.5184L62.7574 31.3518C63.2574 31.6584 63.7441 31.9817 64.2108 32.3217L80.7074 9.46176C78.9374 8.18176 77.0674 7.00509 75.1041 5.94842L73.5174 8.14842V8.14509Z" fill="white"/>
<path d="M81.0907 16.7918C81.9441 18.1518 82.7074 19.5718 83.3774 21.0451L67.1174 34.8551C67.4574 35.2084 67.7841 35.5718 68.1007 35.9484L89.5874 17.6984C88.2574 16.1251 86.8274 14.6284 85.3007 13.2184L81.0941 16.7918H81.0907Z" fill="white"/>
<path d="M93.3641 22.7917L85.4074 26.7584C85.8074 28.2817 86.1108 29.8451 86.3108 31.4417L70.4508 39.3484C70.6441 39.6951 70.8308 40.0451 71.0041 40.3984L96.2274 27.8251C95.3708 26.0951 94.4141 24.4151 93.3608 22.7917H93.3641Z" fill="white"/>
<path d="M86.5874 36.8018C86.5541 38.3818 86.4174 39.9418 86.1841 41.4684L72.5508 44.5284C72.6274 44.8218 72.7008 45.1151 72.7641 45.4118L100.267 39.2384C99.8741 37.4851 99.3907 35.7551 98.8141 34.0551L86.5874 36.7984V36.8018Z" fill="white"/>
<path d="M100.717 58.8251L81.9207 53.7718C81.2141 55.0151 80.4374 56.2184 79.5941 57.3651L72.6207 55.4918C72.5807 55.6484 72.5407 55.8018 72.4974 55.9584L99.7174 63.2751C100.121 61.7951 100.451 60.3118 100.714 58.8218L100.717 58.8251Z" fill="white"/>
<path d="M77.4707 59.9951C76.6107 60.9651 75.6974 61.8884 74.7374 62.7584L70.6841 60.5218C70.6207 60.6418 70.5541 60.7618 70.4874 60.8818L95.1674 74.4984C95.8307 73.2951 96.4507 72.0584 97.024 70.7851L77.4674 59.9951H77.4707Z" fill="white"/>
<path d="M72.3841 64.7251C71.4574 65.4351 70.4941 66.0984 69.5007 66.7184L67.5841 64.9484C67.5141 65.0284 67.4407 65.1051 67.3674 65.1851L88.0741 84.3151C88.9207 83.4051 89.7341 82.4584 90.5141 81.4784L72.3841 64.7284V64.7251Z" fill="white"/>
<path d="M81.5474 90.2117L66.9874 68.1451C66.4108 68.4417 65.8274 68.7217 65.2341 68.9884C65.2341 68.9884 64.1641 69.4484 63.9208 69.5484L78.8241 92.1317C79.7541 91.5217 80.6607 90.8817 81.5507 90.2117H81.5474Z" fill="white"/>
<path d="M61.4474 70.4351C61.2007 70.5117 59.6374 70.9651 59.1741 71.0784C59.1741 71.0784 58.7374 71.1851 58.6174 71.2118L67.9674 97.5084C68.8874 97.1817 69.7974 96.8317 70.6974 96.4517L61.4474 70.4318V70.4351Z" fill="white"/>
<path d="M55.8275 71.7118C55.0075 71.8885 54.1775 72.0151 53.3375 72.0984L56.1508 100.148C56.9875 100.065 57.8208 99.9618 58.6475 99.8384L55.8275 71.7151V71.7118Z" fill="white"/>
<path d="M50.1241 72.1717C49.4241 72.1351 48.7241 72.0684 48.0241 71.9651L44.0408 99.8751C44.7374 99.9751 45.4374 100.062 46.1341 100.135L50.1241 72.1751V72.1717Z" fill="white"/>
<path d="M17.2675 54.3118C17.4741 53.5918 17.7041 52.8784 17.9541 52.1784C18.2175 51.4418 18.5008 50.7185 18.8108 50.0051L29.1808 50.2218C29.1808 50.0118 29.1808 49.8051 29.1875 49.5951L1.00081 49.0051C0.96414 50.6685 1.00747 52.3285 1.13747 53.9751L17.2708 54.3118H17.2675Z" fill="white"/>
<path d="M39.0307 98.8817L39.3141 98.1784C37.7507 97.5917 36.2374 96.8951 34.7807 96.1051L44.8107 71.2417C44.2007 71.0551 43.5907 70.8384 42.9874 70.5951C42.9574 70.5817 42.9274 70.5717 42.9007 70.5584L32.3574 96.6984C32.3874 96.7117 32.4174 96.7217 32.4441 96.7351C34.6174 97.6117 36.8174 98.3251 39.0307 98.8817Z" fill="white"/>
<path d="M28.9441 92.1518C27.6875 91.1084 26.5008 89.9818 25.3941 88.7784L39.7041 68.9451C39.2041 68.6384 38.7175 68.3151 38.2508 67.9751L21.7541 90.8351C23.5241 92.1151 25.3941 93.2918 27.3575 94.3484L28.9441 92.1484V92.1518Z" fill="white"/>
<path d="M21.3708 83.5051C20.5175 82.1451 19.7541 80.7251 19.0841 79.2518L35.3441 65.4418C35.0041 65.0884 34.6775 64.7251 34.3608 64.3484L12.8741 82.5984C14.2041 84.1718 15.6341 85.6684 17.1608 87.0784L21.3675 83.5051H21.3708Z" fill="white"/>
<path d="M9.10079 77.5051L17.0575 73.5384C16.6575 72.0151 16.3541 70.4518 16.1541 68.8551L32.0141 60.9484C31.8208 60.6018 31.6341 60.2518 31.4608 59.8984L6.23413 72.4718C7.0908 74.2018 8.04746 75.8818 9.10079 77.5051Z" fill="white"/>
<path d="M15.8741 63.4951C15.9074 61.9151 16.0441 60.3551 16.2774 58.8284L29.9107 55.7685C29.8341 55.4751 29.7607 55.1818 29.6974 54.8851L2.19409 61.0551C2.58742 62.8084 3.07076 64.5385 3.64742 66.2385L15.8774 63.4951H15.8741Z" fill="white"/>
<path d="M1.74414 41.4718L20.5408 46.5251C21.2475 45.2818 22.0241 44.0784 22.8675 42.9318L29.8408 44.8051C29.8808 44.6484 29.9208 44.4951 29.9641 44.3384L2.74081 37.0184C2.33747 38.4984 2.00747 39.9818 1.74414 41.4718Z" fill="white"/>
<path d="M24.9908 40.3018C25.8508 39.3318 26.7642 38.4084 27.7242 37.5384L31.7775 39.7751C31.8408 39.6551 31.9075 39.5351 31.9742 39.4151L7.29416 25.7951C6.63083 26.9984 6.01083 28.2351 5.4375 29.5084L24.9942 40.2984L24.9908 40.3018Z" fill="white"/>
<path d="M30.0808 35.5717C31.0075 34.8617 31.9708 34.1984 32.9641 33.5784L34.8808 35.3484C34.9508 35.2684 35.0241 35.1917 35.0975 35.1117L14.3908 15.9817C13.5441 16.8917 12.7308 17.8384 11.9508 18.8184L30.0808 35.5684V35.5717Z" fill="white"/>
<path d="M20.9175 10.0851L35.4775 32.1518C36.0541 31.8551 36.6375 31.5751 37.2308 31.3084C37.2308 31.3084 38.3008 30.8484 38.5441 30.7484L23.6441 8.1651C22.7141 8.7751 21.8075 9.4151 20.9175 10.0851Z" fill="white"/>
<path d="M41.0141 29.8618C41.2608 29.7851 42.8241 29.3318 43.2875 29.2184C43.2875 29.2184 43.7241 29.1118 43.8441 29.0851L34.4941 2.78845C33.5741 3.11512 32.6642 3.46512 31.7642 3.84512L41.0141 29.8651V29.8618Z" fill="white"/>
<path d="M46.6342 28.5851C47.4542 28.4084 48.2842 28.2818 49.1242 28.1984L46.3142 0.148438C45.4775 0.231771 44.6442 0.335104 43.8175 0.458437L46.6375 28.5818L46.6342 28.5851Z" fill="white"/>
<path d="M52.3408 28.1251C53.0408 28.1617 53.7408 28.2284 54.4408 28.3317L58.4208 0.421743C57.7242 0.321743 57.0242 0.235076 56.3275 0.161743L52.3375 28.1217L52.3408 28.1251Z" fill="white"/>
<path d="M469.061 75.1699V65.9798H465.903V64.7436H473.768V65.9798H470.61V75.1699H469.061Z" fill="white"/>
<path d="M474.987 75.1699V64.7436H477.132L480.022 73.1144L482.792 64.7436H485.012V75.1699H483.448V66.9182L480.677 75.1699H479.292L476.551 66.9182V75.1699H474.987Z" fill="white"/>
</svg>
