<svg xmlns="http://www.w3.org/2000/svg" width="1631" height="472" fill="none">
    <g clip-path="url(#upstash_white_bg)">
        <path fill="#00C98D" d="M.422 412.975c78.105 78.104 204.738 78.104 282.843 0 78.104-78.105 78.104-204.738 0-282.843l-35.356 35.355c58.579 58.579 58.579 153.554 0 212.132-58.578 58.579-153.553 58.579-212.132 0L.422 412.975Z"/>
        <path fill="#00C98D" d="M71.133 342.264c39.052 39.052 102.368 39.052 141.421 0 39.052-39.052 39.052-102.369 0-141.421l-35.355 35.355c19.526 19.526 19.526 51.184 0 70.711-19.527 19.526-51.185 19.526-70.711 0l-35.355 35.355ZM353.975 59.421c-78.105-78.105-204.738-78.105-282.843 0-78.105 78.105-78.105 204.738 0 282.843l35.355-35.355c-58.578-58.579-58.578-153.554 0-212.132 58.579-58.579 153.554-58.579 212.132 0l35.356-35.356Z"/>
        <path fill="#00C98D" d="M283.264 130.132c-39.052-39.052-102.369-39.052-141.421 0-39.053 39.053-39.053 102.369 0 141.421l35.355-35.355c-19.526-19.526-19.526-51.184 0-70.711 19.526-19.526 51.184-19.526 70.711 0l35.355-35.355Z"/>
        <path fill="#fff" fill-opacity=".4" d="M353.974 59.421c-78.105-78.105-204.738-78.105-282.842 0-78.106 78.105-78.106 204.738 0 282.843l35.354-35.355c-58.578-58.579-58.578-153.554 0-212.132 58.579-58.579 153.554-58.579 212.132 0l35.356-35.356Z"/>
        <path fill="#fff" fill-opacity=".4" d="M283.264 130.132c-39.052-39.052-102.37-39.052-141.422 0-39.053 39.053-39.053 102.369 0 141.421l35.355-35.355c-19.526-19.526-19.526-51.184 0-70.711 19.526-19.526 51.184-19.526 70.711 0l35.356-35.355Z"/>
    </g>
    <path fill="#050505" d="M588.112 264.179c0 24.929-17.791 37.287-34.836 37.287-18.537 0-30.895-13.104-30.895-33.878v-98.224h-38.566v104.19c0 39.311 22.373 61.577 54.546 61.577 24.503 0 41.761-12.891 49.219-31.215h1.704V333h37.394V169.364h-38.566v94.815Zm72.223 130.185H698.9v-87.145h1.598c6.073 11.932 18.75 28.657 46.875 28.657 38.566 0 67.436-30.575 67.436-84.481 0-54.546-29.723-84.162-67.542-84.162-28.871 0-40.909 17.365-46.769 29.19h-2.237v-27.059h-37.926v225Zm37.819-143.182c0-31.747 13.637-52.308 38.459-52.308 25.675 0 38.885 21.839 38.885 52.308 0 30.682-13.423 53.054-38.885 53.054-24.609 0-38.459-21.307-38.459-53.054Zm273.013-38.566c-5.326-27.698-27.486-45.383-65.838-45.383-39.417 0-66.264 19.389-66.157 49.645-.107 23.863 14.595 39.631 46.022 46.129l27.912 5.859c15.021 3.303 22.053 9.375 22.053 18.644 0 11.186-12.145 19.602-30.469 19.602-17.685 0-29.19-7.67-32.493-22.372l-37.606 3.622c4.794 30.043 30.042 47.834 70.206 47.834 40.909 0 69.779-21.2 69.886-52.202-.107-23.331-15.128-37.606-46.023-44.318l-27.912-5.966c-16.619-3.728-23.224-9.481-23.118-18.963-.106-11.079 12.145-18.75 28.232-18.75 17.791 0 27.166 9.695 30.149 20.455l35.156-3.836Zm111.023-43.252h-32.27v-39.205h-38.57v39.205h-23.225v29.829h23.225v90.98c-.21 30.789 22.16 45.916 51.14 45.064 10.97-.319 18.53-2.45 22.69-3.835l-6.5-30.149c-2.13.533-6.5 1.491-11.29 1.491-9.7 0-17.47-3.409-17.47-18.963v-84.588h32.27v-29.829Zm73.35 166.939c25.67 0 41.01-12.039 48.04-25.782h1.28V333h37.08V223.483c0-43.253-35.27-56.25-66.48-56.25-34.41 0-60.83 15.341-69.36 45.17l36.01 5.114c3.84-11.186 14.7-20.774 33.56-20.774 17.9 0 27.7 9.162 27.7 25.248v.64c0 11.079-11.61 11.612-40.48 14.701-31.75 3.409-62.11 12.891-62.11 49.752 0 32.173 23.54 49.219 54.76 49.219Zm10.01-28.339c-16.09 0-27.59-7.35-27.59-21.519 0-14.809 12.89-20.988 30.15-23.438 10.12-1.385 30.36-3.942 35.37-7.99V274.3c0 18.217-14.71 33.664-37.93 33.664Zm238.5-95.348c-5.33-27.698-27.49-45.383-65.84-45.383-39.42 0-66.27 19.389-66.16 49.645-.11 23.863 14.6 39.631 46.02 46.129l27.92 5.859c15.02 3.303 22.05 9.375 22.05 18.644 0 11.186-12.15 19.602-30.47 19.602-17.69 0-29.19-7.67-32.49-22.372l-37.61 3.622c4.79 30.043 30.04 47.834 70.21 47.834 40.9 0 69.78-21.2 69.88-52.202-.1-23.331-15.13-37.606-46.02-44.318l-27.91-5.966c-16.62-3.728-23.23-9.481-23.12-18.963-.11-11.079 12.14-18.75 28.23-18.75 17.79 0 27.17 9.695 30.15 20.455l35.16-3.836Zm67.88 24.503c0-23.65 14.7-37.287 35.37-37.287 20.24 0 32.17 12.891 32.17 34.944V333h38.57V228.81c0-39.524-22.38-61.577-56.36-61.577-25.14 0-41.12 11.399-48.69 29.936h-1.91v-82.351h-37.72V333h38.57v-95.881Z"/>
    <defs>
        <clipPath id="upstash_white_bg">
            <path fill="#fff" d="M0 0h354v472H0z"/>
        </clipPath>
    </defs>
</svg>
