<svg width="280" height="80" viewBox="0 0 280 80" fill="none" xmlns="http://www.w3.org/2000/svg">
<g clip-path="url(#clip0_645_8)">
<path fill-rule="evenodd" clip-rule="evenodd" d="M71.6293 23.4058C71.1108 23.8502 70.8886 24.5169 70.8886 25.1836V39.0354H56.5182V25.1836C56.5182 24.4428 56.296 23.8502 55.7775 23.4058C55.2589 22.8132 54.6663 22.665 53.9256 22.665C53.1849 22.665 52.5923 22.8132 52.0737 23.4058C51.5552 23.8502 51.333 24.5169 51.333 25.1836V58.0725C51.333 58.8132 51.5552 59.4058 52.0737 59.9243C52.5923 60.3688 53.1849 60.6651 53.9256 60.6651C54.6663 60.6651 55.2589 60.3688 55.7775 59.9243C56.296 59.3317 56.5182 58.7391 56.5182 57.9984V44.2947H70.8886V58.0725C70.8886 58.8132 71.1108 59.4058 71.6293 59.9243C72.1478 60.3688 72.8145 60.6651 73.4811 60.6651C74.2219 60.6651 74.9626 60.3688 75.4071 59.9243C75.9256 59.3317 76.1478 58.7391 76.1478 57.9984V25.1836C76.1478 24.4428 75.9256 23.8502 75.4071 23.4058C74.8886 22.8132 74.2219 22.665 73.4811 22.665C72.7404 22.665 72.1478 22.8132 71.6293 23.4058ZM108.074 41.9243C107.037 39.2576 105.333 37.1095 102.889 35.4799C100.518 33.7762 97.9256 32.9613 95.1108 32.9613C91.4071 32.9613 87.9997 34.2947 85.333 37.0354C82.5923 39.7762 81.2589 42.9614 81.2589 46.8873C81.2589 50.7391 82.5923 53.9984 85.333 56.6651C87.9997 59.4058 91.2589 60.7391 95.1108 60.7391C99.5552 60.7391 103.259 58.9614 106 55.4058C106.444 54.8132 106.74 54.1466 106.592 53.4799C106.444 52.7391 106.148 52.1465 105.555 51.7021C104.963 51.2577 104.37 50.9614 103.629 51.1836C102.889 51.3317 102.296 51.628 101.852 52.2206C100.148 54.4428 97.9256 55.554 95.1848 55.554C92.7404 55.554 90.7404 54.591 89.0367 52.9614C87.333 51.2577 86.5182 49.2577 86.5182 46.8873C86.5182 44.5169 87.2589 42.4428 88.9626 40.8132C90.6663 39.3317 92.6663 38.3688 95.0367 38.3688C97.7774 38.3688 99.9997 39.4799 101.703 41.7021L89.8515 46.4428C89.1108 46.7391 88.6663 47.1836 88.37 47.9243C88.0737 48.5169 88.0737 49.1836 88.37 49.8503C88.8145 50.9614 89.6293 51.554 90.8145 51.554C91.1108 51.554 91.5552 51.554 91.7774 51.3317L106.592 45.4058C107.333 45.1836 107.703 44.6651 108.074 44.0725C108.296 43.3317 108.296 42.591 108.074 42.0725V41.9243ZM114.74 23.4058C114.148 23.8502 113.852 24.5169 113.852 25.1836V58.0725C113.852 58.8132 114.148 59.4058 114.592 59.9243C115.185 60.3688 115.777 60.6651 116.518 60.6651C117.259 60.6651 117.852 60.3688 118.37 59.9243C118.814 59.3317 119.111 58.7391 119.111 57.9984V25.1836C119.111 24.4428 118.814 23.8502 118.37 23.4058C117.777 22.8132 117.185 22.665 116.444 22.665C115.703 22.665 115.111 22.8132 114.592 23.4058H114.74ZM129.926 37.0354C127.259 39.7762 125.852 42.9614 125.852 46.8873V68.5169C125.852 69.2577 126.148 69.9984 126.592 70.4429C127.185 71.0355 127.777 71.1836 128.518 71.1836C129.259 71.1836 129.852 71.0355 130.37 70.4429C130.963 69.9984 131.111 69.3317 131.111 68.591V46.8873C131.111 44.5169 132.074 42.4428 133.703 40.8132C135.407 39.3317 137.407 38.3688 139.777 38.3688C142.148 38.3688 144.222 39.2576 145.852 40.8873C147.481 42.6651 148.296 44.591 148.296 47.0354C148.296 49.4058 147.555 51.4799 145.777 53.1095C144 54.7391 142.074 55.628 139.629 55.628C138.296 55.628 137.111 55.2577 135.926 54.6651C135.185 54.3688 134.592 54.2947 133.926 54.6651C133.185 54.8132 132.666 55.2577 132.444 55.9243C132.074 56.5169 132 57.2577 132.222 57.9243C132.518 58.6651 132.963 59.1836 133.703 59.4058C135.481 60.4429 137.407 60.8873 139.629 60.8873C143.481 60.8873 146.74 59.554 149.407 56.8132C152.074 54.1466 153.407 50.8873 153.407 47.0354C153.407 43.1836 152.074 39.9243 149.333 37.2576C146.592 34.591 143.407 33.2576 139.481 33.2576C135.777 33.2576 132.444 34.591 129.703 37.3317L129.926 37.0354ZM179.407 23.4058C178.814 23.8502 178.666 24.5169 178.666 25.1836V39.0354H164.222V25.1836C164.222 24.4428 164 23.8502 163.481 23.4058C162.963 22.8132 162.37 22.665 161.629 22.665C160.889 22.665 160.296 22.8132 159.777 23.4058C159.259 23.8502 159.037 24.5169 159.037 25.1836V58.0725C159.037 58.8132 159.259 59.4058 159.777 59.9243C160.296 60.3688 160.889 60.6651 161.629 60.6651C162.37 60.6651 162.963 60.3688 163.481 59.9243C164 59.3317 164.222 58.7391 164.222 57.9984V44.2947H178.592V58.0725C178.592 58.8132 178.814 59.4058 179.333 59.9243C179.926 60.3688 180.518 60.6651 181.185 60.6651C181.926 60.6651 182.666 60.3688 183.111 59.9243C183.629 59.3317 183.851 58.7391 183.851 57.9984V25.1836C183.851 24.4428 183.629 23.8502 183.111 23.4058C182.592 22.8132 181.926 22.665 181.185 22.665C180.444 22.665 179.926 22.8132 179.407 23.4058ZM215.703 41.9243C214.814 39.2576 213.111 37.1095 210.74 35.4799C208.296 33.7762 205.703 32.9613 202.889 32.9613C199.185 32.9613 195.777 34.2947 193.111 37.0354C190.37 39.7762 189.037 42.9614 189.037 46.8873C189.037 50.7391 190.37 53.9984 193.111 56.6651C195.777 59.4058 199.037 60.7391 202.889 60.7391C207.333 60.7391 211.037 58.9614 213.777 55.4058C214.296 54.8132 214.518 54.1466 214.37 53.4799C214.222 52.7391 213.926 52.1465 213.333 51.7021C212.814 51.2577 212.222 50.9614 211.481 51.1836C210.74 51.3317 210.148 51.628 209.703 52.2206C208.074 54.4428 205.851 55.554 203.037 55.554C200.666 55.554 198.592 54.591 196.963 52.9614C195.259 51.2577 194.444 49.2577 194.444 46.8873C194.444 44.5169 195.185 42.4428 196.963 40.8132C198.666 39.3317 200.666 38.3688 203.037 38.3688C205.777 38.3688 208 39.4799 209.703 41.7021L197.852 46.4428C197.111 46.7391 196.666 47.1836 196.37 47.9243C196.074 48.5169 196.074 49.1836 196.37 49.8503C196.814 50.9614 197.629 51.554 198.814 51.554C199.111 51.554 199.555 51.554 199.777 51.3317L214.592 45.4058C215.185 45.1836 215.629 44.6651 215.926 44.0725C216.222 43.3317 216.222 42.591 215.926 42.0725L215.703 41.9243ZM233.777 33.0354C230.963 33.0354 228.37 33.9243 226.148 35.7762C226.148 35.0354 225.851 34.2947 225.407 33.8502C224.814 33.3317 224.222 33.1095 223.481 33.1095C222.74 33.1095 222.148 33.3317 221.629 33.8502C221.111 34.3688 220.889 34.9613 220.889 35.7021V58.0725C220.889 58.8132 221.111 59.554 221.629 59.9243C222.148 60.3688 222.74 60.6651 223.481 60.6651C224.222 60.6651 224.814 60.3688 225.333 59.9243C225.851 59.4058 226.074 58.7391 226.074 57.9984V46.8873C226.074 44.4428 226.814 42.4428 228.296 40.7391C229.777 39.2576 231.703 38.2947 233.777 38.2947C234.222 38.2947 234.518 38.2947 235.037 38.4428C235.777 38.4428 236.37 38.4428 236.963 37.9243C237.555 37.5539 237.926 36.9613 238.074 36.2947C238.222 35.5539 238.074 34.9613 237.703 34.3688C237.259 33.7762 236.666 33.4058 236 33.2576C235.259 33.0354 234.518 32.9613 233.777 32.9613V33.0354ZM244.666 37.1095C242 39.8502 240.592 43.0354 240.592 46.9614C240.592 50.8132 241.926 54.0725 244.592 56.7391C247.333 59.4799 250.518 60.8132 254.444 60.8132C258.148 60.8132 261.481 59.4799 264.074 56.7391C266.889 54.0725 268.222 50.8132 268.222 46.9614C268.222 43.1095 266.889 39.8502 264.148 37.1836C261.481 34.5169 258.222 33.1836 254.518 33.1836C250.592 33.1836 247.333 34.5169 244.592 37.2576L244.666 37.1095ZM248.37 53.0354C246.74 51.3317 245.926 49.3317 245.926 46.9614C245.926 44.591 246.814 42.5169 248.518 40.8873C250.148 39.4058 252.222 38.4428 254.592 38.4428C256.814 38.4428 259.037 39.3317 260.518 40.9614C262.296 42.7391 263.111 44.6651 263.111 47.1095C263.111 49.4799 262.37 51.554 260.592 53.1836C258.963 54.8132 256.889 55.7021 254.666 55.7021C252.148 55.7021 250.222 54.7391 248.518 53.1095L248.37 53.0354Z" fill="#374151"/>
<path fill-rule="evenodd" clip-rule="evenodd" d="M30.3702 26.2947V46.2947H0.888672L10.9627 36.2947L0.888672 26.2947H30.3702Z" fill="#374151"/>
<path d="M34.8146 25.1837C34.8146 23.7518 33.6538 22.5911 32.222 22.5911C30.7901 22.5911 29.6294 23.7518 29.6294 25.1837V58.1466C29.6294 59.5785 30.7901 60.7392 32.222 60.7392C33.6538 60.7392 34.8146 59.5785 34.8146 58.1466V25.1837Z" fill="#374151"/>
</g>
<defs>
<clipPath id="clip0_645_8">
<rect width="268.889" height="49.6297" fill="white" transform="translate(0 22.2207)"/>
</clipPath>
</defs>
</svg>
