<svg overflow="visible" width="100%" height="100%" viewBox="0 0 97 64" fill="none" xmlns="http://www.w3.org/2000/svg"> <path stroke-linejoin="miter" fill="#374151" d="M31.7899 34.22C33.177 34.22 35.3412 33.2559 35.7197 30.7467L35.8574 29.0986C35.6953 29.1144 35.5067 29.1335 35.2995 29.1547C35.176 29.1673 35.0459 29.1807 34.9109 29.1946L34.9059 29.1951C34.0438 29.2837 32.9797 29.3932 32.1402 29.4618C30.3121 29.6113 29.123 30.7357 29.2377 32.2463C29.3317 33.4857 30.3304 34.22 31.7899 34.22Z"></path> <path stroke-linejoin="miter" fill="#374151" fill-rule="evenodd" clip-rule="evenodd" d="M1.80974 16.709C0.488327 17.4443 -0.171736 18.9543 0.0384499 20.4955L4.26566 51.4906C4.5761 53.7669 6.65897 55.2851 8.81245 54.7498C9.06056 54.6882 9.31294 54.6253 9.56958 54.5613C19.5687 52.069 36.0436 47.9625 59.4121 52.2282L57.2918 58.7127C56.4433 61.3075 58.3016 64 60.9411 64H73.4335C74.8856 64 76.2144 63.1526 76.8709 61.8079L96.5764 21.4497C97.9716 18.5922 95.7275 15.2761 92.6652 15.6698L73.4395 17.2042L74.1227 4.24652C74.2825 1.87156 72.4162 -0.124387 70.1265 0.00605259C31.4339 2.21028 8.31062 13.0916 1.80974 16.709ZM47.146 38.2619L50.4249 37.9447C51.5427 37.8365 52.2289 37.1068 52.3111 35.9283L54.2946 11.5439C54.4175 10.4005 53.8497 9.5189 52.6782 9.86634L49.4176 10.8061C48.5745 11.0437 47.6335 11.4469 47.5314 12.8225L45.5669 36.5807C45.4475 37.7628 46.0654 38.3664 47.146 38.2619ZM40.9031 18.8215C39.3189 17.2363 35.602 16.7213 33.177 16.9196C31.1083 17.0888 29.3143 17.7362 28.2205 18.2207C27.5342 18.5248 27.1994 19.2978 27.3568 20.0551L27.791 22.1435C27.891 22.6244 28.3477 22.9299 28.8114 22.8282C29.9336 22.582 31.8694 22.1716 32.6259 22.0977C34.3304 21.9311 37.0878 21.9808 36.4016 24.617C36.4016 24.617 35.7965 25.3184 31.2179 25.6929C25.8831 26.1292 22.479 28.8458 22.8052 33.1451C23.058 36.476 25.8801 38.5445 29.76 38.2272C32.7435 37.9832 34.0223 37.3281 35.8574 35.1292L35.8362 35.8931C35.8152 36.6529 36.4436 37.2579 37.1718 37.1789L40.6021 36.8067C41.1748 36.7445 41.6261 36.2721 41.681 35.677L42.6975 24.6755C42.9738 21.8858 42.0879 20.0886 40.9031 18.8215ZM60.9 41.2459L57.6225 41.5787C56.5424 41.6884 55.9218 41.0878 56.036 39.9051L57.8951 16.1378C57.9911 14.7617 58.9303 14.3541 59.7723 14.1124L63.0288 13.1571C64.1988 12.804 64.7704 13.6829 64.6526 14.8269L62.7772 39.2205C62.7003 40.3994 62.0173 41.1324 60.9 41.2459ZM24.507 20.0668C24.4509 19.2636 23.7649 18.6586 23.0049 18.8194C18.8075 19.7078 16.5197 22.3901 15.2195 23.9146C15.1417 24.0058 15.0675 24.0929 14.9965 24.1751L13.1141 22.3885C12.8184 22.1078 12.408 21.9973 12.0182 22.0933L10.383 22.4959C9.76451 22.6482 9.3649 23.2712 9.46802 23.9224L9.83731 26.2542C9.84166 26.2822 10.1011 27.9557 10.2548 29.6726C10.4635 32.0032 11.3458 39.8854 11.3458 39.8854C11.5669 41.0446 12.3166 41.4569 13.3321 41.0592L16.5193 39.8998C17.5698 39.4885 18.0456 38.5963 17.8594 37.4235L17.229 31.3439C17.1361 30.5474 17.3112 29.8836 17.4409 29.392L17.4564 29.3332C18.0149 27.208 21.2037 25.0531 23.523 24.2165C24.21 23.9686 24.7324 23.2983 24.6799 22.5452L24.507 20.0668ZM80.8189 24.5972L83.9884 24.1394C85.0358 24.1093 85.6904 24.7901 85.0845 25.9347L75.8195 44.8534L72.4462 52.3129C71.9526 53.4299 71.0464 53.4658 70.2712 53.3946L67.2774 53.5164C66.1951 53.4319 65.9824 52.5135 66.4245 51.5971L69.3623 44.9408C69.3623 44.9408 70.4245 42.9381 70.4026 42.1419C70.3806 41.3458 67.2739 27.6106 67.2739 27.6106C66.9447 26.4929 67.8238 25.768 68.9086 25.7369L71.6062 25.227C72.8781 25.1905 73.2749 26.0341 73.4878 26.9997L75.0883 34.8117L78.3986 26.4935C79.0368 25.1537 79.8463 24.6251 80.8189 24.5972Z"></path> <path stroke-linejoin="miter" fill="#374151" fill-rule="evenodd" clip-rule="evenodd" d="M35.2995 29.1547C35.176 29.1673 35.0459 29.1807 34.9109 29.1946L34.9059 29.1951C35.042 29.1811 35.1751 29.1674 35.2995 29.1547Z"></path> </svg>