<?xml version="1.0" encoding="UTF-8" standalone="no"?>
<!DOCTYPE svg PUBLIC "-//W3C//DTD SVG 1.1//EN" "http://www.w3.org/Graphics/SVG/1.1/DTD/svg11.dtd">
<svg width="100%" height="100%" viewBox="0 0 807 402" version="1.1" xmlns="http://www.w3.org/2000/svg" xmlns:xlink="http://www.w3.org/1999/xlink" xml:space="preserve" xmlns:serif="http://www.serif.com/" style="fill-rule:evenodd;clip-rule:evenodd;stroke-linejoin:round;stroke-miterlimit:2;">
    <rect id="Artboard1" x="0" y="0" width="806.112" height="401.195" style="fill:none;"/>
    <g>
        <g id="svg_8">
            <path id="svg_5" d="M49.653,392.327c-7.08,0 -13.74,-1.56 -19.98,-4.68c-6.12,-3.12 -11.04,-7.56 -14.76,-13.32l7.74,-9c3.48,5.04 7.5,8.88 12.06,11.52c4.56,2.64 9.6,3.96 15.12,3.96c15.6,0 23.4,-9.24 23.4,-27.72l0,-76.32l-46.08,0l0,-11.52l59.22,0l0,87.3c0,13.32 -3.12,23.28 -9.36,29.88c-6.12,6.6 -15.24,9.9 -27.36,9.9Zm136.62,0c-9.36,0 -18.36,-1.5 -27,-4.5c-8.52,-3.12 -15.12,-7.08 -19.8,-11.88l5.22,-10.26c4.44,4.32 10.38,7.98 17.82,10.98c7.56,2.88 15.48,4.32 23.76,4.32c7.92,0 14.34,-0.96 19.26,-2.88c5.04,-2.04 8.7,-4.74 10.98,-8.1c2.4,-3.36 3.6,-7.08 3.6,-11.16c0,-4.92 -1.44,-8.88 -4.32,-11.88c-2.76,-3 -6.42,-5.34 -10.98,-7.02c-4.56,-1.8 -9.6,-3.36 -15.12,-4.68c-5.52,-1.32 -11.04,-2.7 -16.56,-4.14c-5.52,-1.56 -10.62,-3.6 -15.3,-6.12c-4.56,-2.52 -8.28,-5.82 -11.16,-9.9c-2.76,-4.2 -4.14,-9.66 -4.14,-16.38c0,-6.24 1.62,-11.94 4.86,-17.1c3.36,-5.28 8.46,-9.48 15.3,-12.6c6.84,-3.24 15.6,-4.86 26.28,-4.86c7.08,0 14.1,1.02 21.06,3.06c6.96,1.92 12.96,4.62 18,8.1l-4.5,10.62c-5.4,-3.6 -11.16,-6.24 -17.28,-7.92c-6,-1.68 -11.82,-2.52 -17.46,-2.52c-7.56,0 -13.8,1.02 -18.72,3.06c-4.92,2.04 -8.58,4.8 -10.98,8.28c-2.28,3.36 -3.42,7.2 -3.42,11.52c0,4.92 1.38,8.88 4.14,11.88c2.88,3 6.6,5.34 11.16,7.02c4.68,1.68 9.78,3.18 15.3,4.5c5.52,1.32 10.98,2.76 16.38,4.32c5.52,1.56 10.56,3.6 15.12,6.12c4.68,2.4 8.4,5.64 11.16,9.72c2.88,4.08 4.32,9.42 4.32,16.02c0,6.12 -1.68,11.82 -5.04,17.1c-3.36,5.16 -8.52,9.36 -15.48,12.6c-6.84,3.12 -15.66,4.68 -26.46,4.68Zm81.28,-1.08l51.66,-69.84l0,10.26l-48.6,-66.42l15.3,0l40.86,55.44l-5.94,0.18l40.86,-55.62l14.4,0l-48.06,65.52l0,-9.36l51.48,69.84l-15.48,0l-43.56,-59.22l5.58,0l-43.2,59.22l-15.3,0Z" style="fill-rule:nonzero;"/>
            <path id="svg_6" d="M29.673,387.647l-0.9,1.78l0.9,-1.78Zm-14.76,-13.32l-1.52,-1.3l-0.98,1.12l0.82,1.26l1.68,-1.08Zm7.74,-9l1.64,-1.14l-1.46,-2.12l-1.7,1.96l1.52,1.3Zm12.06,11.52l1,-1.72l-1,1.72Zm38.52,-100.08l2,0l0,-2l-2,0l0,2Zm-46.08,0l-2,0l0,2l2,0l0,-2Zm0,-11.52l0,-2l-2,0l0,2l2,0Zm59.22,0l2,0l0,-2l-2,0l0,2Zm-9.36,117.18l-1.46,-1.38l0,0.02l1.46,1.36Zm-27.36,7.9c-6.78,0 -13.12,-1.48 -19.08,-4.46l-1.8,3.56c6.52,3.26 13.5,4.9 20.88,4.9l0,-4Zm-19.08,-4.46c-5.8,-2.96 -10.46,-7.16 -13.98,-12.62l-3.36,2.16c3.92,6.06 9.1,10.74 15.54,14.02l1.8,-3.56Zm-14.14,-10.24l7.74,-9l-3.04,-2.6l-7.74,9l3.04,2.6Zm4.58,-9.16c3.62,5.24 7.84,9.3 12.7,12.12l2,-3.46c-4.26,-2.48 -8.08,-6.1 -11.42,-10.94l-3.28,2.28Zm12.7,12.12c4.88,2.82 10.26,4.22 16.12,4.22l0,-4c-5.18,0 -9.88,-1.24 -14.12,-3.68l-2,3.46Zm16.12,4.22c8.2,0 14.7,-2.44 19.08,-7.64c4.32,-5.12 6.32,-12.6 6.32,-22.08l-4,0c0,9 -1.9,15.38 -5.38,19.5c-3.42,4.04 -8.62,6.22 -16.02,6.22l0,4Zm25.4,-29.72l0,-76.32l-4,0l0,76.32l4,0Zm-2,-78.32l-46.08,0l0,4l46.08,0l0,-4Zm-44.08,2l0,-11.52l-4,0l0,11.52l4,0Zm-2,-9.52l59.22,0l0,-4l-59.22,0l0,4Zm57.22,-2l0,87.3l4,0l0,-87.3l-4,0Zm0,87.3c0,13.04 -3.06,22.42 -8.82,28.5l2.92,2.76c6.72,-7.12 9.9,-17.66 9.9,-31.26l-4,0Zm-8.82,28.52c-5.62,6.06 -14.14,9.26 -25.9,9.26l0,4c12.48,0 22.22,-3.4 28.82,-10.54l-2.92,-2.72Zm83.72,6.76l-0.7,1.88l0.04,0l0.66,-1.88Zm-19.8,-11.88l-1.78,-0.9l-0.66,1.26l1,1.04l1.44,-1.4Zm5.22,-10.26l1.38,-1.44l-1.94,-1.88l-1.22,2.42l1.78,0.9Zm17.82,10.98l-0.76,1.86l0.04,0l0.72,-1.86Zm43.02,1.44l0.72,1.86l0.02,0l-0.74,-1.86Zm10.98,-8.1l-1.64,-1.16l0,0.02l-0.02,0.02l1.66,1.12Zm-0.72,-23.04l-1.48,1.36l0.02,0l0.02,0.02l1.44,-1.38Zm-10.98,-7.02l-0.74,1.86l0.02,0l0.02,0.02l0.7,-1.88Zm-31.68,-8.82l-0.54,1.92l0.02,0.02l0.02,0l0.5,-1.94Zm-15.3,-6.12l-0.98,1.76l0.02,0l0.96,-1.76Zm-11.16,-9.9l-1.68,1.1l0.02,0.02l0.02,0.04l1.64,-1.16Zm0.72,-33.48l-1.7,-1.08l0,0.02l1.7,1.06Zm15.3,-12.6l0.82,1.82l0.02,0l0.02,-0.02l-0.86,-1.8Zm47.34,-1.8l-0.56,1.92l0.02,0l0.54,-1.92Zm18,8.1l1.84,0.78l0.64,-1.5l-1.34,-0.92l-1.14,1.64Zm-4.5,10.62l-1.12,1.66l2.02,1.34l0.94,-2.22l-1.84,-0.78Zm-17.28,-7.92l-0.54,1.92l0.54,-1.92Zm-36.18,0.54l-0.76,-1.84l0.76,1.84Zm-10.98,8.28l-1.64,-1.14l-0.02,0.02l1.66,1.12Zm0.72,23.4l-1.48,1.36l0.02,0l0.02,0.02l1.44,-1.38Zm11.16,7.02l-0.7,1.88l0.02,0l0.68,-1.88Zm15.3,4.5l-0.46,1.94l0.46,-1.94Zm16.38,4.32l-0.56,1.92l0.02,0l0.54,-1.92Zm15.12,6.12l-0.98,1.76l0.04,0l0.02,0.02l0.92,-1.78Zm11.16,9.72l-1.66,1.12l0,0.02l0.02,0.02l1.64,-1.16Zm-0.72,33.12l1.68,1.1l0,-0.02l-1.68,-1.08Zm-15.48,12.6l0.82,1.82l0.02,0l-0.84,-1.82Zm-26.46,2.68c-9.14,0 -17.92,-1.46 -26.34,-4.4l-1.32,3.78c8.86,3.08 18.08,4.62 27.66,4.62l0,-4Zm-26.32,-4.38c-8.32,-3.04 -14.64,-6.88 -19.06,-11.4l-2.86,2.8c4.96,5.08 11.84,9.18 20.54,12.36l1.38,-3.76Zm-18.7,-9.1l5.22,-10.26l-3.56,-1.8l-5.22,10.26l3.56,1.8Zm2.04,-9.72c4.68,4.54 10.86,8.32 18.46,11.4l1.5,-3.72c-7.26,-2.92 -12.96,-6.46 -17.18,-10.56l-2.78,2.88Zm18.5,11.4c7.8,2.98 15.96,4.46 24.48,4.46l0,-4c-8.04,0 -15.72,-1.4 -23.06,-4.18l-1.42,3.72Zm24.48,4.46c8.06,0 14.74,-0.98 19.98,-3.02l-1.46,-3.72c-4.6,1.8 -10.74,2.74 -18.52,2.74l0,4Zm20,-3.02c5.3,-2.14 9.32,-5.06 11.88,-8.84l-3.3,-2.24c-2,2.94 -5.28,5.42 -10.08,7.36l1.5,3.72Zm11.86,-8.8c2.64,-3.7 3.98,-7.82 3.98,-12.32l-4,0c0,3.66 -1.06,6.98 -3.24,10l3.26,2.32Zm3.98,-12.32c0,-5.34 -1.58,-9.82 -4.88,-13.26l-2.88,2.76c2.46,2.56 3.76,6 3.76,10.5l4,0Zm-4.86,-13.24c-3,-3.26 -6.96,-5.76 -11.76,-7.54l-1.38,3.76c4.32,1.58 7.7,3.76 10.2,6.5l2.94,-2.72Zm-11.7,-7.52c-4.66,-1.84 -9.8,-3.42 -15.4,-4.76l-0.94,3.88c5.46,1.3 10.4,2.84 14.86,4.6l1.48,-3.72Zm-15.4,-4.76c-5.5,-1.32 -11.02,-2.7 -16.52,-4.14l-1,3.88c5.52,1.44 11.06,2.82 16.58,4.14l0.94,-3.88Zm-16.48,-4.12c-5.4,-1.52 -10.36,-3.52 -14.9,-5.96l-1.9,3.52c4.82,2.6 10.06,4.68 15.72,6.28l1.08,-3.84Zm-14.88,-5.96c-4.3,-2.38 -7.8,-5.48 -10.48,-9.3l-3.28,2.32c3.06,4.34 7.02,7.84 11.82,10.5l1.94,-3.52Zm-10.46,-9.24c-2.48,-3.78 -3.8,-8.82 -3.8,-15.28l-4,0c0,6.98 1.42,12.86 4.46,17.48l3.34,-2.2Zm-3.8,-15.28c0,-5.88 1.52,-11.2 4.54,-16.04l-3.38,-2.12c-3.44,5.48 -5.16,11.56 -5.16,18.16l4,0Zm4.54,-16.02c3.12,-4.9 7.88,-8.86 14.44,-11.86l-1.66,-3.64c-7.12,3.24 -12.54,7.68 -16.16,13.34l3.38,2.16Zm14.48,-11.88c6.48,-3.06 14.92,-4.66 25.42,-4.66l0,-4c-10.86,0 -19.94,1.64 -27.14,5.06l1.72,3.6Zm25.42,-4.66c6.88,0 13.72,1 20.5,2.98l1.12,-3.84c-7.14,-2.1 -14.34,-3.14 -21.62,-3.14l0,4Zm20.52,2.98c6.78,1.88 12.58,4.5 17.4,7.82l2.28,-3.28c-5.26,-3.64 -11.48,-6.42 -18.62,-8.38l-1.06,3.84Zm16.7,5.4l-4.5,10.62l3.68,1.56l4.5,-10.62l-3.68,-1.56Zm-1.56,9.74c-5.56,-3.72 -11.52,-6.46 -17.86,-8.18l-1.06,3.84c5.92,1.64 11.48,4.18 16.7,7.66l2.22,-3.32Zm-17.84,-8.18c-6.16,-1.74 -12.16,-2.6 -18,-2.6l0,4c5.44,0 11.08,0.8 16.92,2.44l1.08,-3.84Zm-18,-2.6c-7.72,0 -14.24,1.04 -19.48,3.22l1.52,3.68c4.6,-1.9 10.56,-2.9 17.96,-2.9l0,-4Zm-19.48,3.22c-5.2,2.14 -9.2,5.12 -11.86,8.98l3.28,2.28c2.14,-3.1 5.44,-5.64 10.1,-7.58l-1.52,-3.68Zm-11.88,9c-2.52,3.7 -3.76,7.94 -3.76,12.64l4,0c0,-3.94 1.02,-7.38 3.08,-10.4l-3.32,-2.24Zm-3.76,12.64c0,5.32 1.5,9.8 4.66,13.24l2.94,-2.72c-2.34,-2.56 -3.6,-6 -3.6,-10.52l-4,0Zm4.7,13.26c3.12,3.26 7.1,5.74 11.9,7.52l1.38,-3.76c-4.32,-1.58 -7.76,-3.78 -10.4,-6.52l-2.88,2.76Zm11.92,7.52c4.76,1.72 9.92,3.24 15.52,4.56l0.92,-3.88c-5.46,-1.32 -10.48,-2.8 -15.08,-4.44l-1.36,3.76Zm15.52,4.56c5.48,1.32 10.9,2.76 16.28,4.3l1.1,-3.84c-5.42,-1.58 -10.92,-3.02 -16.46,-4.34l-0.92,3.88Zm16.3,4.3c5.38,1.52 10.28,3.52 14.68,5.96l1.94,-3.52c-4.7,-2.6 -9.88,-4.68 -15.54,-6.28l-1.08,3.84Zm14.74,5.98c4.4,2.26 7.86,5.28 10.42,9.06l3.32,-2.24c-2.96,-4.38 -6.96,-7.84 -11.92,-10.38l-1.82,3.56Zm10.44,9.1c2.58,3.64 3.96,8.54 3.96,14.86l4,0c0,-6.88 -1.5,-12.66 -4.7,-17.18l-3.26,2.32Zm3.96,14.86c0,5.74 -1.58,11.06 -4.74,16.02l3.38,2.16c3.56,-5.6 5.36,-11.68 5.36,-18.18l-4,0Zm-4.72,16c-3.1,4.78 -7.94,8.76 -14.64,11.88l1.68,3.64c7.22,-3.36 12.7,-7.78 16.32,-13.32l-3.36,-2.2Zm-14.64,11.88c-6.48,2.96 -15,4.5 -25.62,4.5l0,4c10.96,0 20.1,-1.58 27.28,-4.86l-1.66,-3.64Zm55.66,5.42l-1.62,-1.18l-2.34,3.18l3.96,0l0,-2Zm51.66,-69.84l2,0l0,-6.06l-3.6,4.88l1.6,1.18Zm0,10.26l-1.62,1.18l3.62,4.94l0,-6.12l-2,0Zm-48.6,-66.42l0,-2l-3.94,0l2.32,3.18l1.62,-1.18Zm15.3,0l1.6,-1.18l-0.6,-0.82l-1,0l0,2Zm40.86,55.44l0.06,2l3.8,-0.12l-2.26,-3.06l-1.6,1.18Zm-5.94,0.18l-1.62,-1.18l-2.42,3.3l4.1,-0.12l-0.06,-2Zm40.86,-55.62l0,-2l-1.02,0l-0.6,0.82l1.62,1.18Zm14.4,0l1.62,1.18l2.32,-3.18l-3.94,0l0,2Zm-48.06,65.52l-2,0l0,6.1l3.6,-4.92l-1.6,-1.18Zm0,-9.36l1.6,-1.18l-3.6,-4.9l0,6.08l2,0Zm51.48,69.84l0,2l3.96,0l-2.36,-3.18l-1.6,1.18Zm-15.48,0l-1.62,1.18l0.6,0.82l1.02,0l0,-2Zm-43.56,-59.22l0,-2l-3.96,0l2.34,3.18l1.62,-1.18Zm5.58,0l1.62,1.18l2.32,-3.18l-3.94,0l0,2Zm-43.2,59.22l0,2l1.02,0l0.6,-0.82l-1.62,-1.18Zm-13.7,1.18l51.66,-69.84l-3.2,-2.36l-51.68,69.84l3.22,2.36Zm48.06,-71.02l0,10.26l4,0l0,-10.26l-4,0Zm3.62,9.08l-48.6,-66.42l-3.24,2.36l48.6,66.42l3.24,-2.36Zm-50.22,-63.24l15.3,0l0,-4l-15.3,0l0,4Zm13.68,-0.82l40.86,55.44l3.22,-2.36l-40.86,-55.44l-3.22,2.36Zm42.42,52.26l-5.94,0.18l0.12,4l5.94,-0.18l-0.12,-4Zm-4.28,3.36l40.86,-55.62l-3.22,-2.36l-40.86,55.62l3.22,2.36Zm39.26,-54.8l14.4,0l0,-4l-14.4,0l0,4Zm12.78,-3.18l-48.06,65.52l3.22,2.36l48.08,-65.52l-3.24,-2.36Zm-44.44,66.7l0,-9.36l-4,0l0,9.36l4,0Zm-3.62,-8.18l51.48,69.84l3.22,-2.36l-51.48,-69.84l-3.22,2.36Zm53.1,66.66l-15.48,0l0,4l15.48,0l0,-4Zm-13.88,0.82l-43.56,-59.22l-3.22,2.36l43.56,59.22l3.22,-2.36Zm-45.16,-56.04l5.58,0l0,-4l-5.58,0l0,4Zm3.96,-3.18l-43.2,59.22l3.24,2.36l43.2,-59.22l-3.24,-2.36Zm-41.58,58.4l-15.3,0l0,4l15.3,0l0,-4Z" style="fill-rule:nonzero;"/>
            <path id="svg_7" d="M462.713,391.947c-7.66,0 -14.38,-1.58 -20.16,-4.76c-5.78,-3.26 -10.32,-7.7 -13.58,-13.3c-3.26,-5.7 -4.9,-12.18 -4.9,-19.46c0,-7.28 1.54,-13.72 4.62,-19.32c3.18,-5.6 7.46,-9.98 12.88,-13.16c5.5,-3.26 11.66,-4.9 18.48,-4.9c6.9,0 13.02,1.58 18.34,4.76c5.42,3.08 9.66,7.46 12.74,13.16c3.08,5.6 4.62,12.08 4.62,19.46c0,0.46 -0.04,0.98 -0.14,1.54l0,1.54l-63.98,0l0,-7.42l58.66,0l-3.92,2.94c0,-5.32 -1.16,-10.04 -3.5,-14.14c-2.24,-4.2 -5.32,-7.46 -9.24,-9.8c-3.92,-2.34 -8.44,-3.5 -13.58,-3.5c-5.04,0 -9.56,1.16 -13.58,3.5c-4.02,2.34 -7.14,5.6 -9.38,9.8c-2.24,4.2 -3.36,9 -3.36,14.42l0,1.54c0,5.6 1.22,10.54 3.64,14.84c2.52,4.2 5.98,7.52 10.36,9.94c4.48,2.34 9.56,3.5 15.26,3.5c4.48,0 8.64,-0.8 12.46,-2.38c3.92,-1.58 7.28,-4.02 10.08,-7.28l5.6,6.44c-3.26,3.92 -7.38,6.9 -12.32,8.96c-4.86,2.06 -10.22,3.08 -16.1,3.08Zm145.12,-74.9c5.96,0 11.14,1.16 15.54,3.5c4.48,2.24 7.92,5.7 10.36,10.36c2.52,4.66 3.78,10.54 3.78,17.64l0,42.7l-9.94,0l0,-41.72c0,-7.74 -1.88,-13.58 -5.6,-17.5c-3.64,-4.02 -8.82,-6.02 -15.54,-6.02c-5.04,0 -9.44,1.08 -13.16,3.22c-3.64,2.06 -6.5,5.08 -8.54,9.1c-1.96,3.92 -2.94,8.68 -2.94,14.28l0,38.64l-9.94,0l0,-41.72c0,-7.74 -1.88,-13.58 -5.6,-17.5c-3.74,-4.02 -8.96,-6.02 -15.68,-6.02c-4.96,0 -9.3,1.08 -13.02,3.22c-3.74,2.06 -6.64,5.08 -8.68,9.1c-1.96,3.92 -2.94,8.68 -2.94,14.28l0,38.64l-9.94,0l0,-73.5l9.52,0l0,19.88l-1.54,-3.5c2.24,-5.32 5.82,-9.48 10.78,-12.46c5.04,-3.08 10.96,-4.62 17.78,-4.62c7.18,0 13.3,1.82 18.34,5.46c5.04,3.54 8.3,8.92 9.8,16.1l-3.92,-1.54c2.14,-5.98 5.92,-10.78 11.34,-14.42c5.5,-3.74 12.08,-5.6 19.74,-5.6Zm102.68,74.2l0,-16.24l-0.42,-2.66l0,-27.16c0,-6.26 -1.76,-11.06 -5.32,-14.42c-3.44,-3.36 -8.62,-5.04 -15.54,-5.04c-4.76,0 -9.28,0.8 -13.58,2.38c-4.28,1.58 -7.92,3.68 -10.92,6.3l-4.48,-7.42c3.74,-3.18 8.22,-5.6 13.44,-7.28c5.24,-1.78 10.74,-2.66 16.52,-2.66c9.52,0 16.86,2.38 21.98,7.14c5.24,4.66 7.84,11.8 7.84,21.42l0,45.64l-9.52,0Zm-25.34,0.7c-5.5,0 -10.3,-0.88 -14.42,-2.66c-4,-1.86 -7.08,-4.38 -9.24,-7.56c-2.14,-3.26 -3.22,-7 -3.22,-11.2c0,-3.82 0.9,-7.28 2.66,-10.36c1.88,-3.18 4.86,-5.7 8.96,-7.56c4.2,-1.96 9.8,-2.94 16.8,-2.94l25.34,0l0,7.42l-25.06,0c-7.08,0 -12.04,1.26 -14.84,3.78c-2.7,2.52 -4.06,5.64 -4.06,9.38c0,4.2 1.64,7.56 4.9,10.08c3.28,2.52 7.84,3.78 13.72,3.78c5.6,0 10.42,-1.26 14.42,-3.78c4.12,-2.62 7.1,-6.34 8.96,-11.2l2.24,6.86c-1.86,4.86 -5.12,8.72 -9.8,11.62c-4.56,2.9 -10.36,4.34 -17.36,4.34Zm61.86,-0.7l0,-73.5l9.94,0l0,73.5l-9.94,0Zm5.04,-89.74c-2.04,0 -3.78,-0.7 -5.18,-2.1c-1.4,-1.4 -2.1,-3.08 -2.1,-5.04c0,-1.96 0.7,-3.6 2.1,-4.9c1.4,-1.4 3.14,-2.1 5.18,-2.1c2.06,0 3.78,0.66 5.18,1.96c1.4,1.3 2.1,2.94 2.1,4.9c0,2.06 -0.7,3.78 -2.1,5.18c-1.3,1.4 -3.02,2.1 -5.18,2.1Zm32.56,89.74l0,-103.88l9.94,0l0,103.88l-9.94,0Z" style="fill-rule:nonzero;"/>
        </g>
        <g id="svg_9">
            <path id="svg_1" d="M277.893,107.247l0,126l251.2,0l0,-126l-16,0l0,110l-219.2,0l0,-110l-16,0Z" style="fill-rule:nonzero;"/>
            <path id="svg_2" d="M277.493,114.107l0,-12l96.62,-49.24l0,19.22l-74.12,35.72l0.6,-1.2l0,3l-0.6,-1.2l74.12,35.72l0,19.2l-96.62,-49.22Z" style="fill-rule:nonzero;"/>
            <path id="svg_3" d="M436.373,7.247l-49.52,184l-16.2,0l49.52,-184l16.2,0Z" style="fill-rule:nonzero;"/>
            <path id="svg_4" d="M529.493,114.107l-96.62,49.22l0,-19.2l74.12,-35.72l-0.6,1.2l0,-3l0.6,1.2l-74.12,-35.72l0,-19.22l96.62,49.24l0,12Z" style="fill-rule:nonzero;"/>
        </g>
    </g>
</svg>
