<?xml version="1.0" encoding="UTF-8" standalone="no"?>
<!DOCTYPE svg PUBLIC "-//W3C//DTD SVG 1.1//EN" "http://www.w3.org/Graphics/SVG/1.1/DTD/svg11.dtd">
<svg width="100%" height="100%" viewBox="0 0 305 64" version="1.1" xmlns="http://www.w3.org/2000/svg" xmlns:xlink="http://www.w3.org/1999/xlink" xml:space="preserve" xmlns:serif="http://www.serif.com/" style="fill-rule:evenodd;clip-rule:evenodd;stroke-linejoin:round;stroke-miterlimit:2;">
    <rect id="Artboard1" x="0" y="0" width="304.681" height="63.995" style="fill:none;"/>
    <g>
        <path d="M7.385,28.434l-0,33.851l67.486,-0l0,-33.851l-4.298,0l-0,29.552l-58.89,0l0,-29.552l-4.298,0Z" style="fill:#cbb457;fill-rule:nonzero;"/>
        <path d="M7.277,30.277l0,-3.226l25.956,-13.225l0,5.161l-19.91,9.596l0.161,-0.322l0,0.806l-0.161,-0.322l19.91,9.596l0,5.161l-25.956,-13.225Z" style="fill:#cbb457;fill-rule:nonzero;"/>
        <path d="M49.96,1.569l-13.301,49.432l-4.353,0l13.301,-49.432l4.353,-0Z" style="fill:#cbb457;fill-rule:nonzero;"/>
        <path d="M74.979,30.277l-25.956,13.225l-0,-5.161l19.91,-9.596l-0.161,0.322l-0,-0.806l0.161,0.322l-19.91,-9.596l-0,-5.161l25.956,13.225l-0,3.226Z" style="fill:#cbb457;fill-rule:nonzero;"/>
        <path d="M97.014,61.5c-1.902,0 -3.691,-0.419 -5.368,-1.257c-1.644,-0.838 -2.966,-2.031 -3.965,-3.578l2.079,-2.418c0.935,1.354 2.015,2.385 3.24,3.095c1.225,0.709 2.579,1.064 4.062,1.064c4.191,-0 6.287,-2.483 6.287,-7.448l-0,-20.503l-12.38,-0l0,-3.095l15.91,-0l0,23.453c0,3.579 -0.838,6.255 -2.515,8.028c-1.644,1.773 -4.094,2.659 -7.35,2.659Zm36.703,0c-2.515,0 -4.933,-0.402 -7.254,-1.208c-2.289,-0.839 -4.062,-1.903 -5.319,-3.192l1.402,-2.757c1.193,1.161 2.789,2.144 4.788,2.95c2.031,0.774 4.158,1.161 6.383,1.161c2.128,-0 3.852,-0.258 5.174,-0.774c1.354,-0.548 2.337,-1.273 2.95,-2.176c0.645,-0.903 0.967,-1.902 0.967,-2.998c0,-1.322 -0.387,-2.386 -1.16,-3.192c-0.742,-0.806 -1.725,-1.434 -2.95,-1.886c-1.225,-0.483 -2.579,-0.902 -4.062,-1.257c-1.483,-0.355 -2.966,-0.725 -4.449,-1.112c-1.483,-0.419 -2.853,-0.967 -4.111,-1.644c-1.225,-0.677 -2.224,-1.564 -2.998,-2.66c-0.741,-1.129 -1.112,-2.595 -1.112,-4.401c-0,-1.676 0.435,-3.208 1.305,-4.594c0.903,-1.418 2.273,-2.547 4.111,-3.385c1.837,-0.87 4.191,-1.306 7.06,-1.306c1.902,0 3.788,0.274 5.658,0.823c1.87,0.515 3.482,1.241 4.836,2.176l-1.209,2.853c-1.451,-0.967 -2.998,-1.677 -4.642,-2.128c-1.612,-0.451 -3.176,-0.677 -4.691,-0.677c-2.031,0 -3.708,0.274 -5.029,0.822c-1.322,0.548 -2.306,1.29 -2.95,2.225c-0.613,0.902 -0.919,1.934 -0.919,3.095c-0,1.321 0.371,2.385 1.112,3.191c0.774,0.806 1.773,1.435 2.998,1.886c1.258,0.451 2.628,0.854 4.111,1.209c1.483,0.355 2.95,0.742 4.4,1.161c1.483,0.419 2.837,0.967 4.062,1.644c1.258,0.645 2.257,1.515 2.999,2.611c0.773,1.096 1.16,2.531 1.16,4.304c0,1.644 -0.451,3.176 -1.354,4.594c-0.902,1.386 -2.289,2.515 -4.159,3.385c-1.837,0.838 -4.207,1.257 -7.108,1.257Zm21.837,-0.29l13.879,-18.763l-0,2.757l-13.057,-17.844l4.11,-0l10.978,14.894l-1.596,0.048l10.977,-14.942l3.869,-0l-12.912,17.602l0,-2.515l13.831,18.763l-4.159,0l-11.703,-15.91l1.499,0l-11.606,15.91l-4.11,0Z" style="fill:#cbb457;fill-rule:nonzero;"/>
        <path d="M91.646,60.243l-0.244,0.479l0.004,0.002l0.24,-0.481Zm-3.965,-3.578l-0.407,-0.351l-0.263,0.305l0.219,0.337l0.451,-0.291Zm2.079,-2.418l0.442,-0.306l-0.395,-0.572l-0.454,0.527l0.407,0.351Zm3.24,3.095l0.269,-0.465l-0.269,0.465Zm10.349,-26.887l0.537,-0l0,-0.538l-0.537,0l-0,0.538Zm-12.38,-0l-0.537,-0l-0,0.537l0.537,-0l0,-0.537Zm0,-3.095l0,-0.538l-0.537,0l-0,0.538l0.537,-0Zm15.91,-0l0.537,-0l0,-0.538l-0.537,0l0,0.538Zm-2.515,31.481l-0.39,-0.369l-0.003,0.003l0.393,0.366Zm-7.35,2.122c-1.82,0 -3.527,-0.4 -5.128,-1.2l-0.48,0.961c1.752,0.876 3.624,1.314 5.608,1.314l-0,-1.075Zm-5.124,-1.199c-1.56,-0.795 -2.81,-1.923 -3.758,-3.391l-0.902,0.583c1.051,1.627 2.444,2.885 4.172,3.766l0.488,-0.958Zm-3.802,-2.749l2.08,-2.418l-0.815,-0.701l-2.079,2.418l0.814,0.701Zm1.23,-2.463c0.973,1.409 2.109,2.5 3.413,3.254l0.538,-0.929c-1.146,-0.664 -2.17,-1.636 -3.067,-2.936l-0.884,0.611Zm3.413,3.254c1.311,0.76 2.759,1.137 4.331,1.137l0,-1.075c-1.393,0 -2.653,-0.332 -3.793,-0.991l-0.538,0.929Zm4.331,1.137c2.205,-0 3.948,-0.657 5.126,-2.053c1.163,-1.377 1.698,-3.387 1.698,-5.932l-1.074,0c-0,2.42 -0.513,4.135 -1.445,5.239c-0.918,1.087 -2.318,1.671 -4.305,1.671l0,1.075Zm6.824,-7.985l0,-20.503l-1.074,-0l-0,20.503l1.074,0Zm-0.537,-21.041l-12.38,0l0,1.075l12.38,-0l-0,-1.075Zm-11.842,0.538l-0,-3.095l-1.075,-0l-0,3.095l1.075,-0Zm-0.538,-2.558l15.91,-0l0,-1.075l-15.91,0l0,1.075Zm15.373,-0.537l-0,23.453l1.074,0l0,-23.453l-1.074,-0Zm-0,23.453c-0,3.505 -0.822,6.024 -2.368,7.659l0.781,0.738c1.807,-1.911 2.661,-4.744 2.661,-8.397l-1.074,0Zm-2.371,7.662c-1.511,1.63 -3.797,2.488 -6.957,2.488l-0,1.075c3.352,-0 5.967,-0.915 7.744,-2.832l-0.787,-0.731Zm22.492,1.817l-0.185,0.504l0.009,0.003l0.176,-0.507Zm-5.319,-3.192l-0.479,-0.244l-0.175,0.343l0.269,0.276l0.385,-0.375Zm1.402,-2.757l0.375,-0.385l-0.523,-0.508l-0.331,0.65l0.479,0.243Zm4.788,2.95l-0.201,0.498l0.009,0.004l0.192,-0.502Zm11.557,0.387l0.195,0.501l0.007,-0.003l-0.202,-0.498Zm2.95,-2.176l-0.437,-0.312l-0.008,0.01l0.445,0.302Zm-0.193,-6.19l-0.396,0.364l0.008,0.008l0.388,-0.372Zm-2.95,-1.886l-0.197,0.5l0.011,0.004l0.186,-0.504Zm-8.511,-2.369l-0.146,0.517l0.01,0.003l0.136,-0.52Zm-4.111,-1.644l-0.26,0.47l0.006,0.003l0.254,-0.473Zm-2.998,-2.66l-0.449,0.295l0.01,0.015l0.439,-0.31Zm0.193,-8.995l-0.453,-0.288l-0.002,0.002l0.455,0.286Zm4.111,-3.385l0.223,0.489l0.007,-0.003l-0.23,-0.486Zm12.718,-0.483l-0.151,0.515l0.008,0.003l0.143,-0.518Zm4.836,2.176l0.495,0.209l0.17,-0.403l-0.36,-0.248l-0.305,0.442Zm-1.209,2.853l-0.298,0.447l0.54,0.36l0.253,-0.598l-0.495,-0.209Zm-4.642,-2.128l-0.146,0.517l0.003,0.001l0.143,-0.518Zm-9.72,0.145l-0.206,-0.496l0.206,0.496Zm-2.95,2.225l-0.442,-0.306l-0.003,0.004l0.445,0.302Zm0.193,6.286l-0.395,0.364l0.008,0.008l0.387,-0.372Zm2.998,1.886l-0.186,0.504l0.005,0.002l0.181,-0.506Zm4.111,1.209l-0.125,0.523l0.125,-0.523Zm4.4,1.161l-0.149,0.516l0.003,0.001l0.146,-0.517Zm4.062,1.644l-0.26,0.47l0.015,0.008l0.245,-0.478Zm2.999,2.611l-0.445,0.301l0.006,0.009l0.439,-0.31Zm-0.194,8.898l0.451,0.293l0.003,-0.004l-0.454,-0.289Zm-4.159,3.385l0.223,0.489l0.004,-0.001l-0.227,-0.488Zm-7.108,0.72c-2.456,0 -4.815,-0.393 -7.078,-1.179l-0.352,1.015c2.379,0.826 4.857,1.239 7.43,1.239l-0,-1.075Zm-7.069,-1.176c-2.239,-0.82 -3.935,-1.847 -5.12,-3.062l-0.769,0.75c1.329,1.364 3.18,2.465 5.519,3.321l0.37,-1.009Zm-5.026,-2.444l1.403,-2.756l-0.958,-0.487l-1.402,2.756l0.957,0.487Zm0.55,-2.614c1.255,1.221 2.915,2.238 4.961,3.062l0.401,-0.996c-1.952,-0.787 -3.483,-1.737 -4.613,-2.837l-0.749,0.771Zm4.97,3.066c2.094,0.798 4.286,1.196 6.575,1.196l-0,-1.074c-2.161,-0 -4.223,-0.376 -6.192,-1.126l-0.383,1.004Zm6.575,1.196c2.164,0 3.962,-0.261 5.369,-0.81l-0.39,-1.002c-1.237,0.483 -2.888,0.738 -4.979,0.738l-0,1.074Zm5.376,-0.813c1.42,-0.575 2.503,-1.356 3.192,-2.372l-0.889,-0.604c-0.535,0.79 -1.418,1.459 -2.706,1.98l0.403,0.996Zm3.185,-2.362c0.709,-0.992 1.067,-2.101 1.067,-3.31l-1.074,-0c-0,0.983 -0.287,1.873 -0.867,2.686l0.874,0.624Zm1.067,-3.31c0,-1.434 -0.423,-2.64 -1.31,-3.564l-0.775,0.744c0.661,0.688 1.011,1.61 1.011,2.82l1.074,-0Zm-1.302,-3.556c-0.809,-0.879 -1.87,-1.551 -3.159,-2.026l-0.372,1.008c1.16,0.428 2.066,1.014 2.74,1.746l0.791,-0.728Zm-3.148,-2.022c-1.252,-0.494 -2.631,-0.92 -4.135,-1.28l-0.25,1.046c1.462,0.349 2.792,0.761 3.991,1.234l0.394,-1Zm-4.135,-1.28c-1.479,-0.353 -2.958,-0.723 -4.438,-1.109l-0.271,1.04c1.486,0.387 2.973,0.759 4.459,1.115l0.25,-1.046Zm-4.427,-1.106c-1.448,-0.41 -2.782,-0.944 -4.002,-1.601l-0.509,0.947c1.294,0.697 2.701,1.259 4.219,1.688l0.292,-1.034Zm-3.997,-1.598c-1.157,-0.639 -2.094,-1.472 -2.819,-2.499l-0.878,0.62c0.823,1.165 1.884,2.105 3.177,2.82l0.52,-0.941Zm-2.809,-2.484c-0.668,-1.016 -1.024,-2.371 -1.024,-4.106l-1.075,0c0,1.876 0.385,3.455 1.201,4.696l0.898,-0.59Zm-1.024,-4.106c0,-1.578 0.408,-3.01 1.224,-4.308l-0.911,-0.572c-0.925,1.475 -1.388,3.105 -1.388,4.88l1.075,0Zm1.222,-4.305c0.836,-1.315 2.117,-2.381 3.88,-3.185l-0.446,-0.978c-1.913,0.873 -3.372,2.063 -4.341,3.586l0.907,0.577Zm3.887,-3.188c1.742,-0.826 4.01,-1.254 6.83,-1.254l0,-1.075c-2.918,0 -5.357,0.442 -7.29,1.358l0.46,0.971Zm6.83,-1.254c1.85,-0 3.685,0.266 5.507,0.8l0.302,-1.031c-1.918,-0.562 -3.855,-0.844 -5.809,-0.844l0,1.075Zm5.515,0.803c1.822,0.502 3.377,1.205 4.674,2.1l0.61,-0.884c-1.411,-0.975 -3.08,-1.723 -4.998,-2.252l-0.286,1.036Zm4.484,1.448l-1.209,2.853l0.99,0.419l1.209,-2.853l-0.99,-0.419Zm-0.416,2.616c-1.497,-0.999 -3.097,-1.732 -4.798,-2.199l-0.285,1.036c1.588,0.436 3.083,1.121 4.487,2.057l0.596,-0.894Zm-4.795,-2.198c-1.655,-0.464 -3.267,-0.697 -4.836,-0.697l-0,1.074c1.461,0 2.976,0.218 4.545,0.657l0.291,-1.034Zm-4.836,-0.697c-2.075,-0 -3.827,0.279 -5.235,0.863l0.411,0.992c1.236,-0.512 2.836,-0.781 4.824,-0.781l-0,-1.074Zm-5.235,0.863c-1.393,0.577 -2.47,1.376 -3.186,2.416l0.884,0.61c0.572,-0.83 1.462,-1.515 2.713,-2.034l-0.411,-0.992Zm-3.189,2.419c-0.677,0.997 -1.011,2.136 -1.011,3.397l1.074,-0c0,-1.061 0.278,-1.986 0.826,-2.794l-0.889,-0.603Zm-1.011,3.397c-0,1.427 0.403,2.63 1.254,3.555l0.791,-0.728c-0.633,-0.687 -0.971,-1.611 -0.971,-2.827l-1.074,-0Zm1.262,3.563c0.838,0.874 1.911,1.544 3.199,2.018l0.372,-1.008c-1.161,-0.428 -2.088,-1.016 -2.796,-1.754l-0.775,0.744Zm3.204,2.02c1.278,0.459 2.668,0.867 4.167,1.226l0.249,-1.046c-1.466,-0.35 -2.817,-0.748 -4.053,-1.192l-0.363,1.012Zm4.167,1.226c1.475,0.352 2.933,0.737 4.376,1.154l0.298,-1.033c-1.459,-0.421 -2.933,-0.81 -4.425,-1.167l-0.249,1.046Zm4.379,1.155c1.448,0.409 2.763,0.942 3.948,1.597l0.521,-0.94c-1.265,-0.699 -2.658,-1.262 -4.176,-1.691l-0.293,1.034Zm3.963,1.605c1.183,0.606 2.111,1.418 2.799,2.434l0.89,-0.602c-0.796,-1.176 -1.866,-2.105 -3.198,-2.788l-0.491,0.956Zm2.805,2.443c0.692,0.98 1.062,2.297 1.062,3.994l1.075,0c-0,-1.849 -0.404,-3.402 -1.259,-4.614l-0.878,0.62Zm1.062,3.994c-0,1.54 -0.421,2.971 -1.27,4.306l0.907,0.577c0.956,-1.503 1.438,-3.134 1.438,-4.883l-1.075,0Zm-1.267,4.301c-0.836,1.283 -2.134,2.353 -3.935,3.191l0.453,0.975c1.939,-0.903 3.413,-2.091 4.383,-3.58l-0.901,-0.586Zm-3.932,3.189c-1.744,0.796 -4.029,1.209 -6.885,1.209l-0,1.075c2.947,-0 5.4,-0.425 7.331,-1.306l-0.446,-0.978Zm14.952,1.456l-0.432,-0.319l-0.634,0.857l1.066,-0l-0,-0.538Zm13.879,-18.763l0.537,0l-0,-1.63l-0.969,1.311l0.432,0.319Zm-0,2.757l-0.435,0.317l0.972,1.327l-0,-1.644l-0.537,-0Zm-13.057,-17.844l-0,-0.538l-1.059,0l0.625,0.855l0.434,-0.317Zm4.11,-0l0.433,-0.319l-0.161,-0.219l-0.272,0l0,0.538Zm10.978,14.894l0.016,0.537l1.024,-0.031l-0.608,-0.825l-0.432,0.319Zm-1.596,0.048l-0.433,-0.318l-0.653,0.889l1.102,-0.034l-0.016,-0.537Zm10.977,-14.942l0,-0.538l-0.272,0l-0.161,0.22l0.433,0.318Zm3.869,-0l0.433,0.317l0.627,-0.855l-1.06,0l-0,0.538Zm-12.912,17.602l-0.537,-0l-0,1.641l0.97,-1.323l-0.433,-0.318Zm0,-2.515l0.432,-0.318l-0.969,-1.316l-0,1.634l0.537,0Zm13.831,18.763l-0,0.538l1.063,-0l-0.631,-0.856l-0.432,0.318Zm-4.159,0l-0.433,0.319l0.161,0.219l0.272,-0l-0,-0.538Zm-11.703,-15.91l0,-0.537l-1.062,0l0.629,0.856l0.433,-0.319Zm1.499,0l0.434,0.317l0.623,-0.854l-1.057,0l0,0.537Zm-11.606,15.91l0,0.538l0.273,-0l0.161,-0.221l-0.434,-0.317Zm-3.679,0.32l13.879,-18.763l-0.863,-0.639l-13.879,18.763l0.863,0.639Zm12.91,-19.083l0,2.757l1.075,-0l-0,-2.757l-1.075,0Zm0.971,2.439l-13.057,-17.844l-0.867,0.635l13.056,17.844l0.868,-0.635Zm-13.49,-16.989l4.11,-0l0,-1.075l-4.11,0l-0,1.075Zm3.678,-0.219l10.977,14.895l0.865,-0.638l-10.977,-14.894l-0.865,0.637Zm11.393,14.039l-1.596,0.048l0.033,1.074l1.596,-0.048l-0.033,-1.074Zm-1.147,0.903l10.978,-14.942l-0.866,-0.636l-10.977,14.942l0.865,0.636Zm10.545,-14.723l3.869,-0l-0,-1.075l-3.869,0l0,1.075Zm3.435,-0.855l-12.911,17.602l0.866,0.636l12.912,-17.603l-0.867,-0.635Zm-11.941,17.92l0,-2.515l-1.074,0l-0,2.515l1.074,-0Zm-0.969,-2.196l13.83,18.763l0.865,-0.637l-13.831,-18.763l-0.864,0.637Zm14.263,17.907l-4.159,0l-0,1.075l4.159,-0l-0,-1.075Zm-3.727,0.219l-11.702,-15.91l-0.866,0.637l11.703,15.91l0.865,-0.637Zm-12.135,-15.054l1.499,-0l0,-1.075l-1.499,0l0,1.075Zm1.065,-0.854l-11.606,15.91l0.868,0.633l11.606,-15.91l-0.868,-0.633Zm-11.172,15.689l-4.11,0l-0,1.075l4.11,-0l0,-1.075Z" style="fill:#cbb457;fill-rule:nonzero;"/>
        <path d="M207.985,61.398c-2.056,0 -3.861,-0.426 -5.416,-1.278c-1.554,-0.878 -2.771,-2.069 -3.648,-3.574c-0.878,-1.529 -1.317,-3.272 -1.317,-5.228c0,-1.955 0.414,-3.686 1.242,-5.19c0.852,-1.505 2.005,-2.683 3.46,-3.536c1.479,-0.877 3.134,-1.316 4.965,-1.316c1.855,0 3.498,0.426 4.927,1.279c1.454,0.827 2.595,2.006 3.423,3.535c0.827,1.505 1.241,3.247 1.241,5.228c-0,0.126 -0.013,0.264 -0.038,0.414l0,0.414l-17.189,-0l0,-1.994l15.76,0l-1.053,0.79c-0,-1.429 -0.313,-2.695 -0.941,-3.799c-0.601,-1.128 -1.429,-2.005 -2.482,-2.632c-1.053,-0.627 -2.269,-0.941 -3.648,-0.941c-1.354,0 -2.57,0.314 -3.649,0.941c-1.078,0.627 -1.918,1.504 -2.52,2.632c-0.601,1.129 -0.902,2.42 -0.902,3.875l-0,0.413c-0,1.505 0.326,2.834 0.978,3.987c0.677,1.128 1.605,2.019 2.783,2.671c1.203,0.627 2.57,0.94 4.1,0.94c1.203,-0 2.319,-0.213 3.347,-0.64c1.053,-0.426 1.956,-1.078 2.708,-1.955l1.505,1.73c-0.878,1.053 -1.982,1.855 -3.31,2.407c-1.304,0.552 -2.746,0.827 -4.326,0.827Zm38.986,-20.122c1.605,0 2.996,0.313 4.175,0.94c1.203,0.602 2.131,1.53 2.783,2.784c0.677,1.253 1.015,2.833 1.015,4.739l0,11.471l-2.67,0l-0,-11.208c-0,-2.081 -0.501,-3.648 -1.505,-4.702c-0.977,-1.078 -2.369,-1.617 -4.174,-1.617c-1.354,0 -2.533,0.289 -3.536,0.865c-0.978,0.552 -1.742,1.367 -2.294,2.445c-0.527,1.053 -0.79,2.332 -0.79,3.836l-0,10.381l-2.671,0l0,-11.208c0,-2.081 -0.501,-3.648 -1.504,-4.702c-1.003,-1.078 -2.407,-1.617 -4.213,-1.617c-1.328,0 -2.494,0.289 -3.498,0.865c-1.003,0.552 -1.78,1.367 -2.331,2.445c-0.527,1.053 -0.79,2.332 -0.79,3.836l-0,10.381l-2.671,0l0,-19.746l2.558,0l-0,5.341l-0.414,-0.94c0.602,-1.43 1.567,-2.545 2.896,-3.348c1.354,-0.827 2.946,-1.241 4.777,-1.241c1.931,0 3.573,0.489 4.927,1.467c1.354,0.953 2.232,2.395 2.633,4.325l-1.053,-0.413c0.576,-1.605 1.592,-2.897 3.046,-3.875c1.48,-1.003 3.247,-1.504 5.304,-1.504Zm27.59,19.934l-0,-4.363l-0.113,-0.714l-0,-7.297c-0,-1.68 -0.476,-2.971 -1.429,-3.874c-0.928,-0.903 -2.32,-1.354 -4.175,-1.354c-1.279,-0 -2.495,0.213 -3.649,0.639c-1.153,0.427 -2.131,0.991 -2.933,1.693l-1.204,-1.994c1.003,-0.852 2.207,-1.504 3.611,-1.955c1.404,-0.477 2.883,-0.715 4.438,-0.715c2.558,0 4.526,0.639 5.905,1.918c1.405,1.254 2.106,3.172 2.106,5.755l0,12.261l-2.557,0Zm-6.808,0.188c-1.479,0 -2.771,-0.238 -3.874,-0.714c-1.078,-0.502 -1.905,-1.179 -2.483,-2.031c-0.576,-0.878 -0.865,-1.881 -0.865,-3.009c0,-1.028 0.239,-1.956 0.715,-2.784c0.502,-0.852 1.304,-1.529 2.407,-2.031c1.129,-0.526 2.633,-0.789 4.514,-0.789l6.807,-0l0,1.993l-6.732,0c-1.905,0 -3.235,0.339 -3.987,1.016c-0.727,0.677 -1.091,1.517 -1.091,2.52c0,1.128 0.439,2.031 1.317,2.708c0.878,0.677 2.106,1.015 3.686,1.015c1.504,0 2.796,-0.338 3.874,-1.015c1.103,-0.703 1.905,-1.705 2.407,-3.009l0.602,1.843c-0.502,1.304 -1.379,2.344 -2.633,3.121c-1.229,0.778 -2.784,1.166 -4.664,1.166Zm16.618,-0.188l0,-19.746l2.671,0l-0,19.746l-2.671,0Zm1.354,-24.109c-0.551,0 -1.015,-0.188 -1.391,-0.564c-0.376,-0.376 -0.564,-0.828 -0.564,-1.354c-0,-0.527 0.188,-0.966 0.564,-1.317c0.376,-0.376 0.84,-0.564 1.391,-0.564c0.552,0 1.016,0.176 1.392,0.527c0.376,0.351 0.564,0.79 0.564,1.316c0,0.552 -0.188,1.016 -0.564,1.392c-0.351,0.376 -0.814,0.564 -1.392,0.564Zm8.747,24.109l0,-27.908l2.671,0l-0,27.908l-2.671,0Z" style="fill:#cbb457;fill-rule:nonzero;"/>
    </g>
</svg>
