<svg width="391" height="194" xmlns="http://www.w3.org/2000/svg" xmlns:svg="http://www.w3.org/2000/svg">
  <g class="layer">
    <title>Layer 1</title>
    <g id="svg_8">
      <path d="m18.62,192.54c-3.54,0 -6.87,-0.78 -9.99,-2.34c-3.06,-1.56 -5.52,-3.78 -7.38,-6.66l3.87,-4.5c1.74,2.52 3.75,4.44 6.03,5.76c2.28,1.32 4.8,1.98 7.56,1.98c7.8,0 11.7,-4.62 11.7,-13.86l0,-38.16l-23.04,0l0,-5.76l29.61,0l0,43.65c0,6.66 -1.56,11.64 -4.68,14.94c-3.06,3.3 -7.62,4.95 -13.68,4.95zm68.31,0c-4.68,0 -9.18,-0.75 -13.5,-2.25c-4.26,-1.56 -7.56,-3.54 -9.9,-5.94l2.61,-5.13c2.22,2.16 5.19,3.99 8.91,5.49c3.78,1.44 7.74,2.16 11.88,2.16c3.96,0 7.17,-0.48 9.63,-1.44c2.52,-1.02 4.35,-2.37 5.49,-4.05c1.2,-1.68 1.8,-3.54 1.8,-5.58c0,-2.46 -0.72,-4.44 -2.16,-5.94c-1.38,-1.5 -3.21,-2.67 -5.49,-3.51c-2.28,-0.9 -4.8,-1.68 -7.56,-2.34c-2.76,-0.66 -5.52,-1.35 -8.28,-2.07c-2.76,-0.78 -5.31,-1.8 -7.65,-3.06c-2.28,-1.26 -4.14,-2.91 -5.58,-4.95c-1.38,-2.1 -2.07,-4.83 -2.07,-8.19c0,-3.12 0.81,-5.97 2.43,-8.55c1.68,-2.64 4.23,-4.74 7.65,-6.3c3.42,-1.62 7.8,-2.43 13.14,-2.43c3.54,0 7.05,0.51 10.53,1.53c3.48,0.96 6.48,2.31 9,4.05l-2.25,5.31c-2.7,-1.8 -5.58,-3.12 -8.64,-3.96c-3,-0.84 -5.91,-1.26 -8.73,-1.26c-3.78,0 -6.9,0.51 -9.36,1.53c-2.46,1.02 -4.29,2.4 -5.49,4.14c-1.14,1.68 -1.71,3.6 -1.71,5.76c0,2.46 0.69,4.44 2.07,5.94c1.44,1.5 3.3,2.67 5.58,3.51c2.34,0.84 4.89,1.59 7.65,2.25c2.76,0.66 5.49,1.38 8.19,2.16c2.76,0.78 5.28,1.8 7.56,3.06c2.34,1.2 4.2,2.82 5.58,4.86c1.44,2.04 2.16,4.71 2.16,8.01c0,3.06 -0.84,5.91 -2.52,8.55c-1.68,2.58 -4.26,4.68 -7.74,6.3c-3.42,1.56 -7.83,2.34 -13.23,2.34zm40.64,-0.54l25.83,-34.92l0,5.13l-24.3,-33.21l7.65,0l20.43,27.72l-2.97,0.09l20.43,-27.81l7.2,0l-24.03,32.76l0,-4.68l25.74,34.92l-7.74,0l-21.78,-29.61l2.79,0l-21.6,29.61l-7.65,0z" fill="#efdab9" id="svg_5" style="--darkreader-inline-fill: #534126;"/>
      <path d="m8.63,190.2l-0.45,0.89l0,0l0.45,-0.89zm-7.38,-6.66l-0.76,-0.65l-0.49,0.56l0.41,0.63l0.84,-0.54zm3.87,-4.5l0.82,-0.57l-0.73,-1.06l-0.85,0.98l0.76,0.65zm6.03,5.76l0.5,-0.86l0,0l-0.5,0.86zm19.26,-50.04l1,0l0,-1l-1,0l0,1zm-23.04,0l-1,0l0,1l1,0l0,-1zm0,-5.76l0,-1l-1,0l0,1l1,0zm29.61,0l1,0l0,-1l-1,0l0,1zm-4.68,58.59l-0.73,-0.69l0,0.01l0.73,0.68zm-13.68,3.95c-3.39,0 -6.56,-0.74 -9.54,-2.23l-0.9,1.78c3.26,1.63 6.75,2.45 10.44,2.45l0,-2zm-9.54,-2.23c-2.9,-1.48 -5.23,-3.58 -6.99,-6.31l-1.68,1.08c1.96,3.03 4.55,5.37 7.77,7.01l0.9,-1.78zm-7.07,-5.12l3.87,-4.5l-1.52,-1.3l-3.87,4.5l1.52,1.3zm2.29,-4.58c1.81,2.62 3.92,4.65 6.35,6.06l1,-1.73c-2.13,-1.24 -4.04,-3.05 -5.71,-5.47l-1.64,1.14zm6.35,6.06c2.44,1.41 5.13,2.11 8.06,2.11l0,-2c-2.59,0 -4.94,-0.62 -7.06,-1.84l-1,1.73zm8.06,2.11c4.1,0 7.35,-1.22 9.54,-3.82c2.16,-2.56 3.16,-6.3 3.16,-11.04l-2,0c0,4.5 -0.95,7.69 -2.69,9.75c-1.71,2.02 -4.31,3.11 -8.01,3.11l0,2zm12.7,-14.86l0,-38.16l-2,0l0,38.16l2,0zm-1,-39.16l-23.04,0l0,2l23.04,0l0,-2zm-22.04,1l0,-5.76l-2,0l0,5.76l2,0zm-1,-4.76l29.61,0l0,-2l-29.61,0l0,2zm28.61,-1l0,43.65l2,0l0,-43.65l-2,0zm0,43.65c0,6.52 -1.53,11.21 -4.41,14.25l1.46,1.38c3.36,-3.56 4.95,-8.83 4.95,-15.63l-2,0zm-4.41,14.26c-2.81,3.03 -7.07,4.63 -12.95,4.63l0,2c6.24,0 11.11,-1.7 14.41,-5.27l-1.46,-1.36zm41.86,3.38l-0.35,0.94l0.01,0l0.01,0l0.33,-0.94zm-9.9,-5.94l-0.89,-0.45l-0.33,0.63l0.5,0.52l0.72,-0.7zm2.61,-5.13l0.69,-0.72l-0.97,-0.94l-0.61,1.21l0.89,0.45zm8.91,5.49l-0.38,0.93l0.01,0l0.01,0l0.36,-0.93zm21.51,0.72l0.36,0.93l0.01,0l-0.37,-0.93zm5.49,-4.05l-0.82,-0.58l0,0.01l-0.01,0.01l0.83,0.56zm-0.36,-11.52l-0.74,0.68l0.01,0l0.01,0.01l0.72,-0.69zm-5.49,-3.51l-0.37,0.93l0.01,0l0.01,0.01l0.35,-0.94zm-15.84,-4.41l-0.27,0.96l0.01,0.01l0.01,0l0.25,-0.97zm-7.65,-3.06l-0.49,0.88l0.01,0l0.48,-0.88zm-5.58,-4.95l-0.84,0.55l0.01,0.01l0.01,0.02l0.82,-0.58zm0.36,-16.74l-0.85,-0.54l0,0.01l0.85,0.53zm7.65,-6.3l0.41,0.91l0.01,0l0.01,-0.01l-0.43,-0.9zm23.67,-0.9l-0.28,0.96l0,0l0.01,0l0.27,-0.96zm9,4.05l0.92,0.39l0.32,-0.75l-0.67,-0.46l-0.57,0.82zm-2.25,5.31l-0.56,0.83l1.01,0.67l0.47,-1.11l-0.92,-0.39zm-8.64,-3.96l-0.27,0.96l0,0l0.27,-0.96zm-18.09,0.27l-0.38,-0.92l0,0l0.38,0.92zm-5.49,4.14l-0.82,-0.57l-0.01,0.01l0.83,0.56zm0.36,11.7l-0.74,0.68l0.01,0l0.01,0.01l0.72,-0.69zm5.58,3.51l-0.35,0.94l0.01,0l0.34,-0.94zm7.65,2.25l-0.23,0.97l0,0l0.23,-0.97zm8.19,2.16l-0.28,0.96l0.01,0l0.27,-0.96zm7.56,3.06l-0.49,0.88l0.02,0l0.01,0.01l0.46,-0.89zm5.58,4.86l-0.83,0.56l0,0.01l0.01,0.01l0.82,-0.58zm-0.36,16.56l0.84,0.55l0,-0.01l-0.84,-0.54zm-7.74,6.3l0.41,0.91l0.01,0l-0.42,-0.91zm-13.23,1.34c-4.57,0 -8.96,-0.73 -13.17,-2.2l-0.66,1.89c4.43,1.54 9.04,2.31 13.83,2.31l0,-2zm-13.16,-2.19c-4.16,-1.52 -7.32,-3.44 -9.53,-5.7l-1.43,1.4c2.48,2.54 5.92,4.59 10.27,6.18l0.69,-1.88zm-9.35,-4.55l2.61,-5.13l-1.78,-0.9l-2.61,5.13l1.78,0.9zm1.02,-4.86c2.34,2.27 5.43,4.16 9.23,5.7l0.75,-1.86c-3.63,-1.46 -6.48,-3.23 -8.59,-5.28l-1.39,1.44zm9.25,5.7c3.9,1.49 7.98,2.23 12.24,2.23l0,-2c-4.02,0 -7.86,-0.7 -11.53,-2.09l-0.71,1.86zm12.24,2.23c4.03,0 7.37,-0.49 9.99,-1.51l-0.73,-1.86c-2.3,0.9 -5.37,1.37 -9.26,1.37l0,2zm10,-1.51c2.65,-1.07 4.66,-2.53 5.94,-4.42l-1.65,-1.12c-1,1.47 -2.64,2.71 -5.04,3.68l0.75,1.86zm5.93,-4.4c1.32,-1.85 1.99,-3.91 1.99,-6.16l-2,0c0,1.83 -0.53,3.49 -1.62,5l1.63,1.16zm1.99,-6.16c0,-2.67 -0.79,-4.91 -2.44,-6.63l-1.44,1.38c1.23,1.28 1.88,3 1.88,5.25l2,0zm-2.43,-6.62c-1.5,-1.63 -3.48,-2.88 -5.88,-3.77l-0.69,1.88c2.16,0.79 3.85,1.88 5.1,3.25l1.47,-1.36zm-5.85,-3.76c-2.33,-0.92 -4.9,-1.71 -7.7,-2.38l-0.47,1.94c2.73,0.65 5.2,1.42 7.43,2.3l0.74,-1.86zm-7.7,-2.38c-2.75,-0.66 -5.51,-1.35 -8.26,-2.07l-0.5,1.94c2.76,0.72 5.53,1.41 8.29,2.07l0.47,-1.94zm-8.24,-2.06c-2.7,-0.76 -5.18,-1.76 -7.45,-2.98l-0.95,1.76c2.41,1.3 5.03,2.34 7.86,3.14l0.54,-1.92zm-7.44,-2.98c-2.15,-1.19 -3.9,-2.74 -5.24,-4.65l-1.64,1.16c1.53,2.17 3.51,3.92 5.91,5.25l0.97,-1.76zm-5.23,-4.62c-1.24,-1.89 -1.9,-4.41 -1.9,-7.64l-2,0c0,3.49 0.71,6.43 2.23,8.74l1.67,-1.1zm-1.9,-7.64c0,-2.94 0.76,-5.6 2.27,-8.02l-1.69,-1.06c-1.72,2.74 -2.58,5.78 -2.58,9.08l2,0zm2.27,-8.01c1.56,-2.45 3.94,-4.43 7.22,-5.93l-0.83,-1.82c-3.56,1.62 -6.27,3.84 -8.08,6.67l1.69,1.08zm7.24,-5.94c3.24,-1.53 7.46,-2.33 12.71,-2.33l0,-2c-5.43,0 -9.97,0.82 -13.57,2.53l0.86,1.8zm12.71,-2.33c3.44,0 6.86,0.5 10.25,1.49l0.56,-1.92c-3.57,-1.05 -7.17,-1.57 -10.81,-1.57l0,2zm10.26,1.49c3.39,0.94 6.29,2.25 8.7,3.91l1.14,-1.64c-2.63,-1.82 -5.74,-3.21 -9.31,-4.19l-0.53,1.92zm8.35,2.7l-2.25,5.31l1.84,0.78l2.25,-5.31l-1.84,-0.78zm-0.78,4.87c-2.78,-1.86 -5.76,-3.23 -8.93,-4.09l-0.53,1.92c2.96,0.82 5.74,2.09 8.35,3.83l1.11,-1.66zm-8.92,-4.09c-3.08,-0.87 -6.08,-1.3 -9,-1.3l0,2c2.72,0 5.54,0.4 8.46,1.22l0.54,-1.92zm-9,-1.3c-3.86,0 -7.12,0.52 -9.74,1.61l0.76,1.84c2.3,-0.95 5.28,-1.45 8.98,-1.45l0,-2zm-9.74,1.61c-2.6,1.07 -4.6,2.56 -5.93,4.49l1.64,1.14c1.07,-1.55 2.72,-2.82 5.05,-3.79l-0.76,-1.84zm-5.94,4.5c-1.26,1.85 -1.88,3.97 -1.88,6.32l2,0c0,-1.97 0.51,-3.69 1.54,-5.2l-1.66,-1.12zm-1.88,6.32c0,2.66 0.75,4.9 2.33,6.62l1.47,-1.36c-1.17,-1.28 -1.8,-3 -1.8,-5.26l-2,0zm2.35,6.63c1.56,1.63 3.55,2.87 5.95,3.76l0.69,-1.88c-2.16,-0.79 -3.88,-1.89 -5.2,-3.26l-1.44,1.38zm5.96,3.76c2.38,0.86 4.96,1.62 7.76,2.28l0.46,-1.94c-2.73,-0.66 -5.24,-1.4 -7.54,-2.22l-0.68,1.88zm7.76,2.28c2.74,0.66 5.45,1.38 8.14,2.15l0.55,-1.92c-2.71,-0.79 -5.46,-1.51 -8.23,-2.17l-0.46,1.94zm8.15,2.15c2.69,0.76 5.14,1.76 7.34,2.98l0.97,-1.76c-2.35,-1.3 -4.94,-2.34 -7.77,-3.14l-0.54,1.92zm7.37,2.99c2.2,1.13 3.93,2.64 5.21,4.53l1.66,-1.12c-1.48,-2.19 -3.48,-3.92 -5.96,-5.19l-0.91,1.78zm5.22,4.55c1.29,1.82 1.98,4.27 1.98,7.43l2,0c0,-3.44 -0.75,-6.33 -2.35,-8.59l-1.63,1.16zm1.98,7.43c0,2.87 -0.79,5.53 -2.37,8.01l1.69,1.08c1.78,-2.8 2.68,-5.84 2.68,-9.09l-2,0zm-2.36,8c-1.55,2.39 -3.97,4.38 -7.32,5.94l0.84,1.82c3.61,-1.68 6.35,-3.89 8.16,-6.66l-1.68,-1.1zm-7.32,5.94c-3.24,1.48 -7.5,2.25 -12.81,2.25l0,2c5.48,0 10.05,-0.79 13.64,-2.43l-0.83,-1.82zm27.83,2.71l-0.81,-0.59l-1.17,1.59l1.98,0l0,-1zm25.83,-34.92l1,0l0,-3.03l-1.8,2.44l0.8,0.59zm0,5.13l-0.81,0.59l1.81,2.47l0,-3.06l-1,0zm-24.3,-33.21l0,-1l-1.97,0l1.16,1.59l0.81,-0.59zm7.65,0l0.8,-0.59l-0.3,-0.41l-0.5,0l0,1zm20.43,27.72l0.03,1l1.9,-0.06l-1.13,-1.53l-0.8,0.59zm-2.97,0.09l-0.81,-0.59l-1.21,1.65l2.05,-0.06l-0.03,-1zm20.43,-27.81l0,-1l-0.51,0l-0.3,0.41l0.81,0.59zm7.2,0l0.81,0.59l1.16,-1.59l-1.97,0l0,1zm-24.03,32.76l-1,0l0,3.05l1.8,-2.46l-0.8,-0.59zm0,-4.68l0.8,-0.59l-1.8,-2.45l0,3.04l1,0zm25.74,34.92l0,1l1.98,0l-1.18,-1.59l-0.8,0.59zm-7.74,0l-0.81,0.59l0.3,0.41l0.51,0l0,-1zm-21.78,-29.61l0,-1l-1.98,0l1.17,1.59l0.81,-0.59zm2.79,0l0.81,0.59l1.16,-1.59l-1.97,0l0,1zm-21.6,29.61l0,1l0.51,0l0.3,-0.41l-0.81,-0.59zm-6.85,0.59l25.83,-34.92l-1.6,-1.18l-25.84,34.92l1.61,1.18zm24.03,-35.51l0,5.13l2,0l0,-5.13l-2,0zm1.81,4.54l-24.3,-33.21l-1.62,1.18l24.3,33.21l1.62,-1.18zm-25.11,-31.62l7.65,0l0,-2l-7.65,0l0,2zm6.84,-0.41l20.43,27.72l1.61,-1.18l-20.43,-27.72l-1.61,1.18zm21.21,26.13l-2.97,0.09l0.06,2l2.97,-0.09l-0.06,-2zm-2.14,1.68l20.43,-27.81l-1.61,-1.18l-20.43,27.81l1.61,1.18zm19.63,-27.4l7.2,0l0,-2l-7.2,0l0,2zm6.39,-1.59l-24.03,32.76l1.61,1.18l24.04,-32.76l-1.62,-1.18zm-22.22,33.35l0,-4.68l-2,0l0,4.68l2,0zm-1.81,-4.09l25.74,34.92l1.61,-1.18l-25.74,-34.92l-1.61,1.18zm26.55,33.33l-7.74,0l0,2l7.74,0l0,-2zm-6.94,0.41l-21.78,-29.61l-1.61,1.18l21.78,29.61l1.61,-1.18zm-22.58,-28.02l2.79,0l0,-2l-2.79,0l0,2zm1.98,-1.59l-21.6,29.61l1.62,1.18l21.6,-29.61l-1.62,-1.18zm-20.79,29.2l-7.65,0l0,2l7.65,0l0,-2z" fill="#efdab9" id="svg_6" style="--darkreader-inline-fill: #534126;"/>
      <path d="m225.15,192.35c-3.83,0 -7.19,-0.79 -10.08,-2.38c-2.89,-1.63 -5.16,-3.85 -6.79,-6.65c-1.63,-2.85 -2.45,-6.09 -2.45,-9.73c0,-3.64 0.77,-6.86 2.31,-9.66c1.59,-2.8 3.73,-4.99 6.44,-6.58c2.75,-1.63 5.83,-2.45 9.24,-2.45c3.45,0 6.51,0.79 9.17,2.38c2.71,1.54 4.83,3.73 6.37,6.58c1.54,2.8 2.31,6.04 2.31,9.73c0,0.23 -0.02,0.49 -0.07,0.77c0,0.23 0,0.49 0,0.77l-31.99,0l0,-3.71l29.33,0l-1.96,1.47c0,-2.66 -0.58,-5.02 -1.75,-7.07c-1.12,-2.1 -2.66,-3.73 -4.62,-4.9c-1.96,-1.17 -4.22,-1.75 -6.79,-1.75c-2.52,0 -4.78,0.58 -6.79,1.75c-2.01,1.17 -3.57,2.8 -4.69,4.9c-1.12,2.1 -1.68,4.5 -1.68,7.21l0,0.77c0,2.8 0.61,5.27 1.82,7.42c1.26,2.1 2.99,3.76 5.18,4.97c2.24,1.17 4.78,1.75 7.63,1.75c2.24,0 4.32,-0.4 6.23,-1.19c1.96,-0.79 3.64,-2.01 5.04,-3.64l2.8,3.22c-1.63,1.96 -3.69,3.45 -6.16,4.48c-2.43,1.03 -5.11,1.54 -8.05,1.54zm72.56,-37.45c2.98,0 5.57,0.58 7.77,1.75c2.24,1.12 3.96,2.85 5.18,5.18c1.26,2.33 1.89,5.27 1.89,8.82l0,21.35l-4.97,0l0,-20.86c0,-3.87 -0.94,-6.79 -2.8,-8.75c-1.82,-2.01 -4.41,-3.01 -7.77,-3.01c-2.52,0 -4.72,0.54 -6.58,1.61c-1.82,1.03 -3.25,2.54 -4.27,4.55c-0.98,1.96 -1.47,4.34 -1.47,7.14l0,19.32l-4.97,0l0,-20.86c0,-3.87 -0.94,-6.79 -2.8,-8.75c-1.87,-2.01 -4.48,-3.01 -7.84,-3.01c-2.48,0 -4.65,0.54 -6.51,1.61c-1.87,1.03 -3.32,2.54 -4.34,4.55c-0.98,1.96 -1.47,4.34 -1.47,7.14l0,19.32l-4.97,0l0,-36.75l4.76,0l0,9.94l-0.77,-1.75c1.12,-2.66 2.91,-4.74 5.39,-6.23c2.52,-1.54 5.48,-2.31 8.89,-2.31c3.59,0 6.65,0.91 9.17,2.73c2.52,1.77 4.15,4.46 4.9,8.05l-1.96,-0.77c1.07,-2.99 2.96,-5.39 5.67,-7.21c2.75,-1.87 6.04,-2.8 9.87,-2.8zm51.34,37.1l0,-8.12l-0.21,-1.33l0,-13.58c0,-3.13 -0.88,-5.53 -2.66,-7.21c-1.72,-1.68 -4.31,-2.52 -7.77,-2.52c-2.38,0 -4.64,0.4 -6.79,1.19c-2.14,0.79 -3.96,1.84 -5.46,3.15l-2.24,-3.71c1.87,-1.59 4.11,-2.8 6.72,-3.64c2.62,-0.89 5.37,-1.33 8.26,-1.33c4.76,0 8.43,1.19 10.99,3.57c2.62,2.33 3.92,5.9 3.92,10.71l0,22.82l-4.76,0zm-12.67,0.35c-2.75,0 -5.15,-0.44 -7.21,-1.33c-2,-0.93 -3.54,-2.19 -4.62,-3.78c-1.07,-1.63 -1.61,-3.5 -1.61,-5.6c0,-1.91 0.45,-3.64 1.33,-5.18c0.94,-1.59 2.43,-2.85 4.48,-3.78c2.1,-0.98 4.9,-1.47 8.4,-1.47l12.67,0l0,3.71l-12.53,0c-3.54,0 -6.02,0.63 -7.42,1.89c-1.35,1.26 -2.03,2.82 -2.03,4.69c0,2.1 0.82,3.78 2.45,5.04c1.64,1.26 3.92,1.89 6.86,1.89c2.8,0 5.21,-0.63 7.21,-1.89c2.06,-1.31 3.55,-3.17 4.48,-5.6l1.12,3.43c-0.93,2.43 -2.56,4.36 -4.9,5.81c-2.28,1.45 -5.18,2.17 -8.68,2.17zm30.93,-0.35l0,-36.75l4.97,0l0,36.75l-4.97,0zm2.52,-44.87c-1.02,0 -1.89,-0.35 -2.59,-1.05c-0.7,-0.7 -1.05,-1.54 -1.05,-2.52c0,-0.98 0.35,-1.8 1.05,-2.45c0.7,-0.7 1.57,-1.05 2.59,-1.05c1.03,0 1.89,0.33 2.59,0.98c0.7,0.65 1.05,1.47 1.05,2.45c0,1.03 -0.35,1.89 -1.05,2.59c-0.65,0.7 -1.51,1.05 -2.59,1.05zm16.28,44.87l0,-51.94l4.97,0l0,51.94l-4.97,0z" fill="#efdab9" id="svg_7" style="--darkreader-inline-fill: #534126;"/>
    </g>
    <g id="svg_9">
      <path d="m132.74,50l0,59l0,4l4,0l117.6,0l4,0l0,-4l0,-59l-8,0l0,55l-109.6,0l0,-55l-8,0z" fill="#efdab9" id="svg_1" style="--darkreader-inline-fill: #534126;"/>
      <path d="m132.54,53.43l0,-6l48.31,-24.62l0,9.61l-37.06,17.86l0.3,-0.6l0,1.5l-0.3,-0.6l37.06,17.86l0,9.6l-48.31,-24.61z" fill="#efdab9" id="svg_2" style="--darkreader-inline-fill: #534126;"/>
      <path d="m211.98,0l-24.76,92l-8.1,0l24.76,-92l8.1,0z" fill="#efdab9" id="svg_3" style="--darkreader-inline-fill: #534126;"/>
      <path d="m258.54,53.43l-48.31,24.61l0,-9.6l37.06,-17.86l-0.3,0.6l0,-1.5l0.3,0.6l-37.06,-17.86l0,-9.61l48.31,24.62l0,6z" fill="#efdab9" id="svg_4" style="--darkreader-inline-fill: #534126;"/>
    </g>
  </g>
</svg>
