<?xml version="1.0" encoding="UTF-8" standalone="no"?>
<!DOCTYPE svg PUBLIC "-//W3C//DTD SVG 1.1//EN" "http://www.w3.org/Graphics/SVG/1.1/DTD/svg11.dtd">
<svg width="100%" height="100%" viewBox="0 0 540 540" version="1.1" xmlns="http://www.w3.org/2000/svg" xmlns:xlink="http://www.w3.org/1999/xlink" xml:space="preserve" xmlns:serif="http://www.serif.com/" style="fill-rule:evenodd;clip-rule:evenodd;stroke-linecap:round;stroke-linejoin:round;stroke-miterlimit:1.5;">
     <style>
        .stop-color {
            stop-color: white;
        }

        @media (prefers-color-scheme: dark) {
            .stop-color {
                stop-color: black;
            }
        }
    </style>
    <rect id="Artboard1" x="0" y="-0" width="540" height="540" style="fill:none;"/>
    <clipPath id="_clip1">
        <rect x="0" y="-0" width="540" height="540"/>
    </clipPath>
    <g clip-path="url(#_clip1)">
        <g>
            <g>
                <path d="M61.171,40.721l22.224,22.223" style="fill:none;stroke:rgb(230,230,230);stroke-width:1px;"/>
                <path d="M53.037,58.248l38.493,-12.831" style="fill:none;stroke:rgb(230,230,230);stroke-width:1px;"/>
            </g>
            <g>
                <path d="M173.209,3.375l22.224,22.223" style="fill:none;stroke:rgb(230,230,230);stroke-width:1px;"/>
                <path d="M165.074,20.902l38.493,-12.831" style="fill:none;stroke:rgb(230,230,230);stroke-width:1px;"/>
            </g>
            <g>
                <path d="M13.818,142.751l22.224,22.224" style="fill:none;stroke:rgb(230,230,230);stroke-width:1px;"/>
                <path d="M5.684,160.279l38.493,-12.831" style="fill:none;stroke:rgb(230,230,230);stroke-width:1px;"/>
            </g>
            <g>
                <path d="M125.856,105.406l22.224,22.223" style="fill:none;stroke:rgb(230,230,230);stroke-width:1px;"/>
                <path d="M117.722,122.933l38.493,-12.831" style="fill:none;stroke:rgb(230,230,230);stroke-width:1px;"/>
            </g>
            <g>
                <path d="M237.894,68.06l22.224,22.223" style="fill:none;stroke:rgb(230,230,230);stroke-width:1px;"/>
                <path d="M229.76,85.587l38.492,-12.831" style="fill:none;stroke:rgb(230,230,230);stroke-width:1px;"/>
            </g>
            <g>
                <path d="M349.932,30.714l22.224,22.224" style="fill:none;stroke:rgb(230,230,230);stroke-width:1px;"/>
                <path d="M341.797,48.241l38.493,-12.831" style="fill:none;stroke:rgb(230,230,230);stroke-width:1px;"/>
            </g>
            <g>
                <path d="M461.97,-6.632l22.224,22.224" style="fill:none;stroke:rgb(230,230,230);stroke-width:1px;"/>
                <path d="M453.835,10.895l38.493,-12.831" style="fill:none;stroke:rgb(230,230,230);stroke-width:1px;"/>
            </g>
            <g>
                <path d="M78.503,207.437l22.224,22.223" style="fill:none;stroke:rgb(230,230,230);stroke-width:1px;"/>
                <path d="M70.369,224.964l38.493,-12.831" style="fill:none;stroke:rgb(230,230,230);stroke-width:1px;"/>
            </g>
            <g>
                <path d="M190.541,170.091l22.224,22.223" style="fill:none;stroke:rgb(230,230,230);stroke-width:1px;"/>
                <path d="M182.407,187.618l38.493,-12.831" style="fill:none;stroke:rgb(230,230,230);stroke-width:1px;"/>
            </g>
            <g>
                <path d="M302.579,132.745l22.224,22.224" style="fill:none;stroke:rgb(230,230,230);stroke-width:1px;"/>
                <path d="M294.445,150.272l38.492,-12.831" style="fill:none;stroke:rgb(230,230,230);stroke-width:1px;"/>
            </g>
            <g>
                <path d="M414.617,95.399l22.224,22.224" style="fill:none;stroke:rgb(230,230,230);stroke-width:1px;"/>
                <path d="M406.482,112.926l38.493,-12.831" style="fill:none;stroke:rgb(230,230,230);stroke-width:1px;"/>
            </g>
            <g>
                <path d="M526.655,58.053l22.224,22.224" style="fill:none;stroke:rgb(230,230,230);stroke-width:1px;"/>
                <path d="M518.52,75.58l38.493,-12.831" style="fill:none;stroke:rgb(230,230,230);stroke-width:1px;"/>
            </g>
            <g>
                <path d="M31.151,309.468l22.224,22.223" style="fill:none;stroke:rgb(230,230,230);stroke-width:1px;"/>
                <path d="M23.016,326.995l38.493,-12.831" style="fill:none;stroke:rgb(230,230,230);stroke-width:1px;"/>
            </g>
            <g>
                <path d="M143.189,272.122l22.223,22.223" style="fill:none;stroke:rgb(230,230,230);stroke-width:1px;"/>
                <path d="M135.054,289.649l38.493,-12.831" style="fill:none;stroke:rgb(230,230,230);stroke-width:1px;"/>
            </g>
            <g>
                <path d="M255.226,234.776l22.224,22.224" style="fill:none;stroke:rgb(230,230,230);stroke-width:1px;"/>
                <path d="M247.092,252.303l38.493,-12.831" style="fill:none;stroke:rgb(230,230,230);stroke-width:1px;"/>
            </g>
            <g>
                <path d="M367.264,197.43l22.224,22.224" style="fill:none;stroke:rgb(230,230,230);stroke-width:1px;"/>
                <path d="M359.13,214.957l38.493,-12.831" style="fill:none;stroke:rgb(230,230,230);stroke-width:1px;"/>
            </g>
            <g>
                <path d="M479.302,160.084l22.224,22.224" style="fill:none;stroke:rgb(230,230,230);stroke-width:1px;"/>
                <path d="M471.167,177.611l38.493,-12.831" style="fill:none;stroke:rgb(230,230,230);stroke-width:1px;"/>
            </g>
            <g>
                <path d="M-16.202,411.499l22.224,22.223" style="fill:none;stroke:rgb(230,230,230);stroke-width:1px;"/>
                <path d="M-24.337,429.026l38.493,-12.831" style="fill:none;stroke:rgb(230,230,230);stroke-width:1px;"/>
            </g>
            <g>
                <path d="M95.836,374.153l22.224,22.223" style="fill:none;stroke:rgb(230,230,230);stroke-width:1px;"/>
                <path d="M87.701,391.68l38.493,-12.831" style="fill:none;stroke:rgb(230,230,230);stroke-width:1px;"/>
            </g>
            <g>
                <path d="M207.874,336.807l22.223,22.224" style="fill:none;stroke:rgb(230,230,230);stroke-width:1px;"/>
                <path d="M199.739,354.334l38.493,-12.831" style="fill:none;stroke:rgb(230,230,230);stroke-width:1px;"/>
            </g>
            <g>
                <path d="M319.911,299.461l22.224,22.224" style="fill:none;stroke:rgb(230,230,230);stroke-width:1px;"/>
                <path d="M311.777,316.988l38.493,-12.831" style="fill:none;stroke:rgb(230,230,230);stroke-width:1px;"/>
            </g>
            <g>
                <path d="M431.949,262.115l22.224,22.224" style="fill:none;stroke:rgb(230,230,230);stroke-width:1px;"/>
                <path d="M423.815,279.642l38.493,-12.831" style="fill:none;stroke:rgb(230,230,230);stroke-width:1px;"/>
            </g>
            <g>
                <path d="M535.853,242.296l38.492,-12.831" style="fill:none;stroke:rgb(230,230,230);stroke-width:1px;"/>
            </g>
            <g>
                <path d="M48.483,476.184l22.224,22.223" style="fill:none;stroke:black;stroke-width:2px;"/>
                <path d="M40.349,493.711l38.492,-12.831" style="fill:none;stroke:black;stroke-width:2px;"/>
            </g>
            <g>
                <path d="M160.521,438.838l22.224,22.224" style="fill:none;stroke:rgb(230,230,230);stroke-width:1px;"/>
                <path d="M152.386,456.365l38.493,-12.831" style="fill:none;stroke:rgb(230,230,230);stroke-width:1px;"/>
            </g>
            <g>
                <path d="M272.559,401.492l22.224,22.224" style="fill:none;stroke:rgb(230,230,230);stroke-width:1px;"/>
                <path d="M264.424,419.019l38.493,-12.831" style="fill:none;stroke:rgb(230,230,230);stroke-width:1px;"/>
            </g>
            <g>
                <path d="M384.596,364.146l22.224,22.224" style="fill:none;stroke:rgb(230,230,230);stroke-width:1px;"/>
                <path d="M376.462,381.673l38.493,-12.831" style="fill:none;stroke:rgb(230,230,230);stroke-width:1px;"/>
            </g>
            <g>
                <path d="M496.634,326.8l22.224,22.224" style="fill:none;stroke:rgb(230,230,230);stroke-width:1px;"/>
                <path d="M488.5,344.327l38.493,-12.831" style="fill:none;stroke:rgb(230,230,230);stroke-width:1px;"/>
            </g>
            <g>
                <path d="M113.168,540.869l22.224,22.224" style="fill:none;stroke:rgb(230,230,230);stroke-width:1px;"/>
            </g>
            <g>
                <path d="M225.206,503.523l22.224,22.224" style="fill:none;stroke:black;stroke-width:2px;"/>
                <path d="M217.071,521.05l38.493,-12.831" style="fill:none;stroke:black;stroke-width:2px;"/>
            </g>
            <g>
                <path d="M337.244,466.177l22.224,22.224" style="fill:none;stroke:rgb(230,230,230);stroke-width:1px;"/>
                <path d="M329.109,483.704l38.493,-12.831" style="fill:none;stroke:rgb(230,230,230);stroke-width:1px;"/>
            </g>
            <g>
                <path d="M449.282,428.831l22.223,22.224" style="fill:none;stroke:rgb(230,230,230);stroke-width:1px;"/>
                <path d="M441.147,446.358l38.493,-12.831" style="fill:none;stroke:rgb(230,230,230);stroke-width:1px;"/>
            </g>
            <g>
                <path d="M401.929,530.862l22.224,22.224" style="fill:none;stroke:rgb(230,230,230);stroke-width:1px;"/>
                <path d="M393.794,548.389l38.493,-12.831" style="fill:none;stroke:rgb(230,230,230);stroke-width:1px;"/>
            </g>
            <g>
                <path d="M513.967,493.516l22.223,22.224" style="fill:none;stroke:rgb(230,230,230);stroke-width:1px;"/>
                <path d="M505.832,511.043l38.493,-12.831" style="fill:none;stroke:rgb(230,230,230);stroke-width:1px;"/>
            </g>
        </g>
        <g>
            <rect x="-0" y="0" width="106.057" height="540" style="fill:url(#_Linear2);"/>
            <path d="M-0,442.348l540,0l0,97.652l-540,-0l-0,-97.652Z" style="fill:url(#_Linear3);"/>
            <path d="M-0,95.445l540,0l0,-95.445l-540,0l-0,95.445Z" style="fill:url(#_Linear4);"/>
        </g>
        <g>
            <path d="M712.79,886.672l-0,29.743l-646.851,-646.851l0,-29.743l646.851,646.851Z" style="fill:rgb(218,218,218);"/>
            <path d="M623.067,54.112l646.851,646.85l-557.128,185.71l-646.851,-646.851l557.128,-185.709Z" style="fill:white;stroke:black;stroke-width:1px;"/>
            <path d="M725.354,838.091l0,16.196l-564.095,-564.095l-0,-16.196l564.095,564.095Z" style="fill:rgb(218,218,218);"/>
            <path d="M650.964,110.761l564.095,564.095l-489.705,163.235l-564.095,-564.095l489.705,-163.235Z" style="fill:white;stroke:black;stroke-width:2px;"/>
            <path d="M730.547,784.093l-0,16.196l-445.29,-445.29l-0,-16.196l445.29,445.29Z" style="fill:rgb(218,218,218);"/>
            <path d="M710.469,197.066l445.29,445.29l-425.212,141.737l-445.29,-445.29l425.212,-141.737Z" style="fill:white;stroke:black;stroke-width:2px;"/>
            <path d="M353.148,354.547l-15.602,-0.235l-1.22,-1.22l7.418,-7.949l2.426,2.426l-4.217,4.389l8.728,0.122l2.467,2.467Z" style="fill-rule:nonzero;"/>
            <path d="M367.421,351.694c-1.432,0.477 -2.896,0.793 -4.394,0.948c-1.497,0.154 -2.938,0.088 -4.323,-0.199c-1.384,-0.287 -2.633,-0.84 -3.747,-1.658l4.249,-1.416c0.581,0.327 1.221,0.528 1.918,0.603c0.697,0.075 1.42,0.052 2.168,-0.069c0.748,-0.121 1.474,-0.298 2.178,-0.533c0.553,-0.184 1.05,-0.402 1.493,-0.655c0.443,-0.252 0.741,-0.531 0.894,-0.837c0.153,-0.306 0.067,-0.621 -0.258,-0.947c-0.245,-0.245 -0.539,-0.413 -0.881,-0.504c-0.343,-0.091 -0.735,-0.129 -1.175,-0.116c-0.44,0.014 -0.939,0.067 -1.494,0.159c-0.46,0.064 -0.934,0.144 -1.421,0.24c-0.487,0.097 -0.972,0.183 -1.456,0.261c-0.483,0.077 -0.964,0.135 -1.443,0.175c-0.862,0.129 -1.717,0.226 -2.564,0.291c-0.848,0.066 -1.655,0.06 -2.422,-0.017c-0.766,-0.077 -1.492,-0.256 -2.177,-0.536c-0.686,-0.281 -1.301,-0.694 -1.847,-1.24c-0.58,-0.58 -0.902,-1.13 -0.967,-1.652c-0.066,-0.522 0.057,-1.009 0.367,-1.461c0.31,-0.452 0.746,-0.868 1.306,-1.246c0.56,-0.379 1.174,-0.719 1.843,-1.021c0.668,-0.302 1.321,-0.559 1.959,-0.772c1.338,-0.446 2.676,-0.713 4.014,-0.802c1.339,-0.088 2.618,0.026 3.838,0.341c1.22,0.315 2.293,0.865 3.218,1.649l-4.056,1.352c-0.411,-0.312 -0.899,-0.515 -1.466,-0.609c-0.566,-0.095 -1.17,-0.103 -1.811,-0.026c-0.641,0.078 -1.29,0.226 -1.948,0.445c-0.427,0.143 -0.824,0.304 -1.19,0.482c-0.366,0.179 -0.659,0.37 -0.88,0.572c-0.22,0.202 -0.347,0.414 -0.38,0.635c-0.034,0.22 0.064,0.445 0.293,0.675c0.225,0.224 0.529,0.382 0.913,0.473c0.384,0.09 0.84,0.124 1.369,0.1c0.529,-0.023 1.131,-0.081 1.808,-0.171c0.689,-0.074 1.387,-0.185 2.096,-0.333c0.708,-0.147 1.408,-0.265 2.099,-0.351c0.859,-0.137 1.688,-0.235 2.487,-0.295c0.799,-0.06 1.555,-0.054 2.266,0.018c0.712,0.071 1.381,0.238 2.007,0.501c0.626,0.263 1.196,0.652 1.711,1.166c0.685,0.685 1.047,1.338 1.086,1.958c0.04,0.62 -0.169,1.203 -0.626,1.747c-0.456,0.545 -1.092,1.042 -1.908,1.492c-0.815,0.45 -1.731,0.844 -2.746,1.183Z" style="fill-rule:nonzero;"/>
            <path d="M385.305,345.714c-1.599,0.533 -3.152,0.802 -4.661,0.806c-1.508,0.004 -2.901,-0.233 -4.181,-0.711c-1.279,-0.478 -2.374,-1.172 -3.283,-2.082c-0.914,-0.914 -1.409,-1.82 -1.483,-2.719c-0.075,-0.9 0.262,-1.736 1.008,-2.509c0.747,-0.773 1.905,-1.421 3.473,-1.943c1.159,-0.387 2.294,-0.614 3.404,-0.681c1.11,-0.068 2.172,-0.001 3.187,0.2c1.015,0.201 1.942,0.516 2.779,0.947c0.838,0.43 1.557,0.956 2.157,1.576c0.147,0.158 0.282,0.313 0.406,0.465c0.123,0.152 0.235,0.314 0.336,0.487l-10.516,3.506c0.389,0.316 0.859,0.57 1.411,0.76c0.551,0.191 1.155,0.286 1.813,0.285c0.658,-0 1.359,-0.125 2.102,-0.372c0.482,-0.161 0.896,-0.343 1.24,-0.546c0.344,-0.203 0.598,-0.42 0.761,-0.651c0.163,-0.232 0.206,-0.456 0.129,-0.673l4.044,-1.348c0.411,0.753 0.482,1.458 0.213,2.115c-0.269,0.657 -0.79,1.247 -1.563,1.768c-0.773,0.521 -1.698,0.961 -2.776,1.32Zm-8.959,-4.345l6.676,-2.225c-0.311,-0.301 -0.722,-0.542 -1.233,-0.723c-0.511,-0.182 -1.087,-0.272 -1.727,-0.272c-0.639,0.001 -1.321,0.122 -2.045,0.363c-0.743,0.248 -1.277,0.538 -1.603,0.871c-0.325,0.334 -0.482,0.674 -0.469,1.022c0.013,0.347 0.147,0.669 0.401,0.964Z" style="fill-rule:nonzero;"/>
            <path d="M402.228,340.073c-1.579,0.527 -3.111,0.79 -4.594,0.79c-1.483,0.001 -2.858,-0.242 -4.126,-0.729c-1.267,-0.487 -2.36,-1.189 -3.278,-2.108c-0.93,-0.93 -1.438,-1.841 -1.524,-2.733c-0.085,-0.892 0.25,-1.72 1.007,-2.483c0.757,-0.763 1.935,-1.411 3.534,-1.944c1.248,-0.416 2.487,-0.658 3.716,-0.727c1.228,-0.068 2.381,0.042 3.458,0.33c1.076,0.288 2.025,0.77 2.846,1.446l-3.991,1.331c-0.581,-0.331 -1.209,-0.507 -1.885,-0.527c-0.676,-0.02 -1.355,0.083 -2.036,0.31c-0.887,0.296 -1.462,0.655 -1.725,1.076c-0.263,0.422 -0.316,0.859 -0.159,1.311c0.156,0.453 0.428,0.872 0.814,1.258c0.416,0.416 0.925,0.767 1.529,1.054c0.603,0.287 1.275,0.458 2.016,0.514c0.74,0.056 1.525,-0.054 2.353,-0.33c0.7,-0.234 1.221,-0.531 1.56,-0.891c0.34,-0.361 0.392,-0.76 0.155,-1.2l4.108,-1.369c0.627,0.761 0.851,1.494 0.674,2.199c-0.177,0.704 -0.658,1.349 -1.443,1.934c-0.784,0.585 -1.787,1.081 -3.009,1.488Z" style="fill-rule:nonzero;"/>
            <path d="M418.587,334.459c-1.284,0.428 -2.448,0.694 -3.492,0.8c-1.043,0.105 -1.999,0.015 -2.867,-0.269c-0.867,-0.284 -1.678,-0.802 -2.43,-1.555l-3.811,-3.811l-2.282,0.761l-2.102,-2.102l2.282,-0.761l-2.382,-2.382l4.091,-1.364l2.382,2.383l3.343,-1.115l2.103,2.102l-3.344,1.115l3.477,3.477c0.371,0.371 0.776,0.624 1.216,0.761c0.44,0.136 1.074,0.066 1.903,-0.21l1.278,-0.426l2.105,2.105l-1.47,0.491Z" style="fill-rule:nonzero;"/>
            <path d="M422.316,333.216l-8.878,-8.878l4.085,-1.362l8.878,8.878l-4.085,1.362Zm-7.728,-10.452c-0.759,0.253 -1.504,0.325 -2.235,0.217c-0.73,-0.108 -1.303,-0.37 -1.719,-0.786c-0.438,-0.438 -0.549,-0.873 -0.332,-1.304c0.217,-0.432 0.695,-0.771 1.434,-1.017c0.681,-0.227 1.401,-0.291 2.161,-0.193c0.76,0.099 1.359,0.367 1.797,0.805c0.427,0.427 0.534,0.852 0.321,1.274c-0.212,0.423 -0.688,0.758 -1.427,1.004Z" style="fill-rule:nonzero;"/>
            <path d="M436.939,328.503c-1.556,0.519 -3.099,0.791 -4.628,0.815c-1.529,0.025 -2.957,-0.196 -4.285,-0.663c-1.328,-0.466 -2.46,-1.168 -3.396,-2.105c-0.955,-0.954 -1.448,-1.884 -1.478,-2.788c-0.031,-0.905 0.347,-1.737 1.134,-2.496c0.786,-0.76 1.944,-1.394 3.473,-1.904c1.544,-0.515 3.081,-0.774 4.61,-0.778c1.529,-0.003 2.959,0.233 4.288,0.709c1.33,0.477 2.472,1.192 3.426,2.147c0.93,0.93 1.421,1.838 1.473,2.725c0.052,0.887 -0.313,1.702 -1.097,2.444c-0.783,0.741 -1.957,1.373 -3.52,1.894Zm-2.216,-2.145c0.895,-0.299 1.5,-0.65 1.816,-1.055c0.317,-0.405 0.414,-0.829 0.292,-1.272c-0.121,-0.443 -0.384,-0.867 -0.788,-1.271c-0.405,-0.405 -0.914,-0.753 -1.528,-1.045c-0.614,-0.293 -1.308,-0.469 -2.081,-0.529c-0.773,-0.06 -1.612,0.061 -2.519,0.364c-0.887,0.295 -1.485,0.653 -1.793,1.074c-0.309,0.42 -0.399,0.855 -0.271,1.305c0.129,0.45 0.398,0.88 0.809,1.291c0.411,0.411 0.922,0.757 1.532,1.038c0.61,0.28 1.296,0.441 2.057,0.482c0.762,0.041 1.587,-0.087 2.474,-0.382Z" style="fill-rule:nonzero;"/>
            <path d="M447.1,324.954l-8.878,-8.877l3.81,-1.271l1.246,0.951c0.127,-0.45 0.38,-0.851 0.761,-1.204c0.381,-0.353 0.825,-0.66 1.331,-0.922c0.506,-0.262 0.995,-0.471 1.465,-0.628c1.463,-0.487 2.798,-0.684 4.006,-0.589c1.207,0.095 2.299,0.394 3.275,0.898c0.976,0.504 1.845,1.137 2.606,1.899l4.902,4.902l-4.09,1.363l-4.596,-4.595c-0.274,-0.274 -0.584,-0.534 -0.931,-0.779c-0.346,-0.246 -0.733,-0.446 -1.16,-0.6c-0.426,-0.154 -0.891,-0.236 -1.394,-0.247c-0.503,-0.01 -1.059,0.086 -1.666,0.288c-0.766,0.255 -1.298,0.583 -1.597,0.982c-0.298,0.399 -0.386,0.83 -0.262,1.293c0.123,0.464 0.42,0.93 0.889,1.4l4.373,4.373l-4.09,1.363Z" style="fill-rule:nonzero;"/>
            <path d="M464.72,317.342l-2.435,-2.436l4.2,-4.405l-8.712,-0.106l-2.456,-2.456l15.575,0.23l1.22,1.22l-7.392,7.953Z" style="fill-rule:nonzero;"/>
            <path d="M563.235,520.161l0,59.84l-195.923,-195.923l-0,-59.841l195.923,195.924Z" style="fill:rgb(218,218,218);"/>
            <path d="M737.353,200.89l195.924,195.924l-370.042,123.347l-195.923,-195.924l370.041,-123.347Z" style="fill:white;stroke:black;stroke-width:2px;"/>
            <g>
                <path d="M581.308,479.978l-0,14.489l-134.999,-134.998l0,-14.489l134.999,134.998Z" style="fill:rgb(218,218,218);"/>
                <path d="M584.537,298.904l134.998,134.998l-138.227,46.076l-134.999,-134.998l138.228,-46.076Z" style="fill:white;stroke:black;stroke-width:2px;"/>
                <path d="M537.81,355.117l0.407,-9.008l2.113,-0.704l13.767,4.283l-4.201,1.4l-7.601,-2.434l-0.213,5.039l-4.272,1.424Z" style="fill-rule:nonzero;"/>
                <path d="M543.344,363.95c-1.231,-1.231 -1.84,-2.42 -1.829,-3.568c0.012,-1.148 0.583,-2.205 1.714,-3.172c1.132,-0.967 2.748,-1.801 4.848,-2.501c2.128,-0.709 4.218,-1.103 6.27,-1.18c2.052,-0.078 3.95,0.163 5.693,0.721c1.744,0.558 3.217,1.438 4.419,2.64c0.909,0.91 1.451,1.812 1.626,2.708c0.174,0.896 -0.032,1.739 -0.62,2.531c-0.588,0.792 -1.588,1.499 -3.001,2.119l-2.321,-2.321c0.816,-0.47 1.278,-1.019 1.383,-1.647c0.106,-0.629 -0.208,-1.31 -0.943,-2.044c-0.802,-0.802 -1.76,-1.338 -2.875,-1.607c-1.115,-0.269 -2.276,-0.344 -3.485,-0.225c-1.208,0.12 -2.368,0.365 -3.481,0.736c-1.143,0.382 -2.119,0.856 -2.927,1.423c-0.807,0.567 -1.288,1.203 -1.441,1.909c-0.153,0.705 0.167,1.454 0.96,2.247c0.481,0.481 1.026,0.864 1.635,1.149c0.609,0.285 1.268,0.472 1.977,0.561c0.709,0.088 1.428,0.072 2.158,-0.048l2.409,2.409c-1.61,0.393 -3.178,0.522 -4.706,0.387c-1.527,-0.135 -2.929,-0.483 -4.206,-1.044c-1.277,-0.561 -2.363,-1.289 -3.257,-2.183Z" style="fill-rule:nonzero;"/>
                <path d="M554.119,374.694c-0.899,-0.899 -1.369,-1.789 -1.412,-2.672c-0.042,-0.883 0.341,-1.707 1.149,-2.474c0.807,-0.766 2.023,-1.42 3.645,-1.961c1.653,-0.551 3.264,-0.835 4.831,-0.853c1.566,-0.018 3.007,0.201 4.323,0.655c1.315,0.453 2.414,1.122 3.297,2.005c0.891,0.891 1.34,1.779 1.347,2.661c0.006,0.883 -0.403,1.709 -1.228,2.476c-0.825,0.768 -2.065,1.427 -3.718,1.978c-1.611,0.537 -3.184,0.821 -4.721,0.851c-1.536,0.03 -2.947,-0.181 -4.232,-0.634c-1.284,-0.452 -2.378,-1.129 -3.281,-2.032Zm3.716,-1.279c0.517,0.516 1.126,0.866 1.827,1.048c0.701,0.183 1.436,0.239 2.203,0.169c0.767,-0.07 1.501,-0.222 2.202,-0.456c0.7,-0.233 1.303,-0.527 1.81,-0.882c0.507,-0.354 0.812,-0.754 0.915,-1.201c0.104,-0.446 -0.106,-0.931 -0.629,-1.454c-0.512,-0.512 -1.133,-0.858 -1.861,-1.036c-0.728,-0.178 -1.481,-0.23 -2.26,-0.156c-0.78,0.074 -1.525,0.23 -2.237,0.467c-0.712,0.238 -1.311,0.532 -1.797,0.884c-0.485,0.353 -0.764,0.749 -0.835,1.188c-0.071,0.44 0.15,0.916 0.662,1.429Z" style="fill-rule:nonzero;"/>
                <path d="M560.265,380.56l20.647,-6.882l2.362,2.362l-20.647,6.882l-2.362,-2.362Z" style="fill-rule:nonzero;"/>
                <path d="M568.31,388.885c-1.305,-1.305 -1.73,-2.502 -1.274,-3.589c0.455,-1.088 1.856,-2.023 4.202,-2.805l8.596,-2.865l2.361,2.362l-8.303,2.768c-0.709,0.236 -1.275,0.501 -1.699,0.795c-0.425,0.294 -0.661,0.619 -0.71,0.975c-0.048,0.357 0.129,0.736 0.531,1.138c0.438,0.438 0.939,0.721 1.502,0.849c0.564,0.128 1.166,0.144 1.805,0.05c0.639,-0.095 1.278,-0.249 1.916,-0.462l8.304,-2.768l2.352,2.352l-8.596,2.865c-2.439,0.813 -4.568,1.052 -6.385,0.716c-1.817,-0.337 -3.351,-1.13 -4.602,-2.381Z" style="fill-rule:nonzero;"/>
                <path d="M574.345,394.64l15.377,-5.126l2.13,2.13l-1.527,0.76c0.78,0.049 1.447,0.164 2.002,0.346c0.556,0.182 1.023,0.396 1.403,0.644c0.38,0.248 0.685,0.486 0.914,0.715c0.53,0.53 0.822,1.057 0.875,1.579c0.053,0.523 -0.191,1.038 -0.732,1.545c0.796,0.049 1.498,0.162 2.105,0.338c0.607,0.177 1.137,0.397 1.59,0.661c0.453,0.263 0.842,0.557 1.165,0.88c0.692,0.692 1,1.332 0.924,1.92c-0.076,0.589 -0.455,1.128 -1.138,1.617c-0.682,0.49 -1.603,0.928 -2.763,1.314l-9.751,3.251l-2.362,-2.362l8.672,-2.89c0.342,-0.114 0.69,-0.244 1.042,-0.39c0.352,-0.146 0.65,-0.317 0.893,-0.511c0.244,-0.195 0.39,-0.409 0.441,-0.641c0.05,-0.233 -0.071,-0.495 -0.363,-0.787c-0.29,-0.29 -0.636,-0.493 -1.039,-0.611c-0.402,-0.117 -0.837,-0.173 -1.305,-0.169c-0.467,0.005 -0.935,0.054 -1.405,0.147c-0.469,0.094 -0.916,0.211 -1.34,0.352l-8.321,2.774l-2.362,-2.361l8.701,-2.901c0.323,-0.107 0.656,-0.235 0.998,-0.382c0.343,-0.147 0.643,-0.316 0.899,-0.506c0.256,-0.19 0.404,-0.407 0.444,-0.649c0.04,-0.242 -0.09,-0.514 -0.391,-0.815c-0.425,-0.425 -0.951,-0.676 -1.579,-0.754c-0.628,-0.079 -1.263,-0.055 -1.906,0.069c-0.644,0.125 -1.212,0.269 -1.707,0.434l-8.222,2.741l-2.362,-2.362Z" style="fill-rule:nonzero;"/>
                <path d="M588.698,408.993l15.377,-5.126l2.2,2.2l-1.646,0.72c0.779,0.073 1.473,0.219 2.085,0.439c0.611,0.22 1.144,0.476 1.597,0.768c0.453,0.293 0.815,0.575 1.087,0.846c0.845,0.845 1.185,1.616 1.021,2.313c-0.164,0.697 -0.683,1.327 -1.556,1.891c-0.873,0.563 -1.969,1.065 -3.288,1.504l-8.491,2.831l-2.362,-2.362l7.96,-2.653c0.475,-0.159 0.924,-0.338 1.35,-0.538c0.425,-0.2 0.771,-0.423 1.038,-0.669c0.267,-0.247 0.41,-0.515 0.428,-0.806c0.018,-0.29 -0.148,-0.611 -0.499,-0.961c-0.442,-0.442 -1.009,-0.75 -1.7,-0.922c-0.691,-0.173 -1.438,-0.223 -2.241,-0.152c-0.802,0.072 -1.61,0.243 -2.424,0.514l-7.574,2.525l-2.362,-2.362Z" style="fill-rule:nonzero;"/>
                <path d="M601.883,419.166l4.219,-1.406l7.63,2.425l0.184,-5.03l4.254,-1.418l-0.399,8.992l-2.113,0.704l-13.775,-4.267Z" style="fill-rule:nonzero;"/>
            </g>
            <path d="M432.964,338.001l-15.602,-0.235l-1.22,-1.219l7.419,-7.949l2.425,2.426l-4.217,4.388l8.729,0.123l2.466,2.466Z" style="fill-rule:nonzero;"/>
            <path d="M439.312,337.61l-11.921,-11.92l8.328,-2.776c1.019,-0.339 2.059,-0.609 3.119,-0.81c1.059,-0.201 2.11,-0.287 3.15,-0.258c1.041,0.03 2.031,0.221 2.972,0.576c0.94,0.354 1.795,0.915 2.563,1.683c0.575,0.575 0.925,1.148 1.049,1.719c0.125,0.571 0.032,1.125 -0.278,1.663c-0.311,0.538 -0.83,1.049 -1.558,1.535l9.184,3.052l-4.716,1.572l-8.228,-2.859l-3.682,1.227l4.201,4.202l-4.183,1.394Zm-2.158,-7.735l3.835,-1.278c0.607,-0.203 1.128,-0.417 1.563,-0.643c0.436,-0.226 0.768,-0.466 0.999,-0.721c0.23,-0.255 0.333,-0.527 0.309,-0.815c-0.024,-0.288 -0.197,-0.599 -0.52,-0.932c-0.41,-0.42 -0.89,-0.693 -1.441,-0.818c-0.55,-0.125 -1.158,-0.139 -1.824,-0.043c-0.667,0.096 -1.387,0.273 -2.161,0.531l-4.108,1.37l3.348,3.349Z" style="fill-rule:nonzero;"/>
            <path d="M465.851,328.926c-1.556,0.518 -3.099,0.79 -4.628,0.815c-1.529,0.024 -2.957,-0.197 -4.285,-0.663c-1.327,-0.467 -2.46,-1.168 -3.396,-2.105c-0.955,-0.955 -1.447,-1.884 -1.478,-2.789c-0.031,-0.905 0.347,-1.737 1.134,-2.496c0.786,-0.759 1.944,-1.394 3.473,-1.903c1.544,-0.515 3.081,-0.774 4.61,-0.778c1.529,-0.004 2.959,0.233 4.288,0.709c1.33,0.476 2.472,1.192 3.427,2.146c0.929,0.93 1.42,1.839 1.472,2.726c0.053,0.887 -0.313,1.701 -1.096,2.443c-0.784,0.742 -1.957,1.373 -3.521,1.895Zm-2.216,-2.146c0.895,-0.298 1.501,-0.65 1.817,-1.055c0.316,-0.404 0.413,-0.828 0.291,-1.272c-0.121,-0.443 -0.384,-0.866 -0.788,-1.271c-0.405,-0.404 -0.914,-0.752 -1.528,-1.045c-0.614,-0.292 -1.308,-0.468 -2.081,-0.528c-0.773,-0.06 -1.612,0.061 -2.519,0.363c-0.887,0.296 -1.485,0.654 -1.793,1.074c-0.309,0.421 -0.399,0.856 -0.271,1.306c0.129,0.449 0.398,0.88 0.81,1.291c0.411,0.411 0.921,0.757 1.531,1.037c0.61,0.281 1.296,0.441 2.058,0.482c0.762,0.041 1.586,-0.086 2.473,-0.382Z" style="fill-rule:nonzero;"/>
            <path d="M479.297,324.282l-13.715,-7.265l4.481,-1.494l9.019,5.237l-3.142,-7.196l4.599,-1.533l9.217,5.171l-3.388,-7.114l4.406,-1.469l4.04,10.49l-4.697,1.566l-9.076,-4.975l2.96,7.014l-4.704,1.568Z" style="fill-rule:nonzero;"/>
            <path d="M501.283,315.215l-2.436,-2.436l4.201,-4.406l-8.712,-0.106l-2.456,-2.456l15.574,0.231l1.22,1.22l-7.391,7.953Z" style="fill-rule:nonzero;"/>
            <path d="M236.547,290.922l-15.602,-0.235l-1.219,-1.219l7.418,-7.949l2.426,2.426l-4.217,4.388l8.728,0.123l2.466,2.466Z" style="fill-rule:nonzero;"/>
            <path d="M242.895,290.531l-11.92,-11.92l4.184,-1.394l4.935,4.936l8.924,-2.975l-4.936,-4.936l4.184,-1.394l11.92,11.92l-4.184,1.394l-4.768,-4.767l-8.923,2.974l4.768,4.768l-4.184,1.394Z" style="fill-rule:nonzero;"/>
            <path d="M271.12,281.285c-1.598,0.533 -3.152,0.801 -4.66,0.805c-1.508,0.004 -2.902,-0.233 -4.181,-0.711c-1.28,-0.478 -2.374,-1.172 -3.284,-2.081c-0.914,-0.914 -1.408,-1.821 -1.483,-2.72c-0.074,-0.899 0.262,-1.735 1.009,-2.508c0.747,-0.773 1.904,-1.421 3.472,-1.944c1.16,-0.386 2.294,-0.613 3.404,-0.681c1.11,-0.067 2.173,-0.001 3.188,0.2c1.015,0.201 1.941,0.516 2.779,0.947c0.838,0.43 1.557,0.956 2.156,1.576c0.148,0.158 0.283,0.313 0.406,0.465c0.124,0.152 0.236,0.314 0.336,0.488l-10.516,3.505c0.39,0.316 0.86,0.57 1.411,0.761c0.551,0.19 1.156,0.285 1.814,0.285c0.658,-0.001 1.358,-0.125 2.102,-0.373c0.482,-0.161 0.895,-0.343 1.239,-0.546c0.345,-0.203 0.598,-0.42 0.762,-0.651c0.163,-0.231 0.206,-0.455 0.129,-0.672l4.044,-1.348c0.41,0.752 0.481,1.457 0.212,2.114c-0.269,0.658 -0.79,1.247 -1.563,1.768c-0.772,0.521 -1.698,0.961 -2.776,1.321Zm-8.959,-4.345l6.676,-2.226c-0.311,-0.3 -0.721,-0.542 -1.233,-0.723c-0.511,-0.182 -1.086,-0.272 -1.726,-0.271c-0.64,0 -1.322,0.121 -2.045,0.362c-0.743,0.248 -1.277,0.539 -1.603,0.872c-0.326,0.333 -0.482,0.673 -0.469,1.021c0.013,0.347 0.146,0.669 0.4,0.965Z" style="fill-rule:nonzero;"/>
            <path d="M285.751,276.408c-0.713,0.237 -1.447,0.409 -2.202,0.514c-0.756,0.105 -1.497,0.13 -2.223,0.076c-0.726,-0.055 -1.405,-0.2 -2.035,-0.436c-0.63,-0.236 -1.171,-0.58 -1.623,-1.031c-0.606,-0.607 -0.881,-1.165 -0.823,-1.676c0.057,-0.51 0.355,-0.98 0.892,-1.411c0.537,-0.43 1.24,-0.835 2.109,-1.213c0.869,-0.378 1.81,-0.736 2.821,-1.073l2.23,-0.743c-0.331,-0.33 -0.721,-0.586 -1.173,-0.768c-0.452,-0.182 -0.954,-0.276 -1.509,-0.283c-0.554,-0.007 -1.15,0.096 -1.788,0.308c-0.416,0.139 -0.781,0.301 -1.094,0.486c-0.313,0.185 -0.539,0.378 -0.678,0.579c-0.139,0.2 -0.161,0.405 -0.067,0.613l-4.144,1.381c-0.367,-0.533 -0.513,-1.048 -0.439,-1.544c0.074,-0.497 0.317,-0.964 0.729,-1.403c0.413,-0.438 0.95,-0.841 1.612,-1.209c0.662,-0.367 1.4,-0.686 2.213,-0.957c2.241,-0.747 4.263,-0.931 6.066,-0.552c1.804,0.38 3.383,1.247 4.737,2.602l4.781,4.781l-3.682,1.227l-1.207,-1.129c-0.077,0.555 -0.336,1.027 -0.777,1.413c-0.441,0.387 -0.92,0.696 -1.437,0.928c-0.517,0.233 -0.947,0.406 -1.289,0.52Zm-0.937,-2.181c0.681,-0.227 1.222,-0.513 1.621,-0.857c0.4,-0.345 0.632,-0.709 0.697,-1.093c0.065,-0.384 -0.07,-0.743 -0.405,-1.078l-0.215,-0.215l-2.819,0.939c-0.397,0.132 -0.773,0.272 -1.129,0.419c-0.356,0.147 -0.652,0.304 -0.888,0.469c-0.237,0.166 -0.379,0.344 -0.428,0.534c-0.049,0.19 0.039,0.397 0.264,0.621c0.229,0.23 0.522,0.384 0.88,0.464c0.357,0.08 0.749,0.1 1.176,0.06c0.426,-0.041 0.842,-0.128 1.246,-0.263Z" style="fill-rule:nonzero;"/>
            <path d="M303.765,270.403c-1.56,0.52 -3.057,0.744 -4.49,0.673c-1.434,-0.072 -2.747,-0.369 -3.94,-0.891c-1.194,-0.521 -2.21,-1.202 -3.05,-2.042c-0.888,-0.887 -1.404,-1.767 -1.55,-2.639c-0.146,-0.872 0.118,-1.684 0.794,-2.435c0.676,-0.751 1.807,-1.391 3.394,-1.92c0.557,-0.185 1.136,-0.331 1.738,-0.437c0.601,-0.107 1.204,-0.167 1.807,-0.181c0.604,-0.014 1.177,0.038 1.721,0.157l-3.861,-3.861l4.091,-1.364l11.92,11.92l-3.974,1.325l-1.044,-0.982c-0.106,0.377 -0.321,0.729 -0.645,1.055c-0.325,0.327 -0.732,0.626 -1.223,0.898c-0.491,0.271 -1.054,0.513 -1.688,0.724Zm-1.31,-2.407c0.88,-0.293 1.48,-0.648 1.802,-1.065c0.322,-0.418 0.431,-0.858 0.327,-1.323c-0.103,-0.464 -0.365,-0.906 -0.785,-1.326c-0.436,-0.435 -0.969,-0.791 -1.601,-1.068c-0.632,-0.276 -1.336,-0.433 -2.114,-0.472c-0.778,-0.039 -1.609,0.089 -2.491,0.384c-0.911,0.303 -1.516,0.663 -1.814,1.08c-0.299,0.417 -0.375,0.854 -0.228,1.31c0.147,0.455 0.432,0.894 0.854,1.316c0.314,0.315 0.68,0.594 1.097,0.836c0.416,0.243 0.881,0.428 1.395,0.555c0.513,0.127 1.067,0.177 1.662,0.149c0.595,-0.027 1.227,-0.153 1.896,-0.376Z" style="fill-rule:nonzero;"/>
            <path d="M315.522,264.584l-2.436,-2.436l4.201,-4.406l-8.712,-0.106l-2.456,-2.456l15.575,0.231l1.219,1.22l-7.391,7.953Z" style="fill-rule:nonzero;"/>
            <path d="M344.331,254.994l-15.602,-0.235l-1.22,-1.219l7.419,-7.949l2.426,2.426l-4.218,4.388l8.729,0.123l2.466,2.466Z" style="fill-rule:nonzero;"/>
            <path d="M352.028,257.82l-6.742,-19.114l4.096,-1.365l6.725,19.119l-4.079,1.36Z" style="fill-rule:nonzero;"/>
            <path d="M365.63,249.62l-11.921,-11.92l4.184,-1.395l4.936,4.936l8.923,-2.974l-4.936,-4.936l4.184,-1.395l11.92,11.92l-4.184,1.395l-4.767,-4.768l-8.923,2.975l4.767,4.767l-4.183,1.395Z" style="fill-rule:nonzero;"/>
            <path d="M393.855,240.373c-1.599,0.533 -3.152,0.801 -4.66,0.806c-1.508,0.004 -2.902,-0.233 -4.182,-0.711c-1.279,-0.478 -2.373,-1.172 -3.283,-2.082c-0.914,-0.914 -1.408,-1.821 -1.483,-2.72c-0.074,-0.899 0.262,-1.735 1.009,-2.508c0.747,-0.773 1.904,-1.421 3.472,-1.944c1.159,-0.386 2.294,-0.613 3.404,-0.68c1.11,-0.068 2.172,-0.001 3.187,0.199c1.015,0.201 1.942,0.517 2.78,0.947c0.837,0.431 1.556,0.956 2.156,1.577c0.147,0.157 0.282,0.312 0.406,0.464c0.123,0.152 0.235,0.315 0.336,0.488l-10.516,3.505c0.39,0.317 0.86,0.57 1.411,0.761c0.551,0.191 1.156,0.286 1.814,0.285c0.658,-0.001 1.358,-0.125 2.101,-0.373c0.483,-0.16 0.896,-0.342 1.24,-0.545c0.344,-0.203 0.598,-0.421 0.761,-0.652c0.163,-0.231 0.206,-0.455 0.129,-0.672l4.045,-1.348c0.41,0.753 0.481,1.458 0.212,2.115c-0.269,0.657 -0.79,1.246 -1.563,1.767c-0.773,0.522 -1.698,0.962 -2.776,1.321Zm-8.959,-4.345l6.676,-2.225c-0.311,-0.301 -0.722,-0.542 -1.233,-0.724c-0.511,-0.181 -1.086,-0.272 -1.726,-0.271c-0.64,0.001 -1.322,0.122 -2.045,0.363c-0.743,0.248 -1.278,0.538 -1.603,0.871c-0.326,0.333 -0.482,0.674 -0.469,1.021c0.012,0.348 0.146,0.669 0.4,0.965Z" style="fill-rule:nonzero;"/>
            <path d="M408.485,235.496c-0.712,0.238 -1.446,0.409 -2.202,0.514c-0.755,0.105 -1.496,0.131 -2.223,0.076c-0.726,-0.054 -1.404,-0.199 -2.034,-0.435c-0.631,-0.237 -1.172,-0.58 -1.623,-1.032c-0.607,-0.606 -0.881,-1.165 -0.823,-1.675c0.057,-0.511 0.354,-0.981 0.891,-1.412c0.537,-0.43 1.241,-0.834 2.11,-1.212c0.869,-0.379 1.81,-0.736 2.821,-1.073l2.229,-0.743c-0.33,-0.331 -0.721,-0.587 -1.172,-0.769c-0.452,-0.181 -0.955,-0.276 -1.509,-0.283c-0.554,-0.007 -1.15,0.096 -1.788,0.309c-0.417,0.138 -0.781,0.3 -1.094,0.486c-0.313,0.185 -0.539,0.377 -0.678,0.578c-0.139,0.201 -0.162,0.405 -0.068,0.614l-4.143,1.381c-0.367,-0.534 -0.514,-1.049 -0.44,-1.545c0.075,-0.496 0.318,-0.964 0.73,-1.402c0.412,-0.439 0.949,-0.842 1.612,-1.209c0.662,-0.368 1.399,-0.687 2.213,-0.958c2.24,-0.747 4.263,-0.931 6.066,-0.551c1.804,0.38 3.383,1.247 4.737,2.601l4.781,4.781l-3.682,1.227l-1.208,-1.129c-0.076,0.556 -0.335,1.027 -0.776,1.414c-0.441,0.386 -0.92,0.696 -1.438,0.928c-0.517,0.232 -0.946,0.405 -1.289,0.519Zm-0.936,-2.181c0.681,-0.227 1.221,-0.512 1.621,-0.857c0.4,-0.344 0.632,-0.708 0.697,-1.092c0.065,-0.385 -0.07,-0.744 -0.405,-1.078l-0.215,-0.216l-2.819,0.94c-0.397,0.132 -0.773,0.271 -1.129,0.419c-0.356,0.147 -0.652,0.303 -0.889,0.469c-0.236,0.165 -0.379,0.343 -0.427,0.533c-0.049,0.19 0.039,0.397 0.263,0.622c0.229,0.229 0.523,0.384 0.88,0.464c0.358,0.079 0.75,0.099 1.176,0.059c0.427,-0.04 0.843,-0.128 1.247,-0.263Z" style="fill-rule:nonzero;"/>
            <path d="M426.5,229.492c-1.56,0.52 -3.057,0.744 -4.491,0.672c-1.433,-0.072 -2.746,-0.369 -3.94,-0.89c-1.193,-0.522 -2.21,-1.203 -3.05,-2.043c-0.887,-0.887 -1.404,-1.767 -1.55,-2.639c-0.146,-0.872 0.119,-1.684 0.795,-2.434c0.675,-0.751 1.807,-1.391 3.394,-1.92c0.557,-0.186 1.136,-0.332 1.737,-0.438c0.602,-0.106 1.205,-0.166 1.808,-0.18c0.604,-0.014 1.177,0.038 1.72,0.156l-3.86,-3.861l4.09,-1.363l11.921,11.92l-3.975,1.325l-1.043,-0.982c-0.106,0.376 -0.321,0.728 -0.646,1.055c-0.324,0.327 -0.731,0.626 -1.223,0.897c-0.491,0.272 -1.053,0.513 -1.687,0.725Zm-1.31,-2.407c0.879,-0.293 1.48,-0.649 1.802,-1.066c0.322,-0.417 0.431,-0.858 0.327,-1.322c-0.104,-0.464 -0.365,-0.906 -0.785,-1.326c-0.436,-0.436 -0.97,-0.792 -1.601,-1.068c-0.632,-0.276 -1.337,-0.434 -2.115,-0.473c-0.777,-0.038 -1.608,0.09 -2.491,0.384c-0.91,0.303 -1.515,0.664 -1.814,1.081c-0.298,0.417 -0.374,0.853 -0.227,1.309c0.147,0.456 0.431,0.895 0.853,1.317c0.315,0.314 0.681,0.593 1.097,0.836c0.417,0.243 0.882,0.428 1.395,0.555c0.514,0.126 1.068,0.176 1.663,0.149c0.595,-0.028 1.227,-0.153 1.896,-0.376Z" style="fill-rule:nonzero;"/>
            <path d="M438.257,223.672l-2.436,-2.436l4.201,-4.405l-8.712,-0.106l-2.456,-2.456l15.574,0.23l1.22,1.22l-7.391,7.953Z" style="fill-rule:nonzero;"/>
            <path d="M263.975,318.349l-15.603,-0.235l-1.219,-1.219l7.418,-7.949l2.426,2.426l-4.217,4.388l8.728,0.123l2.467,2.466Z" style="fill-rule:nonzero;"/>
            <path d="M270.293,317.968l-11.92,-11.92l9.056,-3.019c0.938,-0.312 1.853,-0.549 2.745,-0.71c0.892,-0.161 1.748,-0.22 2.57,-0.177c0.822,0.044 1.593,0.209 2.313,0.496c0.72,0.287 1.379,0.73 1.976,1.327c0.499,0.499 0.765,1.028 0.798,1.587c0.033,0.56 -0.218,1.079 -0.752,1.556c1.208,-0.151 2.336,-0.089 3.384,0.186c1.048,0.275 1.949,0.79 2.704,1.545c0.69,0.689 1.044,1.341 1.064,1.954c0.019,0.614 -0.22,1.19 -0.719,1.729c-0.498,0.539 -1.203,1.04 -2.113,1.504c-0.911,0.464 -1.952,0.891 -3.123,1.281l-7.983,2.661Zm1.963,-3.615l4.307,-1.435c0.522,-0.174 0.989,-0.36 1.402,-0.56c0.413,-0.199 0.744,-0.41 0.992,-0.634c0.249,-0.223 0.377,-0.463 0.386,-0.719c0.008,-0.256 -0.129,-0.525 -0.412,-0.808c-0.263,-0.263 -0.563,-0.454 -0.9,-0.574c-0.338,-0.12 -0.71,-0.184 -1.116,-0.194c-0.407,-0.01 -0.836,0.03 -1.289,0.12c-0.453,0.089 -0.918,0.214 -1.397,0.373l-4.803,1.601l2.83,2.83Zm-4.831,-4.831l3.811,-1.27c0.533,-0.178 0.982,-0.367 1.346,-0.568c0.365,-0.201 0.63,-0.413 0.798,-0.634c0.167,-0.222 0.238,-0.451 0.214,-0.685c-0.025,-0.234 -0.161,-0.476 -0.411,-0.726c-0.327,-0.337 -0.708,-0.544 -1.142,-0.621c-0.435,-0.076 -0.915,-0.066 -1.44,0.031c-0.525,0.097 -1.084,0.245 -1.675,0.442l-4.149,1.383l2.648,2.648Z" style="fill-rule:nonzero;"/>
            <path d="M296.785,309.299c-1.556,0.519 -3.098,0.791 -4.627,0.815c-1.529,0.025 -2.958,-0.196 -4.285,-0.663c-1.328,-0.466 -2.46,-1.168 -3.397,-2.105c-0.954,-0.954 -1.447,-1.884 -1.477,-2.788c-0.031,-0.905 0.347,-1.737 1.133,-2.496c0.787,-0.76 1.944,-1.394 3.473,-1.904c1.545,-0.515 3.082,-0.774 4.611,-0.778c1.529,-0.003 2.958,0.233 4.288,0.709c1.329,0.477 2.472,1.192 3.426,2.147c0.93,0.93 1.421,1.838 1.473,2.725c0.052,0.887 -0.314,1.702 -1.097,2.444c-0.783,0.741 -1.957,1.373 -3.521,1.894Zm-2.215,-2.145c0.895,-0.299 1.5,-0.65 1.816,-1.055c0.316,-0.405 0.414,-0.829 0.292,-1.272c-0.122,-0.443 -0.384,-0.867 -0.789,-1.271c-0.404,-0.404 -0.913,-0.753 -1.527,-1.045c-0.614,-0.293 -1.308,-0.469 -2.081,-0.529c-0.773,-0.06 -1.613,0.061 -2.519,0.364c-0.887,0.295 -1.485,0.653 -1.794,1.074c-0.308,0.42 -0.398,0.855 -0.27,1.305c0.128,0.45 0.398,0.88 0.809,1.291c0.411,0.411 0.922,0.757 1.531,1.038c0.61,0.28 1.296,0.441 2.058,0.482c0.762,0.041 1.587,-0.087 2.474,-0.382Z" style="fill-rule:nonzero;"/>
            <path d="M313.399,303.761c-1.56,0.52 -3.057,0.744 -4.49,0.673c-1.433,-0.072 -2.747,-0.369 -3.94,-0.891c-1.193,-0.521 -2.21,-1.202 -3.05,-2.042c-0.887,-0.887 -1.404,-1.767 -1.55,-2.639c-0.146,-0.872 0.119,-1.684 0.794,-2.435c0.676,-0.751 1.807,-1.391 3.395,-1.92c0.556,-0.185 1.135,-0.331 1.737,-0.437c0.602,-0.107 1.204,-0.167 1.808,-0.181c0.603,-0.014 1.177,0.039 1.72,0.157l-3.861,-3.861l4.091,-1.364l11.92,11.921l-3.974,1.324l-1.044,-0.982c-0.106,0.377 -0.321,0.729 -0.645,1.055c-0.324,0.327 -0.732,0.626 -1.223,0.898c-0.491,0.271 -1.054,0.513 -1.688,0.724Zm-1.309,-2.407c0.879,-0.293 1.48,-0.648 1.801,-1.065c0.322,-0.418 0.431,-0.858 0.328,-1.322c-0.104,-0.465 -0.366,-0.907 -0.786,-1.327c-0.435,-0.435 -0.969,-0.791 -1.601,-1.068c-0.631,-0.276 -1.336,-0.433 -2.114,-0.472c-0.778,-0.039 -1.608,0.089 -2.491,0.384c-0.911,0.303 -1.515,0.663 -1.814,1.08c-0.299,0.417 -0.375,0.854 -0.228,1.31c0.147,0.455 0.432,0.894 0.854,1.316c0.315,0.315 0.68,0.594 1.097,0.837c0.417,0.242 0.882,0.427 1.395,0.554c0.513,0.127 1.067,0.177 1.662,0.149c0.595,-0.027 1.227,-0.153 1.897,-0.376Z" style="fill-rule:nonzero;"/>
            <path d="M336.084,301.501c-1.186,0.395 -2.434,0.69 -3.743,0.886c-1.309,0.195 -2.672,0.246 -4.089,0.152l-0.519,-2.356c0.892,0.068 1.817,0.05 2.774,-0.054c0.958,-0.103 1.925,-0.318 2.901,-0.643c1.502,-0.501 2.413,-1.075 2.733,-1.722c0.32,-0.647 0.1,-1.35 -0.659,-2.11l-0.465,-0.464c-0.089,0.362 -0.304,0.701 -0.646,1.019c-0.341,0.317 -0.757,0.604 -1.249,0.859c-0.492,0.255 -1.02,0.477 -1.584,0.665c-1.482,0.494 -2.849,0.711 -4.1,0.65c-1.251,-0.061 -2.388,-0.337 -3.411,-0.828c-1.023,-0.492 -1.933,-1.135 -2.728,-1.93l-4.872,-4.872l4.074,-1.358l4.386,4.387c0.283,0.283 0.603,0.56 0.961,0.832c0.357,0.272 0.767,0.496 1.229,0.673c0.462,0.177 0.982,0.27 1.56,0.28c0.577,0.009 1.222,-0.105 1.934,-0.342c0.934,-0.311 1.505,-0.678 1.714,-1.099c0.209,-0.422 0.19,-0.862 -0.055,-1.323c-0.245,-0.46 -0.586,-0.909 -1.024,-1.347l-4.222,-4.222l4.091,-1.364l7.604,7.605c0.809,0.808 1.411,1.586 1.808,2.333c0.397,0.747 0.524,1.458 0.383,2.134c-0.141,0.676 -0.593,1.311 -1.358,1.906c-0.764,0.595 -1.907,1.145 -3.428,1.653Z" style="fill-rule:nonzero;"/>
            <path d="M343.136,291.949l-2.436,-2.436l4.201,-4.406l-8.712,-0.106l-2.456,-2.456l15.574,0.231l1.22,1.219l-7.391,7.954Z" style="fill-rule:nonzero;"/>
            <path d="M64.674,236.026l557.128,-185.709c1.438,-0.479 3.022,-0.105 4.094,0.966l646.85,646.851c0.75,0.75 1.172,1.767 1.172,2.828l-0,29.743c-0,1.722 -1.102,3.25 -2.735,3.795l-557.128,185.709c-1.438,0.479 -3.022,0.105 -4.094,-0.966l-646.85,-646.851c-0.751,-0.75 -1.172,-1.767 -1.172,-2.828l0,-29.743c0,-1.722 1.102,-3.25 2.735,-3.795Zm1.265,3.795l0,29.743l646.851,646.851l557.128,-185.71l-0,-29.743l-646.851,-646.85l-557.128,185.709Z"/>
        </g>
        <path d="M152.202,258.085l-23.403,-0.353l-1.829,-1.829l11.127,-11.924l3.639,3.639l-6.326,6.583l13.093,0.184l3.699,3.7Z" style="fill-rule:nonzero;"/>
        <path d="M161.723,257.498l-17.88,-17.88l6.276,-2.092l7.404,7.404l13.384,-4.461l-7.403,-7.404l6.275,-2.092l17.881,17.88l-6.276,2.092l-7.151,-7.151l-13.385,4.461l7.151,7.151l-6.276,2.092Z" style="fill-rule:nonzero;"/>
        <path d="M203.792,243.475c-1.926,0.642 -3.671,1.042 -5.237,1.2c-1.565,0.158 -2.999,0.024 -4.3,-0.402c-1.302,-0.427 -2.517,-1.204 -3.646,-2.333l-5.716,-5.716l-3.422,1.141l-3.154,-3.153l3.423,-1.141l-3.573,-3.574l6.136,-2.045l3.573,3.573l5.016,-1.672l3.153,3.154l-5.015,1.672l5.215,5.215c0.556,0.556 1.164,0.937 1.824,1.141c0.659,0.205 1.611,0.1 2.854,-0.315l1.917,-0.639l3.158,3.159l-2.206,0.735Z" style="fill-rule:nonzero;"/>
        <path d="M209.386,241.611l-13.317,-13.317l5.533,-1.844l1.975,1.323c0.126,-0.676 0.425,-1.254 0.898,-1.735c0.472,-0.481 1.03,-0.886 1.674,-1.215c0.643,-0.329 1.262,-0.593 1.857,-0.791c1.378,-0.459 2.745,-0.712 4.104,-0.758c1.358,-0.046 2.695,0.165 4.012,0.634c0.128,-0.69 0.421,-1.297 0.879,-1.823c0.459,-0.526 1.031,-0.985 1.716,-1.377c0.685,-0.393 1.448,-0.729 2.288,-1.009c1.798,-0.599 3.461,-0.866 4.989,-0.8c1.528,0.065 2.928,0.394 4.2,0.985c1.272,0.591 2.41,1.389 3.414,2.393l8.445,8.445l-6.135,2.045l-7.51,-7.51c-0.297,-0.296 -0.634,-0.597 -1.013,-0.902c-0.379,-0.305 -0.822,-0.563 -1.328,-0.774c-0.507,-0.211 -1.062,-0.338 -1.666,-0.381c-0.603,-0.044 -1.284,0.061 -2.043,0.314c-0.753,0.251 -1.282,0.551 -1.587,0.899c-0.305,0.349 -0.451,0.726 -0.44,1.13c0.012,0.405 0.14,0.811 0.383,1.217c0.243,0.407 0.548,0.794 0.915,1.161l7.207,7.207l-6.136,2.045l-7.535,-7.535c-0.28,-0.28 -0.611,-0.568 -0.994,-0.865c-0.382,-0.297 -0.821,-0.556 -1.315,-0.778c-0.494,-0.222 -1.056,-0.35 -1.686,-0.385c-0.629,-0.035 -1.335,0.078 -2.117,0.339c-1.104,0.368 -1.757,0.823 -1.96,1.367c-0.203,0.544 -0.142,1.094 0.181,1.651c0.324,0.557 0.699,1.05 1.127,1.478l7.121,7.12l-6.136,2.046Z" style="fill-rule:nonzero;"/>
        <path d="M246.676,229.181l-17.881,-17.88l6.137,-2.046l17.88,17.881l-6.136,2.045Z" style="fill-rule:nonzero;"/>
        <path d="M257.613,222.927l-3.654,-3.654l6.301,-6.608l-13.068,-0.159l-3.684,-3.684l23.362,0.346l1.83,1.83l-11.087,11.929Z" style="fill-rule:nonzero;"/>
        <rect x="385.405" y="0" width="154.595" height="540" style="fill:url(#_Linear5);"/>
    </g>
    <defs>
        <linearGradient id="_Linear2" x1="0" y1="0" x2="1" y2="0" gradientUnits="userSpaceOnUse" gradientTransform="matrix(106.057,0,0,122.026,-4.79616e-12,540)"><stop class="stop-color"  offset="0" style="stop-opacity:1"/><stop class="stop-color"  offset="1" style="stop-opacity:0"/></linearGradient>
        <linearGradient id="_Linear3" x1="0" y1="0" x2="1" y2="0" gradientUnits="userSpaceOnUse" gradientTransform="matrix(5.97943e-15,-97.6515,122.026,7.47193e-15,540,540)"><stop class="stop-color"  offset="0" style="stop-opacity:1"/><stop class="stop-color"  offset="1" style="stop-opacity:0"/></linearGradient>
        <linearGradient id="_Linear4" x1="0" y1="0" x2="1" y2="0" gradientUnits="userSpaceOnUse" gradientTransform="matrix(2.5616e-15,95.4451,122.026,-1.33079e-14,540,3.06777e-12)"><stop class="stop-color"  offset="0" style="stop-opacity:1"/><stop class="stop-color"  offset="1" style="stop-opacity:0"/></linearGradient>
        <linearGradient id="_Linear5" x1="0" y1="0" x2="1" y2="0" gradientUnits="userSpaceOnUse" gradientTransform="matrix(-154.595,0,0,122.026,540,540)"><stop class="stop-color"  offset="0" style="stop-opacity:1"/><stop class="stop-color"  offset="1" style="stop-opacity:0"/></linearGradient>
    </defs>
</svg>
