<svg width="400" viewBox="0 0 500 48" fill="none" xmlns="http://www.w3.org/2000/svg">
<path d="M432.427 11.982H428.22C427.557 12.0079 426.973 12.4235 426.726 13.0468L425.778 15.8L425.012 17.9297L423.947 21.0075C423.83 21.3711 423.687 21.7347 423.493 22.0724C423.298 21.7347 423.142 21.3711 423.038 21.0075L422.012 17.9427C421.817 17.3453 421.48 16.3973 421.272 15.8L420.324 13.0468C420.077 12.4235 419.48 12.0079 418.818 11.982H402.624C402 11.982 401.494 12.4884 401.494 13.1118V19.54C401.494 20.1634 400.987 20.6698 400.364 20.6698H395.663C395.04 20.6698 394.533 20.1634 394.533 19.54V13.1118C394.533 12.5144 394.053 12.0079 393.455 11.982H389.546C388.923 11.982 388.417 12.4884 388.417 13.1118V16.0857C390.494 18.7349 390.494 23.5658 388.417 30.7602V34.1886C388.417 34.812 388.923 35.3185 389.546 35.3185H393.455C394.079 35.3185 394.585 34.812 394.585 34.1886V27.189C394.585 26.5786 395.066 26.0852 395.676 26.0592H400.377C401 26.0592 401.507 26.5527 401.507 27.176C401.507 27.176 401.507 27.176 401.507 27.189V34.1886C401.507 34.812 402.013 35.3185 402.637 35.3185H415.831C416.454 35.3185 416.961 34.812 416.961 34.1886V31.2927C416.961 30.6693 416.454 30.1629 415.831 30.1629H408.831C408.208 30.1629 407.701 29.6564 407.701 29.0331V27.1241C407.701 26.5007 408.208 25.9943 408.831 25.9943H413.065C413.688 25.9943 414.194 25.4878 414.194 24.8644V21.9685C414.194 21.3451 413.688 20.8387 413.065 20.8387H408.831C408.208 20.8387 407.701 20.3322 407.701 19.7088V18.3193C407.701 17.696 408.195 17.1895 408.818 17.1895C408.818 17.1895 408.818 17.1895 408.831 17.1895H414.558C415.233 17.2285 415.844 17.618 416.155 18.2154L419.869 26.2799C420.155 26.9682 420.324 27.6955 420.35 28.4357V34.2146C420.35 34.838 420.856 35.3444 421.48 35.3444H425.389C426.012 35.3444 426.519 34.851 426.519 34.2276C426.519 34.2276 426.519 34.2276 426.519 34.2146V28.4357C426.544 27.6955 426.7 26.9682 426.986 26.2799L433.116 13.0468C433.31 12.7352 433.219 12.3196 432.908 12.1248C432.752 11.9949 432.596 11.956 432.427 11.982Z" fill="#343233"/>
<path d="M382.949 15.9558C381.456 16.3584 380.092 17.1765 379.015 18.2934C377.768 13.904 375.08 7.26794 372.444 6.17709C371.885 5.91736 371.223 5.94333 370.69 6.25501C369.054 7.20301 367.976 10.2808 368.911 16.0987C365.301 9.48861 364.041 9.5016 363.457 9.48861C362.886 9.5016 362.379 9.85223 362.158 10.3717C361.769 11.2418 360.99 13.9559 362.899 19.7868C360.6 16.6441 359.899 16.2415 359.081 16.2805C358.548 16.3065 358.081 16.6311 357.86 17.1116C357.172 18.4102 357.249 21.6698 359.392 26.5397C358.665 25.8904 357.73 25.5138 356.756 25.4489C356.224 25.4878 355.743 25.7865 355.483 26.254C354.613 27.8513 356.431 32.3186 358.691 35.3575C360.509 37.8508 364.171 41.6688 369.47 41.6688C370.21 41.6688 370.95 41.6039 371.677 41.461C372.21 41.3572 372.547 40.8507 372.444 40.3182C372.34 39.7858 371.833 39.4482 371.301 39.5521C366.898 40.4092 363.574 37.9807 361.561 35.812C358.561 32.5524 357.236 28.6435 357.159 27.4488C357.782 27.7085 359.6 28.7734 363.132 33.2926C363.444 33.7212 364.041 33.8251 364.483 33.5134C364.911 33.2017 365.015 32.6043 364.704 32.1628C359.743 24.6307 359.249 20.0725 359.418 18.5401C360.873 20.0335 364.522 25.4878 367.275 29.6045C367.561 30.046 368.145 30.1759 368.587 29.9032C369.041 29.6435 369.197 29.0591 368.937 28.6045C363.236 18.1245 363.431 13.3585 363.769 11.7612C364.626 12.6313 366.911 15.6571 371.703 26.0722C371.911 26.5527 372.47 26.7605 372.95 26.5527C373.443 26.3579 373.677 25.8125 373.495 25.319C368.846 12.6833 370.872 8.39776 371.638 7.90427C372.638 7.90427 375.456 12.7352 377.21 19.0596C377.313 19.4492 377.417 19.8387 377.521 20.2024C377.274 20.6309 377.08 21.0984 376.95 21.5789C376.002 25.0852 375.041 33.0329 376.885 35.2146C377.261 35.6821 377.833 35.9289 378.43 35.8769C379.183 35.799 379.846 35.3834 380.261 34.7471C381.976 32.2537 380.963 26.0073 379.599 20.54C380.534 19.2284 381.872 18.2544 383.417 17.7999C384.092 17.5921 384.82 17.7609 385.326 18.2544C386.105 19.1375 387.469 22.41 383.326 33.9939C383.144 34.5004 383.417 35.0588 383.923 35.2406C384.43 35.4224 384.988 35.1497 385.17 34.6432C388.469 25.4099 388.988 19.4751 386.78 16.9688C385.806 15.9298 384.313 15.5403 382.949 15.9558ZM378.664 33.6692C378.599 33.7991 378.482 33.89 378.339 33.9419C377.625 33.0978 377.625 28.0591 378.404 23.9424C379.885 31.0849 379.015 33.1628 378.664 33.6692Z" fill="#343233"/>
<path d="M4.32253 47.56H14.4084V23.0657L0 12.2594V43.2375C0 45.6293 1.93793 47.56 4.32253 47.56Z" fill="#9B9B9B"/>
<path d="M48.9886 47.56H59.0745C61.4663 47.56 63.397 45.6221 63.397 43.2375V12.2594L48.9886 23.0657" fill="#6E6E6E"/>
<path d="M48.9886 4.33479V23.0657L63.397 12.2594V6.49605C63.397 1.15053 57.2951 -1.89685 53.023 1.30902" fill="#808080"/>
<path d="M14.4084 23.0657V4.33475L31.6985 17.3023L48.9886 4.33479V23.0657L31.6985 36.0333" fill="#909090"/>
<path d="M0 6.49605V12.2594L14.4084 23.0657V4.33475L10.3741 1.30902C6.09476 -1.89685 0 1.15053 0 6.49605Z" fill="#727272"/>
<path fill-rule="evenodd" clip-rule="evenodd" d="M479.751 47.5226C480.488 47.7061 481.188 47.1467 481.743 46.7C487.386 42.1376 493.06 37.6026 498.777 33.1331C498.935 33.0095 499.575 32.4483 499.733 32.2448C500.167 31.6819 500.06 30.6395 499.502 30.1726C498.006 28.9159 496.471 27.7097 494.936 26.5038C493.789 25.6026 492.643 24.7016 491.513 23.7797C494.132 21.7309 496.729 19.646 499.322 17.561C499.429 17.4757 499.736 17.1524 499.795 17.0235C500.127 16.2588 500.025 15.4234 499.322 14.8659C498.441 14.1678 497.559 13.4701 496.677 12.7723C491.504 8.67859 486.33 4.58452 481.2 0.43995C480.97 0.25284 480.41 0.0058239 480.113 0.000320645C479.439 -0.0128185 478.96 0.379934 478.454 0.793767C478.403 0.83555 478.352 0.877547 478.3 0.919364C475.681 3.02937 473.05 5.127 470.42 7.22444L470.42 7.22451L470.42 7.22458L470.42 7.22472L470.42 7.22485L470.42 7.22498C467.091 9.87901 463.764 12.5327 460.46 15.2108C460.411 15.2508 460.189 15.6976 460.184 15.7539C460.14 16.2915 460.095 16.9653 460.57 17.354C462.516 18.9535 464.491 20.5158 466.466 22.079L466.467 22.0792L466.467 22.0793L466.467 22.0795C467.183 22.6461 467.899 23.2128 468.614 23.7815C466.631 25.3361 464.664 26.9112 462.698 28.486C462.038 29.014 461.379 29.542 460.719 30.0692C460.501 30.2453 460.314 30.5431 460.202 30.7956C460.113 30.9954 460.105 31.4984 460.173 31.7019C460.345 32.2395 460.425 32.4047 460.903 32.7824C464.307 35.4819 467.705 38.1915 471.102 40.901L471.103 40.9014L471.104 40.902L471.105 40.9033L471.107 40.9047C473.685 42.9608 476.264 45.0169 478.845 47.0686C479.206 47.3555 479.335 47.4009 479.751 47.5226ZM489.593 25.327L483.507 30.1509L495.634 30.1436L489.593 25.327ZM479.931 29.7149C479.474 29.3587 479.018 28.9975 478.564 28.6377L478.482 28.5726C476.362 26.8882 474.246 25.1992 472.129 23.51L472.128 23.5095L472.128 23.5091C469.073 21.0715 466.018 18.6334 462.953 16.208C462.89 16.159 462.994 16.1168 463.102 16.0727C463.163 16.0481 463.225 16.0228 463.26 15.9955C467.69 12.497 472.101 8.97469 476.512 5.45279C477.69 4.51177 478.868 3.57077 480.047 2.63026L497.154 16.217L480.051 29.8075C480.042 29.801 480.034 29.7943 480.025 29.7876C480.02 29.7836 480.015 29.7795 480.01 29.7754C479.983 29.7547 479.957 29.734 479.931 29.7149ZM472.756 39.1271C475.148 41.031 477.54 42.9349 479.931 44.8401C479.971 44.8728 480.011 44.9037 480.051 44.9364L495.612 32.5646C494.074 32.5661 492.526 32.5788 490.974 32.5914C487.225 32.622 483.454 32.6528 479.751 32.5282C479.554 32.5204 479.427 32.4142 479.28 32.291C479.256 32.2712 479.231 32.2509 479.206 32.2304C477.433 30.8037 475.651 29.3879 473.869 27.9721C472.763 27.0937 471.658 26.2153 470.554 25.3342L462.977 31.3386C466.234 33.9368 469.495 36.5319 472.756 39.1271Z" fill="#343233"/>
<path d="M215.797 24.9681C215.799 24.5683 215.593 24.1962 215.252 23.9872H215.246L215.225 23.9753L197.509 13.4887C197.433 13.437 197.353 13.3897 197.271 13.3472C196.587 12.9943 195.775 12.9943 195.091 13.3472C195.009 13.3898 194.929 13.437 194.853 13.4887L177.138 23.9753L177.116 23.9872C176.575 24.3239 176.409 25.0358 176.745 25.5772C176.845 25.7367 176.981 25.8696 177.143 25.9644L194.859 36.451C194.936 36.5023 195.015 36.5495 195.097 36.5925C195.781 36.9454 196.593 36.9454 197.277 36.5925C197.359 36.5495 197.438 36.5023 197.515 36.451L215.231 25.9644C215.585 25.7581 215.801 25.3777 215.797 24.9681Z" fill="#393939"/>
<path d="M179.203 17.9664H190.828V28.623H179.203V17.9664ZM213.419 7.13375V2.25901C213.447 1.04022 212.482 0.0292051 211.263 0H181.094C179.876 0.0292051 178.911 1.04022 178.939 2.25901V7.13375L196.773 11.8896L213.419 7.13375Z" fill="#5E5E5E"/>
<path d="M178.939 7.13379H190.828V17.8344H178.939V7.13379Z" fill="#6A6A6A"/>
<path d="M202.718 7.13379H190.828V17.8344L202.718 28.5351H213.419V17.8344L202.718 7.13379Z" fill="#898989"/>
<path d="M190.828 17.8345H202.718V28.5351H190.828V17.8345Z" fill="#6A6A6A"/>
<path d="M190.828 28.535H202.718V39.2357H190.828V28.535Z" fill="#5E5E5E"/>
<path d="M179.203 28.623H190.828V38.3107H179.203V28.623Z" fill="#494949"/>
<path d="M202.718 28.535H213.419V39.2357H202.718V28.535Z" fill="#6A6A6A"/>
<path d="M215.252 25.8991L215.229 25.911L197.514 35.8745C197.437 35.922 197.358 35.9672 197.276 36.0076C196.975 36.1509 196.648 36.2318 196.315 36.2454L195.348 35.6795C195.266 35.6384 195.186 35.5928 195.11 35.5427L177.157 25.2963H177.148L176.561 24.9681V45.1377C176.57 46.4833 177.668 47.5669 179.014 47.5584H213.382C213.402 47.5584 213.42 47.5489 213.441 47.5489C213.725 47.5307 214.006 47.4722 214.273 47.3753C214.389 47.3262 214.501 47.2682 214.608 47.2017C214.687 47.1565 214.824 47.0578 214.824 47.0578C215.433 46.6071 215.794 45.8954 215.797 45.1377V24.9681C215.796 25.3539 215.588 25.7096 215.252 25.8991Z" fill="url(#paint0_linear_20_129)"/>
<path opacity="0.5" d="M214.845 24.8885V26.125L196.321 38.879L177.143 25.3046C177.143 25.2981 177.138 25.2927 177.132 25.2927L175.372 24.2346V23.3428L176.097 23.3309L177.631 24.2108L177.667 24.2227L177.797 24.3059C177.797 24.3059 195.822 34.5904 195.87 34.6142L196.559 35.0184C196.619 34.9946 196.678 34.9708 196.749 34.9471C196.785 34.9233 214.643 24.8766 214.643 24.8766L214.845 24.8885Z" fill="#393939"/>
<path d="M215.252 25.8991L215.229 25.9122L197.514 35.8756C197.437 35.9232 197.358 35.9684 197.276 36.0088C196.588 36.3449 195.784 36.3449 195.096 36.0088C195.014 35.9684 194.935 35.924 194.858 35.8756L177.142 25.9122L177.121 25.8991C176.779 25.7137 176.564 25.3572 176.561 24.9681V45.1377C176.569 46.4831 177.667 47.5669 179.012 47.5584C179.012 47.5584 179.012 47.5584 179.013 47.5584H213.345C214.69 47.567 215.788 46.4832 215.797 45.1378C215.797 45.1378 215.797 45.1377 215.797 45.1377V24.9681C215.796 25.3539 215.588 25.7096 215.252 25.8991Z" fill="#7A7A7A"/>
<path opacity="0.1" d="M197.772 35.7283L197.507 35.8769C197.43 35.9258 197.351 35.9707 197.269 36.0112C196.977 36.1546 196.659 36.2387 196.334 36.2585L203.075 44.2293L214.832 47.0626C215.154 46.8193 215.411 46.4992 215.578 46.1317L197.772 35.7283Z" fill="black"/>
<path opacity="0.05" d="M198.973 35.0529L197.507 35.8768C197.43 35.9257 197.351 35.9706 197.269 36.0112C196.977 36.1545 196.659 36.2386 196.334 36.2584L199.492 44.9652L214.836 47.059C215.44 46.6051 215.796 45.8935 215.797 45.1376V44.8772L198.973 35.0529Z" fill="black"/>
<path d="M179.046 47.5584H213.341C213.869 47.561 214.384 47.3943 214.81 47.0828L195.346 35.6819C195.265 35.6408 195.185 35.5952 195.109 35.5451L177.155 25.2987H177.147L176.561 24.9681V45.0687C176.56 46.4424 177.672 47.557 179.046 47.5584V47.5584Z" fill="#898989"/>
<path opacity="0.1" d="M193.206 11.6911V37.0516C193.204 37.9408 192.664 38.74 191.839 39.0728C191.584 39.1826 191.309 39.2392 191.031 39.2393H176.561V10.7007H178.939V9.51172H191.031C192.232 9.51627 193.204 10.4899 193.206 11.6911Z" fill="black"/>
<path opacity="0.2" d="M192.017 12.88V38.2405C192.02 38.5277 191.959 38.812 191.839 39.0728C191.509 39.8866 190.72 40.4206 189.842 40.4246H176.561V10.7007H189.842C190.187 10.6972 190.527 10.7833 190.828 10.9504C191.557 11.3175 192.017 12.0639 192.017 12.88Z" fill="black"/>
<path opacity="0.2" d="M192.017 12.88V35.8626C192.012 37.0632 191.042 38.0363 189.842 38.0467H176.561V10.7007H189.842C190.187 10.6972 190.527 10.7833 190.828 10.9504C191.557 11.3175 192.017 12.0639 192.017 12.88Z" fill="black"/>
<path opacity="0.2" d="M190.828 12.88V35.8626C190.827 37.0651 189.855 38.0409 188.653 38.0467H176.561V10.7007H188.653C189.855 10.7013 190.829 11.6765 190.828 12.8789C190.828 12.8793 190.828 12.8796 190.828 12.88Z" fill="black"/>
<path d="M166.851 10.7007H188.649C189.853 10.7007 190.828 11.6764 190.828 12.88V34.6784C190.828 35.8821 189.853 36.8578 188.649 36.8578H166.851C165.647 36.8578 164.671 35.882 164.671 34.6784V12.88C164.671 11.6764 165.647 10.7007 166.851 10.7007Z" fill="url(#paint1_linear_20_129)"/>
<path d="M171.483 19.8413C172.02 18.6969 172.887 17.7392 173.973 17.0913C175.175 16.403 176.544 16.0599 177.928 16.0997C179.212 16.0718 180.478 16.3972 181.589 17.0401C182.634 17.6631 183.475 18.5759 184.011 19.6677C184.595 20.8708 184.885 22.1949 184.86 23.5318C184.888 24.9291 184.589 26.3135 183.986 27.5743C183.437 28.7052 182.569 29.6505 181.489 30.2934C180.335 30.9561 179.022 31.29 177.692 31.2589C176.381 31.2905 175.087 30.9615 173.95 30.3077C172.896 29.6839 172.044 28.7701 171.496 27.6753C170.909 26.4896 170.615 25.1805 170.638 23.8576C170.613 22.4722 170.902 21.0993 171.483 19.8413ZM174.137 26.2974C174.423 27.0208 174.909 27.6483 175.537 28.107C176.177 28.5544 176.944 28.7853 177.725 28.7656C178.556 28.7985 179.376 28.5598 180.06 28.0855C180.681 27.6283 181.154 26.9992 181.42 26.2759C181.718 25.4683 181.865 24.6126 181.854 23.7518C181.863 22.8827 181.725 22.0184 181.445 21.1955C181.198 20.4527 180.74 19.7976 180.128 19.3099C179.461 18.8131 178.644 18.5612 177.813 18.5965C177.015 18.5758 176.231 18.8085 175.574 19.2611C174.935 19.7217 174.44 20.3547 174.147 21.0861C173.498 22.7628 173.495 24.6208 174.138 26.2997L174.137 26.2974Z" fill="white"/>
<path d="M202.718 7.13379H213.419V17.8344H202.718V7.13379Z" fill="#A8A8A8"/>
<path d="M101.156 0H126.887C132.933 0 137.801 4.86736 137.801 10.9134V36.645C137.801 42.6911 132.933 47.5584 126.887 47.5584H101.156C95.1096 47.5584 90.2422 42.6911 90.2422 36.645V10.9134C90.2422 4.86736 95.1096 0 101.156 0Z" fill="url(#paint2_linear_20_129)"/>
<path d="M100.662 13.5244C100.411 13.5244 100.175 13.5676 99.9519 13.6565L104.427 18.2637L108.952 22.9535L109.034 23.0526L109.166 23.1847L109.298 23.3168L109.563 23.5976L113.443 27.5773C113.508 27.6174 113.695 27.7909 113.841 27.864C114.03 27.9582 114.234 28.045 114.445 28.0525C114.672 28.0607 114.904 27.9956 115.108 27.8961C115.262 27.8216 115.33 27.7149 115.508 27.5773L119.999 22.937L124.54 18.2637L128.916 13.7556C128.635 13.6034 128.324 13.5244 127.992 13.5244H100.662ZM99.2914 14.0859C98.8142 14.5381 98.5153 15.2178 98.5153 15.9849V31.1111C98.5153 31.7322 98.7147 32.2964 99.0437 32.7294L99.6712 32.135L104.344 27.5938L108.489 23.581L108.407 23.482L103.866 18.8087L99.3244 14.1189L99.2914 14.0859ZM129.511 14.2345L125.085 18.8087L120.561 23.482L120.478 23.5645L124.788 27.7424L129.461 32.2836L129.742 32.5478C129.994 32.1441 130.138 31.6467 130.138 31.1111V15.9849C130.138 15.301 129.901 14.6808 129.511 14.2345ZM109.018 24.126L104.889 28.1387L100.2 32.6799L99.6051 33.2579C99.9185 33.4597 100.275 33.5881 100.662 33.5881H127.992C128.457 33.5881 128.878 33.4093 129.23 33.1258L128.933 32.8285L124.243 28.2874L119.933 24.126L116.052 28.1222C115.842 28.2615 115.702 28.4159 115.497 28.5107C115.167 28.6634 114.805 28.7925 114.442 28.7869C114.077 28.7813 113.72 28.6386 113.392 28.4777C113.228 28.3969 113.141 28.3166 112.948 28.1552L109.018 24.126Z" fill="white"/>
<path d="M242.667 17.7887H247.768L250.738 25.3882L253.747 17.7887H258.714L251.235 35.7792H246.237L248.284 31.012L242.667 17.7887Z" fill="#343233"/>
<path d="M263.889 17.4862C260.056 17.4862 257.633 20.9237 257.633 24.3468C257.633 28.1989 260.289 31.2528 263.816 31.2528C266.447 31.2528 267.439 29.65 267.439 29.65V30.8986H271.888V17.7888H267.439V18.9806C267.439 18.9806 266.332 17.4862 263.889 17.4862ZM264.835 21.6992C266.604 21.6992 267.516 23.0985 267.516 24.3612C267.516 25.7209 266.538 27.0552 264.835 27.0552C263.423 27.0552 262.148 25.9015 262.148 24.4191C262.148 22.9157 263.174 21.6992 264.835 21.6992Z" fill="#343233"/>
<path d="M273.42 30.8985V12H278.074V19.026C278.074 19.026 279.179 17.4878 281.494 17.4878C284.326 17.4878 285.985 19.5977 285.985 22.6127V30.8985H281.365V23.7477C281.365 22.7274 280.879 21.7417 279.778 21.7417C278.658 21.7417 278.074 22.7423 278.074 23.7477V30.8985H273.42Z" fill="#343233"/>
<path d="M293.919 17.4877C289.53 17.4877 286.917 20.8253 286.917 24.4013C286.917 28.4707 290.081 31.2528 293.936 31.2528C297.673 31.2528 300.942 28.597 300.942 24.4695C300.942 19.9533 297.519 17.4877 293.919 17.4877ZM293.961 21.7377C295.512 21.7377 296.585 23.029 296.585 24.4061C296.585 25.5807 295.585 27.0294 293.961 27.0294C292.474 27.0294 291.357 25.836 291.357 24.3933C291.357 23.0035 292.285 21.7377 293.961 21.7377Z" fill="#343233"/>
<path d="M308.695 17.4877C304.306 17.4877 301.692 20.8253 301.692 24.4013C301.692 28.4707 304.856 31.2528 308.711 31.2528C312.448 31.2528 315.717 28.597 315.717 24.4695C315.717 19.9533 312.294 17.4877 308.695 17.4877ZM308.737 21.7377C310.287 21.7377 311.36 23.029 311.36 24.4061C311.36 25.5807 310.36 27.0294 308.737 27.0294C307.249 27.0294 306.133 25.836 306.133 24.3933C306.133 23.0035 307.061 21.7377 308.737 21.7377Z" fill="#343233"/>
<path d="M319.39 31.1768C321.096 31.1768 322.48 29.7932 322.48 28.0866C322.48 26.3799 321.096 24.9963 319.39 24.9963C317.683 24.9963 316.299 26.3799 316.299 28.0866C316.299 29.7932 317.683 31.1768 319.39 31.1768Z" fill="#343233"/>
<path d="M323.495 23.8612H317.932L322.869 12H328.412L323.495 23.8612Z" fill="#343233"/>
<defs>
<linearGradient id="paint0_linear_20_129" x1="196.179" y1="24.9681" x2="196.179" y2="47.5584" gradientUnits="userSpaceOnUse">
<stop stop-color="#939393"/>
<stop offset="1" stop-color="#898989"/>
</linearGradient>
<linearGradient id="paint1_linear_20_129" x1="169.215" y1="8.99778" x2="186.284" y2="38.5607" gradientUnits="userSpaceOnUse">
<stop stop-color="#787878"/>
<stop offset="0.5" stop-color="#737373"/>
<stop offset="1" stop-color="#6A6A6A"/>
</linearGradient>
<linearGradient id="paint2_linear_20_129" x1="114.354" y1="47.3675" x2="114.401" y2="0.574142" gradientUnits="userSpaceOnUse">
<stop stop-color="#B8B8B8"/>
<stop offset="1" stop-color="#ABABAB"/>
</linearGradient>
</defs>
</svg>
