<svg width="425" height="111" viewBox="0 0 425 111" fill="none" xmlns="http://www.w3.org/2000/svg">
<path d="M0.157369 39.3519V88.9352H99.0092V39.3519H92.7129V82.6389H6.45367V39.3519H0.157369Z" fill="#343233"/>
<path d="M0 42.0506V37.3258L38.0193 17.9542V25.5139L8.85543 39.5701L9.09158 39.0976V40.2788L8.85543 39.8064L38.0193 53.8626V61.4223L0 42.0506Z" fill="#343233"/>
<path d="M62.5196 0L43.0377 72.4074H36.6618L56.1437 0H62.5196Z" fill="#343233"/>
<path d="M99.1667 42.0506L61.1473 61.4223V53.8626L90.3112 39.8064L90.0751 40.2788V39.0976L90.3112 39.5701L61.1473 25.5139V17.9542L99.1667 37.3258V42.0506Z" fill="#343233"/>
<path d="M131.443 87.7861C128.657 87.7861 126.036 87.1722 123.581 85.9445C121.172 84.7167 119.236 82.9694 117.772 80.7028L120.818 77.1611C122.187 79.1445 123.769 80.6556 125.564 81.6945C127.358 82.7333 129.342 83.2528 131.514 83.2528C137.653 83.2528 140.722 79.6167 140.722 72.3445V42.3111H122.589V37.7778H145.893V72.132C145.893 77.3736 144.665 81.2931 142.21 83.8903C139.801 86.4875 136.212 87.7861 131.443 87.7861Z" fill="#343233"/>
<path d="M185.204 87.7861C181.521 87.7861 177.979 87.1958 174.579 86.0153C171.226 84.7875 168.629 83.2292 166.787 81.3403L168.841 77.3028C170.589 79.0028 172.926 80.4431 175.854 81.6236C178.829 82.757 181.946 83.3236 185.204 83.3236C188.321 83.3236 190.847 82.9458 192.783 82.1903C194.766 81.3875 196.207 80.325 197.104 79.0028C198.048 77.6806 198.521 76.2167 198.521 74.6111C198.521 72.675 197.954 71.1167 196.821 69.9361C195.734 68.7556 194.294 67.8347 192.5 67.1736C190.705 66.4653 188.722 65.8514 186.55 65.3319C184.377 64.8125 182.205 64.2694 180.033 63.7028C177.861 63.0889 175.854 62.2861 174.012 61.2944C172.218 60.3028 170.754 59.0042 169.621 57.3986C168.534 55.7458 167.991 53.5972 167.991 50.9528C167.991 48.4972 168.629 46.2542 169.904 44.2236C171.226 42.1458 173.233 40.4931 175.925 39.2653C178.616 37.9903 182.064 37.3528 186.266 37.3528C189.053 37.3528 191.815 37.7542 194.554 38.557C197.293 39.3125 199.654 40.375 201.637 41.7444L199.866 45.9236C197.741 44.507 195.475 43.4681 193.066 42.807C190.705 42.1458 188.415 41.8153 186.196 41.8153C183.221 41.8153 180.765 42.2167 178.829 43.0194C176.893 43.8222 175.453 44.9083 174.508 46.2778C173.611 47.6 173.162 49.1111 173.162 50.8111C173.162 52.7472 173.705 54.3056 174.791 55.4861C175.925 56.6667 177.389 57.5875 179.183 58.2486C181.025 58.9097 183.032 59.5 185.204 60.0194C187.376 60.5389 189.525 61.1056 191.65 61.7194C193.822 62.3333 195.805 63.1361 197.6 64.1278C199.441 65.0722 200.905 66.3472 201.991 67.9528C203.125 69.5583 203.691 71.6597 203.691 74.257C203.691 76.6653 203.03 78.9083 201.708 80.9861C200.386 83.0167 198.355 84.6695 195.616 85.9445C192.925 87.1722 189.454 87.7861 185.204 87.7861Z" fill="#343233"/>
<path d="M217.19 87.3611L237.519 59.8778V63.9153L218.394 37.7778H224.415L240.494 59.5944L238.156 59.6653L254.235 37.7778H259.902L240.99 63.5611V59.8778L261.248 87.3611H255.156L238.015 64.0569H240.21L223.21 87.3611H217.19Z" fill="#343233"/>
<path fill-rule="evenodd" clip-rule="evenodd" d="M123.126 86.8354C120.561 85.5277 118.492 83.6604 116.932 81.2453L116.527 80.6174L120.905 75.5267L121.641 76.5929C122.94 78.4743 124.418 79.8753 126.065 80.829C127.7 81.7755 129.509 82.2528 131.514 82.2528C134.381 82.2528 136.363 81.4118 137.656 79.8806C138.976 78.317 139.722 75.8639 139.722 72.3445V43.3111H121.589V36.7778H146.893V72.132C146.893 77.5091 145.635 81.7201 142.94 84.5738C140.283 87.4362 136.388 88.7861 131.443 88.7861C128.504 88.7861 125.73 88.1371 123.133 86.8389L123.126 86.8354ZM142.21 83.8903C144.665 81.2931 145.893 77.3736 145.893 72.132V37.7778H122.589V42.3111H140.722V72.3445C140.722 79.6167 137.653 83.2528 131.514 83.2528C129.342 83.2528 127.358 82.7333 125.564 81.6945C124.028 80.8055 122.648 79.5707 121.424 77.9901C121.218 77.7236 121.016 77.4473 120.818 77.1611L117.772 80.7028C119.236 82.9694 121.172 84.7167 123.581 85.9445C126.036 87.1722 128.657 87.7861 131.443 87.7861C136.212 87.7861 139.801 86.4875 142.21 83.8903ZM174.243 86.9572L174.235 86.9543C170.789 85.6923 168.047 84.0653 166.071 82.0384L165.571 81.5254L168.566 75.6393L169.539 76.5861C171.168 78.1714 173.382 79.5476 176.219 80.6926C179.075 81.7793 182.068 82.3236 185.204 82.3236C188.249 82.3236 190.637 81.9532 192.413 81.2611C194.271 80.5083 195.523 79.5514 196.276 78.4413L196.283 78.4313L196.29 78.4215C197.115 77.2667 197.521 76.0056 197.521 74.6111C197.521 72.8827 197.022 71.5895 196.099 70.6286L196.092 70.621L196.085 70.6132C195.125 69.5699 193.828 68.7287 192.154 68.112L192.143 68.108L192.133 68.1038C190.388 67.4152 188.451 66.8147 186.317 66.3045C184.138 65.7835 181.959 65.2388 179.781 64.6704L179.771 64.6678L179.761 64.6651C177.524 64.0329 175.449 63.2038 173.538 62.1749L173.529 62.1697C171.608 61.1083 170.028 59.7096 168.804 57.9753L168.794 57.9617L168.785 57.9478C167.561 56.0854 166.991 53.7281 166.991 50.9528C166.991 48.3139 167.679 45.8857 169.057 43.6918L169.06 43.6867C170.504 41.4172 172.675 39.6499 175.503 38.3584C178.371 37.0017 181.976 36.3528 186.266 36.3528C189.147 36.3528 192.002 36.7677 194.828 37.5951C197.652 38.3751 200.117 39.4796 202.205 40.9216L202.876 41.3845L200.316 47.4253L199.312 46.7557C197.274 45.397 195.105 44.4034 192.802 43.7713L192.797 43.7699C190.514 43.1308 188.315 42.8153 186.196 42.8153C183.301 42.8153 180.987 43.2072 179.212 43.9432C177.409 44.6906 176.143 45.6695 175.333 46.8423C174.557 47.9873 174.162 49.2992 174.162 50.8111C174.162 52.5466 174.642 53.8429 175.52 54.8014C176.531 55.8512 177.855 56.693 179.525 57.3089C181.327 57.9554 183.297 58.5352 185.436 59.0469C187.623 59.5697 189.785 60.14 191.925 60.758C194.157 61.389 196.207 62.2168 198.07 63.2451C200.041 64.2588 201.631 65.6379 202.814 67.3842C204.096 69.204 204.691 71.523 204.691 74.257C204.691 76.86 203.974 79.2886 202.552 81.523L202.546 81.5318C201.099 83.7538 198.905 85.5164 196.038 86.851L196.031 86.8543C193.165 88.1615 189.539 88.7861 185.204 88.7861C181.412 88.7861 177.759 88.178 174.251 86.96L174.243 86.9572ZM201.991 67.9528C200.905 66.3472 199.441 65.0722 197.6 64.1278C195.805 63.1361 193.822 62.3333 191.65 61.7194C189.525 61.1056 187.376 60.5389 185.204 60.0194C183.032 59.5 181.025 58.9097 179.183 58.2486C177.389 57.5875 175.925 56.6667 174.791 55.4861C173.705 54.3056 173.162 52.7472 173.162 50.8111C173.162 49.1111 173.611 47.6 174.508 46.2778C175.453 44.9083 176.893 43.8222 178.829 43.0194C180.765 42.2167 183.221 41.8153 186.196 41.8153C188.415 41.8153 190.705 42.1458 193.066 42.807C195.155 43.3802 197.136 44.2374 199.011 45.3786C199.299 45.5536 199.584 45.7353 199.866 45.9236L201.637 41.7444C199.654 40.375 197.293 39.3125 194.554 38.557C191.815 37.7542 189.052 37.3528 186.266 37.3528C182.064 37.3528 178.616 37.9903 175.925 39.2653C173.233 40.4931 171.226 42.1458 169.904 44.2236C168.629 46.2542 167.991 48.4972 167.991 50.9528C167.991 53.5972 168.534 55.7458 169.621 57.3986C170.754 59.0042 172.218 60.3028 174.012 61.2944C175.854 62.2861 177.861 63.0889 180.033 63.7028C182.205 64.2694 184.377 64.8125 186.55 65.3319C188.722 65.8514 190.705 66.4653 192.5 67.1736C194.294 67.8347 195.734 68.7556 196.821 69.9361C197.954 71.1167 198.521 72.675 198.521 74.6111C198.521 76.2167 198.048 77.6806 197.104 79.0028C196.207 80.325 194.766 81.3875 192.783 82.1903C190.847 82.9458 188.321 83.3236 185.204 83.3236C181.946 83.3236 178.829 82.757 175.854 81.6236C173.335 80.608 171.253 79.4003 169.608 78.0003C169.341 77.7729 169.086 77.5404 168.841 77.3028L166.787 81.3403C168.629 83.2292 171.226 84.7875 174.579 86.0153C177.979 87.1958 181.521 87.7861 185.204 87.7861C189.454 87.7861 192.925 87.1722 195.616 85.9445C198.355 84.6694 200.386 83.0167 201.708 80.9861C203.03 78.9083 203.691 76.6653 203.691 74.257C203.691 71.6597 203.125 69.5583 201.991 67.9528ZM215.206 88.3611L234.792 61.8824L216.423 36.7778H224.92L239.348 56.3541L253.729 36.7778H261.876L243.585 61.7135L263.227 88.3611H254.65L239.12 67.248L223.719 88.3611H215.206ZM239.117 65.5558L255.156 87.3611H261.248L242.344 61.7149L259.902 37.7778H254.235L239.349 58.0414L224.415 37.7778H218.394L236.034 61.8856L217.19 87.3611H223.21L239.117 65.5558Z" fill="#343233"/>
<path d="M293.99 87.6365C290.978 87.6365 288.334 87.0121 286.056 85.7633C283.779 84.4778 281.998 82.7332 280.712 80.5295C279.427 78.2891 278.784 75.7365 278.784 72.8717C278.784 70.0068 279.39 67.4726 280.602 65.2689C281.851 63.0652 283.541 61.3389 285.671 60.0902C287.838 58.8047 290.262 58.1619 292.943 58.1619C295.661 58.1619 298.067 58.7863 300.16 60.0351C302.29 61.2471 303.962 62.9734 305.174 65.2138C306.386 67.4175 306.992 69.9701 306.992 72.8717C306.992 73.0553 306.973 73.2573 306.937 73.4777C306.937 73.6613 306.937 73.8633 306.937 74.0837H281.759V71.1638H304.843L303.3 72.3207C303.3 70.2272 302.841 68.3724 301.923 66.7564C301.042 65.1036 299.83 63.8181 298.287 62.8999C296.744 61.9817 294.963 61.5226 292.943 61.5226C290.96 61.5226 289.178 61.9817 287.599 62.8999C286.02 63.8181 284.789 65.1036 283.908 66.7564C283.026 68.4092 282.586 70.3007 282.586 72.4309V73.0369C282.586 75.2406 283.063 77.1872 284.018 78.8767C285.01 80.5295 286.369 81.8334 288.095 82.7883C289.858 83.7065 291.86 84.1656 294.1 84.1656C295.863 84.1656 297.497 83.8534 299.003 83.2291C300.546 82.6047 301.868 81.6497 302.97 80.3642L305.174 82.8985C303.888 84.4411 302.272 85.6164 300.325 86.4244C298.416 87.2325 296.304 87.6365 293.99 87.6365Z" fill="#343233"/>
<path d="M351.148 58.1619C353.499 58.1619 355.537 58.621 357.263 59.5392C359.026 60.4207 360.385 61.7797 361.34 63.6161C362.332 65.4525 362.828 67.7664 362.828 70.5578V87.361H358.916V70.9434C358.916 67.895 358.181 65.5994 356.712 64.0568C355.28 62.4775 353.241 61.6879 350.597 61.6879C348.614 61.6879 346.887 62.1102 345.418 62.955C343.986 63.763 342.866 64.9567 342.058 66.536C341.286 68.0786 340.901 69.9517 340.901 72.1555V87.361H336.989V70.9434C336.989 67.895 336.255 65.5994 334.785 64.0568C333.316 62.4775 331.26 61.6879 328.615 61.6879C326.668 61.6879 324.961 62.1102 323.491 62.955C322.022 63.763 320.884 64.9567 320.076 66.536C319.304 68.0786 318.919 69.9517 318.919 72.1555V87.361H315.007V58.4374H318.753V66.2605L318.147 64.8832C319.029 62.7897 320.443 61.1553 322.39 59.98C324.373 58.7679 326.705 58.1619 329.386 58.1619C332.214 58.1619 334.62 58.8781 336.603 60.3105C338.587 61.7062 339.872 63.8181 340.46 66.6462L338.917 66.0402C339.762 63.6896 341.25 61.798 343.38 60.3656C345.547 58.8965 348.136 58.1619 351.148 58.1619Z" fill="#343233"/>
<path d="M391.561 87.361V80.9703L391.396 79.9235V69.2355C391.396 66.7747 390.698 64.8832 389.302 63.561C387.943 62.2388 385.905 61.5777 383.187 61.5777C381.314 61.5777 379.532 61.8899 377.843 62.5142C376.153 63.1386 374.721 63.965 373.546 64.9934L371.783 62.0735C373.252 60.8247 375.015 59.8698 377.072 59.2087C379.128 58.5109 381.295 58.1619 383.572 58.1619C387.319 58.1619 390.202 59.0985 392.222 60.9717C394.279 62.8081 395.307 65.6178 395.307 69.4008V87.361H391.561ZM381.589 87.6365C379.422 87.6365 377.531 87.2876 375.915 86.5897C374.335 85.8551 373.123 84.8635 372.279 83.6147C371.434 82.3292 371.011 80.8601 371.011 79.2073C371.011 77.7014 371.36 76.3425 372.058 75.1305C372.793 73.8817 373.968 72.89 375.584 72.1555C377.237 71.3842 379.441 70.9985 382.195 70.9985H392.167V73.9184H382.305C379.514 73.9184 377.567 74.4142 376.466 75.4059C375.4 76.3976 374.868 77.628 374.868 79.0971C374.868 80.7499 375.511 82.0721 376.796 83.0638C378.082 84.0555 379.881 84.5513 382.195 84.5513C384.399 84.5513 386.29 84.0555 387.87 83.0638C389.486 82.0354 390.661 80.5663 391.396 78.6564L392.277 81.3559C391.543 83.2658 390.257 84.79 388.421 85.9286C386.621 87.0672 384.344 87.6365 381.589 87.6365Z" fill="#343233"/>
<path d="M405.931 87.361V58.4374H409.843V87.361H405.931ZM407.915 52.0467C407.107 52.0467 406.427 51.7712 405.876 51.2203C405.325 50.6693 405.05 50.0082 405.05 49.2369C405.05 48.4656 405.325 47.8229 405.876 47.3087C406.427 46.7578 407.107 46.4823 407.915 46.4823C408.723 46.4823 409.402 46.7394 409.953 47.2536C410.504 47.7678 410.78 48.4105 410.78 49.1818C410.78 49.9899 410.504 50.6693 409.953 51.2203C409.439 51.7712 408.76 52.0467 407.915 52.0467Z" fill="#343233"/>
<path d="M420.727 87.361V46.4823H424.638V87.361H420.727Z" fill="#343233"/>
<rect y="103.889" width="99.1667" height="6.2963" fill="#C13F21" fill-opacity="0.5"/>
<rect x="115.694" y="103.889" width="148.75" height="6.2963" fill="#D36E2D" fill-opacity="0.5"/>
<path fill-rule="evenodd" clip-rule="evenodd" d="M366.185 103.889H387.703V110.185H366.185V103.889ZM393.441 103.889H399.179V110.185H393.441V103.889ZM404.917 103.889H416.393V110.185H404.917V103.889ZM422.131 103.889H425V110.185H422.131V103.889Z" fill="#659CC8" fill-opacity="0.6"/>
<rect x="279.398" y="103.889" width="81.0648" height="6.2963" fill="#78AF9F" fill-opacity="0.5"/>
</svg>
