<?xml version="1.0" encoding="utf-8" ?>
<svg baseProfile="tiny" height="16" version="1.2" width="16" xmlns="http://www.w3.org/2000/svg" xmlns:ev="http://www.w3.org/2001/xml-events" xmlns:xlink="http://www.w3.org/1999/xlink"><defs /><rect fill="#000" height="1" width="1" x="3" y="1" /><rect fill="#000" height="1" width="1" x="4" y="1" /><rect fill="#000" height="1" width="1" x="5" y="1" /><rect fill="#000" height="1" width="1" x="6" y="1" /><rect fill="#000" height="1" width="1" x="7" y="1" /><rect fill="#000" height="1" width="1" x="8" y="1" /><rect fill="#000" height="1" width="1" x="9" y="1" /><rect fill="#000" height="1" width="1" x="10" y="1" /><rect fill="#000" height="1" width="1" x="11" y="1" /><rect fill="#000" height="1" width="1" x="12" y="1" /><rect fill="#000" height="1" width="1" x="1" y="2" /><rect fill="#000" height="1" width="1" x="2" y="2" /><rect fill="#000" height="1" width="1" x="3" y="2" /><rect fill="#000" height="1" width="1" x="12" y="2" /><rect fill="#000" height="1" width="1" x="13" y="2" /><rect fill="#000" height="1" width="1" x="14" y="2" /><rect fill="#000" height="1" width="1" x="1" y="3" /><rect fill="#000" height="1" width="1" x="14" y="3" /><rect fill="#000" height="1" width="1" x="1" y="4" /><rect fill="#000" height="1" width="1" x="2" y="4" /><rect fill="#000" height="1" width="1" x="13" y="4" /><rect fill="#000" height="1" width="1" x="14" y="4" /><rect fill="#000" height="1" width="1" x="1" y="5" /><rect fill="#000" height="1" width="1" x="2" y="5" /><rect fill="#000" height="1" width="1" x="3" y="5" /><rect fill="#000" height="1" width="1" x="4" y="5" /><rect fill="#000" height="1" width="1" x="5" y="5" /><rect fill="#000" height="1" width="1" x="10" y="5" /><rect fill="#000" height="1" width="1" x="11" y="5" /><rect fill="#000" height="1" width="1" x="12" y="5" /><rect fill="#000" height="1" width="1" x="13" y="5" /><rect fill="#000" height="1" width="1" x="14" y="5" /><rect fill="#000" height="1" width="1" x="1" y="6" /><rect fill="#000" height="1" width="1" x="5" y="6" /><rect fill="#000" height="1" width="1" x="6" y="6" /><rect fill="#000" height="1" width="1" x="7" y="6" /><rect fill="#000" height="1" width="1" x="8" y="6" /><rect fill="#000" height="1" width="1" x="9" y="6" /><rect fill="#000" height="1" width="1" x="10" y="6" /><rect fill="#000" height="1" width="1" x="14" y="6" /><rect fill="#000" height="1" width="1" x="1" y="7" /><rect fill="#000" height="1" width="1" x="2" y="7" /><rect fill="#000" height="1" width="1" x="3" y="7" /><rect fill="#000" height="1" width="1" x="12" y="7" /><rect fill="#000" height="1" width="1" x="13" y="7" /><rect fill="#000" height="1" width="1" x="14" y="7" /><rect fill="#000" height="1" width="1" x="1" y="8" /><rect fill="#000" height="1" width="1" x="3" y="8" /><rect fill="#000" height="1" width="1" x="4" y="8" /><rect fill="#000" height="1" width="1" x="5" y="8" /><rect fill="#000" height="1" width="1" x="6" y="8" /><rect fill="#000" height="1" width="1" x="7" y="8" /><rect fill="#000" height="1" width="1" x="8" y="8" /><rect fill="#000" height="1" width="1" x="9" y="8" /><rect fill="#000" height="1" width="1" x="10" y="8" /><rect fill="#000" height="1" width="1" x="11" y="8" /><rect fill="#000" height="1" width="1" x="12" y="8" /><rect fill="#000" height="1" width="1" x="14" y="8" /><rect fill="#000" height="1" width="1" x="1" y="9" /><rect fill="#000" height="1" width="1" x="14" y="9" /><rect fill="#000" height="1" width="1" x="1" y="10" /><rect fill="#000" height="1" width="1" x="2" y="10" /><rect fill="#000" height="1" width="1" x="3" y="10" /><rect fill="#000" height="1" width="1" x="12" y="10" /><rect fill="#000" height="1" width="1" x="13" y="10" /><rect fill="#000" height="1" width="1" x="14" y="10" /><rect fill="#000" height="1" width="1" x="1" y="11" /><rect fill="#000" height="1" width="1" x="3" y="11" /><rect fill="#000" height="1" width="1" x="4" y="11" /><rect fill="#000" height="1" width="1" x="5" y="11" /><rect fill="#000" height="1" width="1" x="6" y="11" /><rect fill="#000" height="1" width="1" x="7" y="11" /><rect fill="#000" height="1" width="1" x="8" y="11" /><rect fill="#000" height="1" width="1" x="9" y="11" /><rect fill="#000" height="1" width="1" x="10" y="11" /><rect fill="#000" height="1" width="1" x="11" y="11" /><rect fill="#000" height="1" width="1" x="12" y="11" /><rect fill="#000" height="1" width="1" x="14" y="11" /><rect fill="#000" height="1" width="1" x="1" y="12" /><rect fill="#000" height="1" width="1" x="14" y="12" /><rect fill="#000" height="1" width="1" x="1" y="13" /><rect fill="#000" height="1" width="1" x="2" y="13" /><rect fill="#000" height="1" width="1" x="3" y="13" /><rect fill="#000" height="1" width="1" x="12" y="13" /><rect fill="#000" height="1" width="1" x="13" y="13" /><rect fill="#000" height="1" width="1" x="14" y="13" /><rect fill="#000" height="1" width="1" x="3" y="14" /><rect fill="#000" height="1" width="1" x="4" y="14" /><rect fill="#000" height="1" width="1" x="5" y="14" /><rect fill="#000" height="1" width="1" x="6" y="14" /><rect fill="#000" height="1" width="1" x="7" y="14" /><rect fill="#000" height="1" width="1" x="8" y="14" /><rect fill="#000" height="1" width="1" x="9" y="14" /><rect fill="#000" height="1" width="1" x="10" y="14" /><rect fill="#000" height="1" width="1" x="11" y="14" /><rect fill="#000" height="1" width="1" x="12" y="14" /></svg>